<?xml version="1.0" encoding="UTF-8" standalone="no"?>
<!DOCTYPE svg PUBLIC "-//W3C//DTD SVG 1.1//EN"
 "http://www.w3.org/Graphics/SVG/1.1/DTD/svg11.dtd">
<!-- Generated by graphviz version 2.43.0 (0)
 -->
<!-- Title: main Pages: 1 -->
<svg width="286pt" height="410pt"
 viewBox="0.00 0.00 286.00 410.00" xmlns="http://www.w3.org/2000/svg" xmlns:xlink="http://www.w3.org/1999/xlink">
<g id="graph0" class="graph" transform="scale(1 1) rotate(0) translate(4 406)">
<title>main</title>
<polygon fill="white" stroke="transparent" points="-4,4 -4,-406 282,-406 282,4 -4,4"/>
<g id="clust1" class="cluster">
<title>cluster_0</title>
<polygon fill="none" stroke="black" points="79,-8 79,-48 124,-48 124,-8 79,-8"/>
<text text-anchor="middle" x="101.5" y="-32.8" font-family="Times,serif" font-size="14.00">End</text>
</g>
<g id="clust2" class="cluster">
<title>cluster_1</title>
<polygon fill="none" stroke="black" points="8,-81 8,-394 270,-394 270,-81 8,-81"/>
</g>
<!-- c_0 -->
<!-- c_1 -->
<!-- 2 -->
<g id="node3" class="node">
<title>2</title>
<g id="a_node3"><a xlink:title="source span: [4:11|4:14]">
<polygon fill="none" stroke="black" points="90,-212 36,-212 36,-176 90,-176 90,-212"/>
<text text-anchor="middle" x="63" y="-190.3" font-family="Times,serif" font-size="14.00">Add</text>
</a>
</g>
</g>
<!-- 3 -->
<g id="node4" class="node">
<title>3</title>
<g id="a_node4"><a xlink:title="source span: [4:4|4:14]">
<polygon fill="none" stroke="black" points="134,-125 68,-125 68,-89 134,-89 134,-125"/>
<text text-anchor="middle" x="101" y="-103.3" font-family="Times,serif" font-size="14.00">Return</text>
</a>
</g>
</g>
<!-- 2&#45;&gt;3 -->
<g id="edge4" class="edge">
<title>2&#45;&gt;3</title>
<path fill="none" stroke="black" d="M79,-175.97C79,-175.97 79,-135 79,-135"/>
<polygon fill="black" stroke="black" points="82.5,-135 79,-125 75.5,-135 82.5,-135"/>
<text text-anchor="middle" x="90" y="-146.8" font-family="Times,serif" font-size="14.00">1</text>
</g>
<!-- 3&#45;&gt;c_0 -->
<g id="edge1" class="edge">
<title>3&#45;&gt;c_0</title>
<path fill="none" stroke="black" d="M101,-88.69C101,-88.69 101,-73.63 101,-58.39"/>
<polygon fill="black" stroke="black" points="104.5,-58 101,-48 97.5,-58 104.5,-58"/>
<text text-anchor="middle" x="106" y="-59.8" font-family="Times,serif" font-size="14.00">0</text>
</g>
<!-- 4 -->
<g id="node5" class="node">
<title>4</title>
<g id="a_node5"><a xlink:title="source span: [0:0|5:5]">
<polygon fill="none" stroke="black" points="262,-299 208,-299 208,-263 262,-263 262,-299"/>
<text text-anchor="middle" x="235" y="-277.3" font-family="Times,serif" font-size="14.00">Start</text>
</a>
</g>
</g>
<!-- 9 -->
<g id="node10" class="node">
<title>9</title>
<g id="a_node10"><a xlink:title="source span: [0:0|5:5]">
<polygon fill="none" stroke="black" points="262,-212 108,-212 108,-176 262,-176 262,-212"/>
<text text-anchor="middle" x="185" y="-190.3" font-family="Times,serif" font-size="14.00">Proj SIDE_EFFECT</text>
</a>
</g>
</g>
<!-- 4&#45;&gt;9 -->
<g id="edge3" class="edge">
<title>4&#45;&gt;9</title>
<path fill="none" stroke="black" d="M235,-262.97C235,-262.97 235,-222 235,-222"/>
<polygon fill="black" stroke="black" points="238.5,-222 235,-212 231.5,-222 238.5,-222"/>
<text text-anchor="middle" x="209" y="-233.8" font-family="Times,serif" font-size="14.00">0</text>
</g>
<!-- 5 -->
<g id="node6" class="node">
<title>5</title>
<g id="a_node6"><a xlink:title="source span: [3:4|3:10]">
<polygon fill="none" stroke="black" points="190,-299 136,-299 136,-263 190,-263 190,-299"/>
<text text-anchor="middle" x="163" y="-277.3" font-family="Times,serif" font-size="14.00">Add</text>
</a>
</g>
</g>
<!-- 5&#45;&gt;2 -->
<g id="edge5" class="edge">
<title>5&#45;&gt;2</title>
<path fill="none" stroke="black" d="M163,-262.85C163,-250.73 163,-237 163,-237 163,-237 72,-237 72,-237 72,-237 72,-222.49 72,-222.49"/>
<polygon fill="black" stroke="black" points="75.5,-222.49 72,-212.49 68.5,-222.49 75.5,-222.49"/>
<text text-anchor="middle" x="148" y="-233.8" font-family="Times,serif" font-size="14.00">0</text>
</g>
<!-- 6 -->
<g id="node7" class="node">
<title>6</title>
<g id="a_node7"><a xlink:title="source span: [3:9|3:10]">
<polygon fill="none" stroke="black" points="239,-386 137,-386 137,-350 239,-350 239,-386"/>
<text text-anchor="middle" x="188" y="-364.3" font-family="Times,serif" font-size="14.00">ConstInt [7]</text>
</a>
</g>
</g>
<!-- 6&#45;&gt;5 -->
<g id="edge7" class="edge">
<title>6&#45;&gt;5</title>
<path fill="none" stroke="black" d="M163.5,-349.97C163.5,-349.97 163.5,-309 163.5,-309"/>
<polygon fill="black" stroke="black" points="167,-309 163.5,-299 160,-309 167,-309"/>
<text text-anchor="middle" x="180" y="-320.8" font-family="Times,serif" font-size="14.00">1</text>
</g>
<!-- 7 -->
<g id="node8" class="node">
<title>7</title>
<g id="a_node8"><a xlink:title="source span: [2:12|2:13]">
<polygon fill="none" stroke="black" points="119,-386 17,-386 17,-350 119,-350 119,-386"/>
<text text-anchor="middle" x="68" y="-364.3" font-family="Times,serif" font-size="14.00">ConstInt [2]</text>
</a>
</g>
</g>
<!-- 7&#45;&gt;5 -->
<g id="edge6" class="edge">
<title>7&#45;&gt;5</title>
<path fill="none" stroke="black" d="M119.23,-368C124.23,-368 127.5,-368 127.5,-368 127.5,-368 127.5,-281 127.5,-281 127.5,-281 128.32,-281 128.32,-281"/>
<polygon fill="black" stroke="black" points="125.73,-284.5 135.73,-281 125.73,-277.5 125.73,-284.5"/>
<text text-anchor="middle" x="104" y="-320.8" font-family="Times,serif" font-size="14.00">0</text>
</g>
<!-- 8 -->
<g id="node9" class="node">
<title>8</title>
<g id="a_node9"><a xlink:title="source span: [1:12|1:13]">
<polygon fill="none" stroke="black" points="118,-299 16,-299 16,-263 118,-263 118,-299"/>
<text text-anchor="middle" x="67" y="-277.3" font-family="Times,serif" font-size="14.00">ConstInt [5]</text>
</a>
</g>
</g>
<!-- 8&#45;&gt;2 -->
<g id="edge8" class="edge">
<title>8&#45;&gt;2</title>
<path fill="none" stroke="black" d="M54,-262.97C54,-262.97 54,-222 54,-222"/>
<polygon fill="black" stroke="black" points="57.5,-222 54,-212 50.5,-222 57.5,-222"/>
<text text-anchor="middle" x="70" y="-233.8" font-family="Times,serif" font-size="14.00">1</text>
</g>
<!-- 9&#45;&gt;3 -->
<g id="edge2" class="edge">
<title>9&#45;&gt;3</title>
<path fill="none" stroke="black" d="M121,-175.97C121,-175.97 121,-135 121,-135"/>
<polygon fill="black" stroke="black" points="124.5,-135 121,-125 117.5,-135 124.5,-135"/>
<text text-anchor="middle" x="167" y="-146.8" font-family="Times,serif" font-size="14.00">0</text>
</g>
</g>
</svg>
