<?xml version="1.0" encoding="UTF-8" standalone="no"?>
<!DOCTYPE svg PUBLIC "-//W3C//DTD SVG 1.1//EN"
 "http://www.w3.org/Graphics/SVG/1.1/DTD/svg11.dtd">
<!-- Generated by graphviz version 2.43.0 (0)
 -->
<!-- Title: main Pages: 1 -->
<svg width="354pt" height="323pt"
 viewBox="0.00 0.00 354.00 323.00" xmlns="http://www.w3.org/2000/svg" xmlns:xlink="http://www.w3.org/1999/xlink">
<g id="graph0" class="graph" transform="scale(1 1) rotate(0) translate(4 319)">
<title>main</title>
<polygon fill="white" stroke="transparent" points="-4,4 -4,-319 350,-319 350,4 -4,4"/>
<g id="clust1" class="cluster">
<title>cluster_0</title>
<polygon fill="none" stroke="black" points="8,-81 8,-307 338,-307 338,-81 8,-81"/>
</g>
<g id="clust2" class="cluster">
<title>cluster_7</title>
<polygon fill="none" stroke="black" points="109,-8 109,-48 154,-48 154,-8 109,-8"/>
<text text-anchor="middle" x="131.5" y="-32.8" font-family="Times,serif" font-size="14.00">End</text>
</g>
<!-- c_0 -->
<!-- 1 -->
<g id="node2" class="node">
<title>1</title>
<g id="a_node2"><a xlink:title="source span: [0:0|4:5]">
<polygon fill="none" stroke="black" points="170,-212 16,-212 16,-176 170,-176 170,-212"/>
<text text-anchor="middle" x="93" y="-190.3" font-family="Times,serif" font-size="14.00">Proj SIDE_EFFECT</text>
</a>
</g>
</g>
<!-- 3 -->
<g id="node4" class="node">
<title>3</title>
<g id="a_node4"><a xlink:title="source span: [3:4|3:14]">
<polygon fill="none" stroke="black" points="164,-125 98,-125 98,-89 164,-89 164,-125"/>
<text text-anchor="middle" x="131" y="-103.3" font-family="Times,serif" font-size="14.00">Return</text>
</a>
</g>
</g>
<!-- 1&#45;&gt;3 -->
<g id="edge2" class="edge">
<title>1&#45;&gt;3</title>
<path fill="none" stroke="black" d="M131,-175.97C131,-175.97 131,-135 131,-135"/>
<polygon fill="black" stroke="black" points="134.5,-135 131,-125 127.5,-135 134.5,-135"/>
<text text-anchor="middle" x="120" y="-146.8" font-family="Times,serif" font-size="14.00">0</text>
</g>
<!-- 2 -->
<g id="node3" class="node">
<title>2</title>
<g id="a_node3"><a xlink:title="source span: [2:12|2:13]">
<polygon fill="none" stroke="black" points="310,-299 208,-299 208,-263 310,-263 310,-299"/>
<text text-anchor="middle" x="259" y="-277.3" font-family="Times,serif" font-size="14.00">ConstInt [2]</text>
</a>
</g>
</g>
<!-- 6 -->
<g id="node7" class="node">
<title>6</title>
<g id="a_node7"><a xlink:title="source span: [3:11|3:14]">
<polygon fill="none" stroke="black" points="242,-212 188,-212 188,-176 242,-176 242,-212"/>
<text text-anchor="middle" x="215" y="-190.3" font-family="Times,serif" font-size="14.00">Add</text>
</a>
</g>
</g>
<!-- 2&#45;&gt;6 -->
<g id="edge5" class="edge">
<title>2&#45;&gt;6</title>
<path fill="none" stroke="black" d="M225,-262.97C225,-262.97 225,-222 225,-222"/>
<polygon fill="black" stroke="black" points="228.5,-222 225,-212 221.5,-222 228.5,-222"/>
<text text-anchor="middle" x="242" y="-233.8" font-family="Times,serif" font-size="14.00">0</text>
</g>
<!-- c_7 -->
<!-- 3&#45;&gt;c_7 -->
<g id="edge1" class="edge">
<title>3&#45;&gt;c_7</title>
<path fill="none" stroke="black" d="M131,-88.69C131,-88.69 131,-73.63 131,-58.39"/>
<polygon fill="black" stroke="black" points="134.5,-58 131,-48 127.5,-58 134.5,-58"/>
<text text-anchor="middle" x="136" y="-59.8" font-family="Times,serif" font-size="14.00">0</text>
</g>
<!-- 4 -->
<g id="node5" class="node">
<title>4</title>
<g id="a_node5"><a xlink:title="source span: [1:12|1:13]">
<polygon fill="none" stroke="black" points="190,-299 88,-299 88,-263 190,-263 190,-299"/>
<text text-anchor="middle" x="139" y="-277.3" font-family="Times,serif" font-size="14.00">ConstInt [5]</text>
</a>
</g>
</g>
<!-- 4&#45;&gt;6 -->
<g id="edge6" class="edge">
<title>4&#45;&gt;6</title>
<path fill="none" stroke="black" d="M190.15,-281C195.48,-281 199,-281 199,-281 199,-281 199,-222.03 199,-222.03"/>
<polygon fill="black" stroke="black" points="202.5,-222.03 199,-212.03 195.5,-222.03 202.5,-222.03"/>
<text text-anchor="middle" x="176" y="-233.8" font-family="Times,serif" font-size="14.00">1</text>
</g>
<!-- 5 -->
<g id="node6" class="node">
<title>5</title>
<g id="a_node6"><a xlink:title="source span: [0:0|4:5]">
<polygon fill="none" stroke="black" points="70,-299 16,-299 16,-263 70,-263 70,-299"/>
<text text-anchor="middle" x="43" y="-277.3" font-family="Times,serif" font-size="14.00">Start</text>
</a>
</g>
</g>
<!-- 5&#45;&gt;1 -->
<g id="edge3" class="edge">
<title>5&#45;&gt;1</title>
<path fill="none" stroke="black" d="M43,-262.97C43,-262.97 43,-222 43,-222"/>
<polygon fill="black" stroke="black" points="46.5,-222 43,-212 39.5,-222 46.5,-222"/>
<text text-anchor="middle" x="73" y="-233.8" font-family="Times,serif" font-size="14.00">0</text>
</g>
<!-- 6&#45;&gt;3 -->
<g id="edge4" class="edge">
<title>6&#45;&gt;3</title>
<path fill="none" stroke="black" d="M215,-175.97C215,-150.49 215,-107 215,-107 215,-107 174.2,-107 174.2,-107"/>
<polygon fill="black" stroke="black" points="174.2,-103.5 164.2,-107 174.2,-110.5 174.2,-103.5"/>
<text text-anchor="middle" x="197" y="-146.8" font-family="Times,serif" font-size="14.00">1</text>
</g>
</g>
</svg>
