<?xml version="1.0" encoding="UTF-8" standalone="no"?>
<!DOCTYPE svg PUBLIC "-//W3C//DTD SVG 1.1//EN"
 "http://www.w3.org/Graphics/SVG/1.1/DTD/svg11.dtd">
<!-- Generated by graphviz version 2.43.0 (0)
 -->
<!-- Title: main Pages: 1 -->
<svg width="381pt" height="866pt"
 viewBox="0.00 0.00 381.00 866.00" xmlns="http://www.w3.org/2000/svg" xmlns:xlink="http://www.w3.org/1999/xlink">
<g id="graph0" class="graph" transform="scale(1 1) rotate(0) translate(4 862)">
<title>main</title>
<polygon fill="white" stroke="transparent" points="-4,4 -4,-862 377,-862 377,4 -4,4"/>
<g id="clust1" class="cluster">
<title>cluster_0</title>
<polygon fill="none" stroke="black" points="123,-8 123,-48 168,-48 168,-8 123,-8"/>
<text text-anchor="middle" x="145.5" y="-32.8" font-family="Times,serif" font-size="14.00">End</text>
</g>
<g id="clust2" class="cluster">
<title>cluster_1</title>
<polygon fill="none" stroke="black" points="8,-81 8,-850 365,-850 365,-81 8,-81"/>
</g>
<!-- c_0 -->
<!-- c_1 -->
<!-- 2 -->
<g id="node3" class="node">
<title>2</title>
<g id="a_node3"><a xlink:title="source span: [7:8|7:13]">
<polygon fill="none" stroke="black" points="155,-212 45,-212 45,-176 155,-176 155,-212"/>
<text text-anchor="middle" x="100" y="-190.3" font-family="Times,serif" font-size="14.00">Proj RESULT</text>
</a>
</g>
</g>
<!-- 14 -->
<g id="node15" class="node">
<title>14</title>
<g id="a_node15"><a xlink:title="source span: [8:0|8:8]">
<polygon fill="none" stroke="black" points="178,-125 112,-125 112,-89 178,-89 178,-125"/>
<text text-anchor="middle" x="145" y="-103.3" font-family="Times,serif" font-size="14.00">Return</text>
</a>
</g>
</g>
<!-- 2&#45;&gt;14 -->
<g id="edge19" class="edge">
<title>2&#45;&gt;14</title>
<path fill="none" stroke="black" d="M133.5,-175.97C133.5,-175.97 133.5,-135 133.5,-135"/>
<polygon fill="black" stroke="black" points="137,-135 133.5,-125 130,-135 137,-135"/>
<text text-anchor="middle" x="134" y="-146.8" font-family="Times,serif" font-size="14.00">1</text>
</g>
<!-- 3 -->
<g id="node4" class="node">
<title>3</title>
<g id="a_node4"><a xlink:title="source span: [4:8|4:13]">
<polygon fill="none" stroke="black" points="235,-581 125,-581 125,-545 235,-545 235,-581"/>
<text text-anchor="middle" x="180" y="-559.3" font-family="Times,serif" font-size="14.00">Proj RESULT</text>
</a>
</g>
</g>
<!-- 5 -->
<g id="node6" class="node">
<title>5</title>
<g id="a_node6"><a xlink:title="source span: [5:8|5:13]">
<polygon fill="none" stroke="black" points="141,-473 87,-473 87,-437 141,-437 141,-473"/>
<text text-anchor="middle" x="114" y="-451.3" font-family="Times,serif" font-size="14.00">Sub</text>
</a>
</g>
</g>
<!-- 3&#45;&gt;5 -->
<g id="edge15" class="edge">
<title>3&#45;&gt;5</title>
<path fill="none" stroke="black" d="M133,-544.68C133,-544.68 133,-483.05 133,-483.05"/>
<polygon fill="black" stroke="black" points="136.5,-483.05 133,-473.05 129.5,-483.05 136.5,-483.05"/>
<text text-anchor="middle" x="149" y="-505.3" font-family="Times,serif" font-size="14.00">1</text>
</g>
<!-- 6 -->
<g id="node7" class="node">
<title>6</title>
<g id="a_node7"><a xlink:title="source span: [6:8|6:13]">
<polygon fill="none" stroke="black" points="202,-386 148,-386 148,-350 202,-350 202,-386"/>
<text text-anchor="middle" x="175" y="-364.3" font-family="Times,serif" font-size="14.00">Mul</text>
</a>
</g>
</g>
<!-- 3&#45;&gt;6 -->
<g id="edge5" class="edge">
<title>3&#45;&gt;6</title>
<path fill="none" stroke="black" d="M171.33,-544.65C171.33,-544.65 171.33,-396.15 171.33,-396.15"/>
<polygon fill="black" stroke="black" points="174.83,-396.15 171.33,-386.15 167.83,-396.15 174.83,-396.15"/>
<text text-anchor="middle" x="182" y="-451.3" font-family="Times,serif" font-size="14.00">0</text>
</g>
<!-- 4 -->
<g id="node5" class="node">
<title>4</title>
<g id="a_node5"><a xlink:title="source span: [7:8|7:13]">
<polygon fill="none" stroke="black" points="202,-299 148,-299 148,-263 202,-263 202,-299"/>
<text text-anchor="middle" x="175" y="-277.3" font-family="Times,serif" font-size="14.00">Div</text>
</a>
</g>
</g>
<!-- 4&#45;&gt;2 -->
<g id="edge20" class="edge">
<title>4&#45;&gt;2</title>
<path fill="none" stroke="black" d="M151.5,-262.97C151.5,-262.97 151.5,-222 151.5,-222"/>
<polygon fill="black" stroke="black" points="155,-222 151.5,-212 148,-222 155,-222"/>
<text text-anchor="middle" x="137" y="-233.8" font-family="Times,serif" font-size="14.00">0</text>
</g>
<!-- 8 -->
<g id="node9" class="node">
<title>8</title>
<g id="a_node9"><a xlink:title="source span: [7:8|7:13]">
<polygon fill="none" stroke="black" points="327,-212 173,-212 173,-176 327,-176 327,-212"/>
<text text-anchor="middle" x="250" y="-190.3" font-family="Times,serif" font-size="14.00">Proj SIDE_EFFECT</text>
</a>
</g>
</g>
<!-- 4&#45;&gt;8 -->
<g id="edge3" class="edge">
<title>4&#45;&gt;8</title>
<path fill="none" stroke="black" d="M187.5,-262.97C187.5,-262.97 187.5,-222 187.5,-222"/>
<polygon fill="black" stroke="black" points="191,-222 187.5,-212 184,-222 191,-222"/>
<text text-anchor="middle" x="207" y="-233.8" font-family="Times,serif" font-size="14.00">0</text>
</g>
<!-- 5&#45;&gt;4 -->
<g id="edge16" class="edge">
<title>5&#45;&gt;4</title>
<path fill="none" stroke="black" d="M114,-436.71C114,-392.03 114,-281 114,-281 114,-281 137.71,-281 137.71,-281"/>
<polygon fill="black" stroke="black" points="137.71,-284.5 147.71,-281 137.71,-277.5 137.71,-284.5"/>
<text text-anchor="middle" x="121" y="-364.3" font-family="Times,serif" font-size="14.00">1</text>
</g>
<!-- 5&#45;&gt;6 -->
<g id="edge13" class="edge">
<title>5&#45;&gt;6</title>
<path fill="none" stroke="black" d="M141.09,-455C150.93,-455 159.67,-455 159.67,-455 159.67,-455 159.67,-396.03 159.67,-396.03"/>
<polygon fill="black" stroke="black" points="163.17,-396.03 159.67,-386.03 156.17,-396.03 163.17,-396.03"/>
<text text-anchor="middle" x="155" y="-407.8" font-family="Times,serif" font-size="14.00">1</text>
</g>
<!-- 6&#45;&gt;4 -->
<g id="edge4" class="edge">
<title>6&#45;&gt;4</title>
<path fill="none" stroke="black" d="M175,-349.97C175,-349.97 175,-309 175,-309"/>
<polygon fill="black" stroke="black" points="178.5,-309 175,-299 171.5,-309 178.5,-309"/>
<text text-anchor="middle" x="180" y="-320.8" font-family="Times,serif" font-size="14.00">0</text>
</g>
<!-- 7 -->
<g id="node8" class="node">
<title>7</title>
<g id="a_node8"><a xlink:title="source span: [4:8|4:13]">
<polygon fill="none" stroke="black" points="337,-527 183,-527 183,-491 337,-491 337,-527"/>
<text text-anchor="middle" x="260" y="-505.3" font-family="Times,serif" font-size="14.00">Proj SIDE_EFFECT</text>
</a>
</g>
</g>
<!-- 7&#45;&gt;4 -->
<g id="edge17" class="edge">
<title>7&#45;&gt;4</title>
<path fill="none" stroke="black" d="M264.5,-490.73C264.5,-436.62 264.5,-281 264.5,-281 264.5,-281 212.34,-281 212.34,-281"/>
<polygon fill="black" stroke="black" points="212.34,-277.5 202.34,-281 212.34,-284.5 212.34,-277.5"/>
<text text-anchor="middle" x="246" y="-407.8" font-family="Times,serif" font-size="14.00">2</text>
</g>
<!-- 8&#45;&gt;14 -->
<g id="edge2" class="edge">
<title>8&#45;&gt;14</title>
<path fill="none" stroke="black" d="M172.88,-194C167.41,-194 164,-194 164,-194 164,-194 164,-135.03 164,-135.03"/>
<polygon fill="black" stroke="black" points="167.5,-135.03 164,-125.03 160.5,-135.03 167.5,-135.03"/>
<text text-anchor="middle" x="225" y="-146.8" font-family="Times,serif" font-size="14.00">0</text>
</g>
<!-- 9 -->
<g id="node10" class="node">
<title>9</title>
<g id="a_node10"><a xlink:title="source span: [0:0|9:1]">
<polygon fill="none" stroke="black" points="337,-842 283,-842 283,-806 337,-806 337,-842"/>
<text text-anchor="middle" x="310" y="-820.3" font-family="Times,serif" font-size="14.00">Start</text>
</a>
</g>
</g>
<!-- 13 -->
<g id="node14" class="node">
<title>13</title>
<g id="a_node14"><a xlink:title="source span: [0:0|9:1]">
<polygon fill="none" stroke="black" points="357,-755 203,-755 203,-719 357,-719 357,-755"/>
<text text-anchor="middle" x="280" y="-733.3" font-family="Times,serif" font-size="14.00">Proj SIDE_EFFECT</text>
</a>
</g>
</g>
<!-- 9&#45;&gt;13 -->
<g id="edge12" class="edge">
<title>9&#45;&gt;13</title>
<path fill="none" stroke="black" d="M310,-805.97C310,-805.97 310,-765 310,-765"/>
<polygon fill="black" stroke="black" points="313.5,-765 310,-755 306.5,-765 313.5,-765"/>
<text text-anchor="middle" x="300" y="-776.8" font-family="Times,serif" font-size="14.00">0</text>
</g>
<!-- 10 -->
<g id="node11" class="node">
<title>10</title>
<g id="a_node11"><a xlink:title="source span: [2:8|2:11]">
<polygon fill="none" stroke="black" points="265,-842 145,-842 145,-806 265,-806 265,-842"/>
<text text-anchor="middle" x="205" y="-820.3" font-family="Times,serif" font-size="14.00">ConstInt [420]</text>
</a>
</g>
</g>
<!-- 11 -->
<g id="node12" class="node">
<title>11</title>
<g id="a_node12"><a xlink:title="source span: [3:8|3:13]">
<polygon fill="none" stroke="black" points="136,-755 82,-755 82,-719 136,-719 136,-755"/>
<text text-anchor="middle" x="109" y="-733.3" font-family="Times,serif" font-size="14.00">Add</text>
</a>
</g>
</g>
<!-- 10&#45;&gt;11 -->
<g id="edge10" class="edge">
<title>10&#45;&gt;11</title>
<path fill="none" stroke="black" d="M149,-805.97C149,-780.49 149,-737 149,-737 149,-737 146.34,-737 146.34,-737"/>
<polygon fill="black" stroke="black" points="146.34,-733.5 136.34,-737 146.34,-740.5 146.34,-733.5"/>
<text text-anchor="middle" x="137" y="-776.8" font-family="Times,serif" font-size="14.00">1</text>
</g>
<!-- 15 -->
<g id="node16" class="node">
<title>15</title>
<g id="a_node16"><a xlink:title="source span: [4:8|4:13]">
<polygon fill="none" stroke="black" points="207,-668 153,-668 153,-632 207,-632 207,-668"/>
<text text-anchor="middle" x="180" y="-646.3" font-family="Times,serif" font-size="14.00">Mod</text>
</a>
</g>
</g>
<!-- 10&#45;&gt;15 -->
<g id="edge7" class="edge">
<title>10&#45;&gt;15</title>
<path fill="none" stroke="black" d="M178,-805.71C178,-805.71 178,-678.05 178,-678.05"/>
<polygon fill="black" stroke="black" points="181.5,-678.05 178,-668.05 174.5,-678.05 181.5,-678.05"/>
<text text-anchor="middle" x="180" y="-733.3" font-family="Times,serif" font-size="14.00">0</text>
</g>
<!-- 11&#45;&gt;5 -->
<g id="edge14" class="edge">
<title>11&#45;&gt;5</title>
<path fill="none" stroke="black" d="M106,-718.93C106,-718.93 106,-483.28 106,-483.28"/>
<polygon fill="black" stroke="black" points="109.5,-483.28 106,-473.28 102.5,-483.28 109.5,-483.28"/>
<text text-anchor="middle" x="111" y="-602.8" font-family="Times,serif" font-size="14.00">0</text>
</g>
<!-- 11&#45;&gt;15 -->
<g id="edge8" class="edge">
<title>11&#45;&gt;15</title>
<path fill="none" stroke="black" d="M130.5,-718.97C130.5,-693.49 130.5,-650 130.5,-650 130.5,-650 142.93,-650 142.93,-650"/>
<polygon fill="black" stroke="black" points="142.93,-653.5 152.93,-650 142.93,-646.5 142.93,-653.5"/>
<text text-anchor="middle" x="150" y="-689.8" font-family="Times,serif" font-size="14.00">1</text>
</g>
<!-- 12 -->
<g id="node13" class="node">
<title>12</title>
<g id="a_node13"><a xlink:title="source span: [1:8|1:10]">
<polygon fill="none" stroke="black" points="126.5,-842 15.5,-842 15.5,-806 126.5,-806 126.5,-842"/>
<text text-anchor="middle" x="71" y="-820.3" font-family="Times,serif" font-size="14.00">ConstInt [69]</text>
</a>
</g>
</g>
<!-- 12&#45;&gt;11 -->
<g id="edge9" class="edge">
<title>12&#45;&gt;11</title>
<path fill="none" stroke="black" d="M104.25,-805.97C104.25,-805.97 104.25,-765 104.25,-765"/>
<polygon fill="black" stroke="black" points="107.75,-765 104.25,-755 100.75,-765 107.75,-765"/>
<text text-anchor="middle" x="90" y="-776.8" font-family="Times,serif" font-size="14.00">0</text>
</g>
<!-- 13&#45;&gt;15 -->
<g id="edge11" class="edge">
<title>13&#45;&gt;15</title>
<path fill="none" stroke="black" d="M221,-718.62C221,-694.72 221,-656 221,-656 221,-656 217.12,-656 217.12,-656"/>
<polygon fill="black" stroke="black" points="217.12,-652.5 207.12,-656 217.12,-659.5 217.12,-652.5"/>
<text text-anchor="middle" x="244" y="-689.8" font-family="Times,serif" font-size="14.00">2</text>
</g>
<!-- 14&#45;&gt;c_0 -->
<g id="edge1" class="edge">
<title>14&#45;&gt;c_0</title>
<path fill="none" stroke="black" d="M145,-88.69C145,-88.69 145,-73.63 145,-58.39"/>
<polygon fill="black" stroke="black" points="148.5,-58 145,-48 141.5,-58 148.5,-58"/>
<text text-anchor="middle" x="150" y="-59.8" font-family="Times,serif" font-size="14.00">0</text>
</g>
<!-- 15&#45;&gt;3 -->
<g id="edge6" class="edge">
<title>15&#45;&gt;3</title>
<path fill="none" stroke="black" d="M180,-631.97C180,-631.97 180,-591 180,-591"/>
<polygon fill="black" stroke="black" points="183.5,-591 180,-581 176.5,-591 183.5,-591"/>
<text text-anchor="middle" x="185" y="-602.8" font-family="Times,serif" font-size="14.00">0</text>
</g>
<!-- 15&#45;&gt;7 -->
<g id="edge18" class="edge">
<title>15&#45;&gt;7</title>
<path fill="none" stroke="black" d="M207.02,-644C238.43,-644 286,-644 286,-644 286,-644 286,-537.21 286,-537.21"/>
<polygon fill="black" stroke="black" points="289.5,-537.21 286,-527.21 282.5,-537.21 289.5,-537.21"/>
<text text-anchor="middle" x="263" y="-602.8" font-family="Times,serif" font-size="14.00">0</text>
</g>
</g>
</svg>
