<?xml version="1.0" encoding="UTF-8" standalone="no"?>
<!DOCTYPE svg PUBLIC "-//W3C//DTD SVG 1.1//EN"
 "http://www.w3.org/Graphics/SVG/1.1/DTD/svg11.dtd">
<!-- Generated by graphviz version 2.43.0 (0)
 -->
<!-- Title: main Pages: 1 -->
<svg width="540pt" height="2255pt"
 viewBox="0.00 0.00 540.00 2255.00" xmlns="http://www.w3.org/2000/svg" xmlns:xlink="http://www.w3.org/1999/xlink">
<g id="graph0" class="graph" transform="scale(1 1) rotate(0) translate(4 2251)">
<title>main</title>
<polygon fill="white" stroke="transparent" points="-4,4 -4,-2251 536,-2251 536,4 -4,4"/>
<g id="clust1" class="cluster">
<title>cluster_0</title>
<polygon fill="none" stroke="black" points="8,-81 8,-2239 524,-2239 524,-81 8,-81"/>
</g>
<g id="clust2" class="cluster">
<title>cluster_43</title>
<polygon fill="none" stroke="black" points="340,-8 340,-48 385,-48 385,-8 340,-8"/>
<text text-anchor="middle" x="362.5" y="-32.8" font-family="Times,serif" font-size="14.00">End</text>
</g>
<!-- c_0 -->
<!-- 1 -->
<g id="node2" class="node">
<title>1</title>
<g id="a_node2"><a xlink:title="source span: [3:10|3:12]">
<polygon fill="none" stroke="black" points="255.5,-2144 144.5,-2144 144.5,-2108 255.5,-2108 255.5,-2144"/>
<text text-anchor="middle" x="200" y="-2122.3" font-family="Times,serif" font-size="14.00">ConstInt [46]</text>
</a>
</g>
</g>
<!-- 5 -->
<g id="node6" class="node">
<title>5</title>
<g id="a_node6"><a xlink:title="source span: [6:13|6:16]">
<polygon fill="none" stroke="black" points="433,-2057 379,-2057 379,-2021 433,-2021 433,-2057"/>
<text text-anchor="middle" x="406" y="-2035.3" font-family="Times,serif" font-size="14.00">Div</text>
</a>
</g>
</g>
<!-- 1&#45;&gt;5 -->
<g id="edge15" class="edge">
<title>1&#45;&gt;5</title>
<path fill="none" stroke="black" d="M244.33,-2107.85C244.33,-2095.73 244.33,-2082 244.33,-2082 244.33,-2082 406,-2082 406,-2082 406,-2082 406,-2067.49 406,-2067.49"/>
<polygon fill="black" stroke="black" points="409.5,-2067.49 406,-2057.49 402.5,-2067.49 409.5,-2067.49"/>
<text text-anchor="middle" x="292" y="-2078.8" font-family="Times,serif" font-size="14.00">0</text>
</g>
<!-- 11 -->
<g id="node12" class="node">
<title>11</title>
<g id="a_node12"><a xlink:title="source span: [7:10|7:15]">
<polygon fill="none" stroke="black" points="176,-1883 122,-1883 122,-1847 176,-1847 176,-1883"/>
<text text-anchor="middle" x="149" y="-1861.3" font-family="Times,serif" font-size="14.00">Mod</text>
</a>
</g>
</g>
<!-- 1&#45;&gt;11 -->
<g id="edge27" class="edge">
<title>1&#45;&gt;11</title>
<path fill="none" stroke="black" d="M239.17,-2108C239.17,-2074.06 239.17,-2004 239.17,-2004 239.17,-2004 148.67,-2004 148.67,-2004 148.67,-2004 148.67,-1893.17 148.67,-1893.17"/>
<polygon fill="black" stroke="black" points="152.17,-1893.17 148.67,-1883.17 145.17,-1893.17 152.17,-1893.17"/>
<text text-anchor="middle" x="106" y="-1991.8" font-family="Times,serif" font-size="14.00">1</text>
</g>
<!-- 14 -->
<g id="node15" class="node">
<title>14</title>
<g id="a_node15"><a xlink:title="source span: [8:10|8:15]">
<polygon fill="none" stroke="black" points="176,-1427 122,-1427 122,-1391 176,-1391 176,-1427"/>
<text text-anchor="middle" x="149" y="-1405.3" font-family="Times,serif" font-size="14.00">Div</text>
</a>
</g>
</g>
<!-- 1&#45;&gt;14 -->
<g id="edge40" class="edge">
<title>1&#45;&gt;14</title>
<path fill="none" stroke="black" d="M188,-2107.97C188,-2101.15 188,-2095 188,-2095 188,-2095 49.4,-2095 49.4,-2095 49.4,-2095 49.4,-1409 49.4,-1409 49.4,-1409 111.78,-1409 111.78,-1409"/>
<polygon fill="black" stroke="black" points="111.78,-1412.5 121.78,-1409 111.78,-1405.5 111.78,-1412.5"/>
<text text-anchor="middle" x="79" y="-1774.3" font-family="Times,serif" font-size="14.00">1</text>
</g>
<!-- 2 -->
<g id="node3" class="node">
<title>2</title>
<g id="a_node3"><a xlink:title="source span: [9:7|9:14]">
<polygon fill="none" stroke="black" points="273,-884 219,-884 219,-848 273,-848 273,-884"/>
<text text-anchor="middle" x="246" y="-862.3" font-family="Times,serif" font-size="14.00">Div</text>
</a>
</g>
</g>
<!-- 34 -->
<g id="node35" class="node">
<title>34</title>
<g id="a_node35"><a xlink:title="source span: [9:7|9:14]">
<polygon fill="none" stroke="black" points="269,-797 115,-797 115,-761 269,-761 269,-797"/>
<text text-anchor="middle" x="192" y="-775.3" font-family="Times,serif" font-size="14.00">Proj SIDE_EFFECT</text>
</a>
</g>
</g>
<!-- 2&#45;&gt;34 -->
<g id="edge54" class="edge">
<title>2&#45;&gt;34</title>
<path fill="none" stroke="black" d="M244,-847.97C244,-847.97 244,-807 244,-807"/>
<polygon fill="black" stroke="black" points="247.5,-807 244,-797 240.5,-807 247.5,-807"/>
<text text-anchor="middle" x="240" y="-818.8" font-family="Times,serif" font-size="14.00">0</text>
</g>
<!-- 39 -->
<g id="node40" class="node">
<title>39</title>
<g id="a_node40"><a xlink:title="source span: [9:7|9:14]">
<polygon fill="none" stroke="black" points="355,-743 245,-743 245,-707 355,-707 355,-743"/>
<text text-anchor="middle" x="300" y="-721.3" font-family="Times,serif" font-size="14.00">Proj RESULT</text>
</a>
</g>
</g>
<!-- 2&#45;&gt;39 -->
<g id="edge6" class="edge">
<title>2&#45;&gt;39</title>
<path fill="none" stroke="black" d="M273.19,-860C289.07,-860 306,-860 306,-860 306,-860 306,-753.21 306,-753.21"/>
<polygon fill="black" stroke="black" points="309.5,-753.21 306,-743.21 302.5,-753.21 309.5,-753.21"/>
<text text-anchor="middle" x="304" y="-818.8" font-family="Times,serif" font-size="14.00">0</text>
</g>
<!-- 3 -->
<g id="node4" class="node">
<title>3</title>
<g id="a_node4"><a xlink:title="source span: [6:9|6:18]">
<polygon fill="none" stroke="black" points="439,-1796 385,-1796 385,-1760 439,-1760 439,-1796"/>
<text text-anchor="middle" x="412" y="-1774.3" font-family="Times,serif" font-size="14.00">Add</text>
</a>
</g>
</g>
<!-- 9 -->
<g id="node10" class="node">
<title>9</title>
<g id="a_node10"><a xlink:title="source span: [9:7|9:10]">
<polygon fill="none" stroke="black" points="366,-1427 312,-1427 312,-1391 366,-1391 366,-1427"/>
<text text-anchor="middle" x="339" y="-1405.3" font-family="Times,serif" font-size="14.00">Mul</text>
</a>
</g>
</g>
<!-- 3&#45;&gt;9 -->
<g id="edge8" class="edge">
<title>3&#45;&gt;9</title>
<path fill="none" stroke="black" d="M397.67,-1760C397.67,-1686.75 397.67,-1415 397.67,-1415 397.67,-1415 376.27,-1415 376.27,-1415"/>
<polygon fill="black" stroke="black" points="376.27,-1411.5 366.27,-1415 376.27,-1418.5 376.27,-1411.5"/>
<text text-anchor="middle" x="251" y="-1579.3" font-family="Times,serif" font-size="14.00">0</text>
</g>
<!-- 12 -->
<g id="node13" class="node">
<title>12</title>
<g id="a_node13"><a xlink:title="source span: [7:7|7:15]">
<polygon fill="none" stroke="black" points="339,-1688 285,-1688 285,-1652 339,-1652 339,-1688"/>
<text text-anchor="middle" x="312" y="-1666.3" font-family="Times,serif" font-size="14.00">Sub</text>
</a>
</g>
</g>
<!-- 3&#45;&gt;12 -->
<g id="edge23" class="edge">
<title>3&#45;&gt;12</title>
<path fill="none" stroke="black" d="M391.33,-1759.68C391.33,-1728.87 391.33,-1670 391.33,-1670 391.33,-1670 349.3,-1670 349.3,-1670"/>
<polygon fill="black" stroke="black" points="349.3,-1666.5 339.3,-1670 349.3,-1673.5 349.3,-1666.5"/>
<text text-anchor="middle" x="367" y="-1720.3" font-family="Times,serif" font-size="14.00">0</text>
</g>
<!-- 18 -->
<g id="node19" class="node">
<title>18</title>
<g id="a_node19"><a xlink:title="source span: [10:9|10:12]">
<polygon fill="none" stroke="black" points="467,-1427 413,-1427 413,-1391 467,-1391 467,-1427"/>
<text text-anchor="middle" x="440" y="-1405.3" font-family="Times,serif" font-size="14.00">Sub</text>
</a>
</g>
</g>
<!-- 3&#45;&gt;18 -->
<g id="edge61" class="edge">
<title>3&#45;&gt;18</title>
<path fill="none" stroke="black" d="M430.33,-1759.95C430.33,-1759.95 430.33,-1437.01 430.33,-1437.01"/>
<polygon fill="black" stroke="black" points="433.83,-1437.01 430.33,-1427.01 426.83,-1437.01 433.83,-1437.01"/>
<text text-anchor="middle" x="456" y="-1579.3" font-family="Times,serif" font-size="14.00">0</text>
</g>
<!-- 24 -->
<g id="node25" class="node">
<title>24</title>
<g id="a_node25"><a xlink:title="source span: [8:6|8:22]">
<polygon fill="none" stroke="black" points="333,-971 279,-971 279,-935 333,-935 333,-971"/>
<text text-anchor="middle" x="306" y="-949.3" font-family="Times,serif" font-size="14.00">Sub</text>
</a>
</g>
</g>
<!-- 3&#45;&gt;24 -->
<g id="edge33" class="edge">
<title>3&#45;&gt;24</title>
<path fill="none" stroke="black" d="M407,-1759.75C407,-1638.9 407,-959 407,-959 407,-959 343.07,-959 343.07,-959"/>
<polygon fill="black" stroke="black" points="343.07,-955.5 333.07,-959 343.07,-962.5 343.07,-955.5"/>
<text text-anchor="middle" x="419" y="-1361.8" font-family="Times,serif" font-size="14.00">0</text>
</g>
<!-- 4 -->
<g id="node5" class="node">
<title>4</title>
<g id="a_node5"><a xlink:title="source span: [6:9|6:12]">
<polygon fill="none" stroke="black" points="216,-1970 162,-1970 162,-1934 216,-1934 216,-1970"/>
<text text-anchor="middle" x="189" y="-1948.3" font-family="Times,serif" font-size="14.00">Mul</text>
</a>
</g>
</g>
<!-- 25 -->
<g id="node26" class="node">
<title>25</title>
<g id="a_node26"><a xlink:title="source span: [6:9|6:16]">
<polygon fill="none" stroke="black" points="249,-1883 195,-1883 195,-1847 249,-1847 249,-1883"/>
<text text-anchor="middle" x="222" y="-1861.3" font-family="Times,serif" font-size="14.00">Sub</text>
</a>
</g>
</g>
<!-- 4&#45;&gt;25 -->
<g id="edge10" class="edge">
<title>4&#45;&gt;25</title>
<path fill="none" stroke="black" d="M205.5,-1933.97C205.5,-1933.97 205.5,-1893 205.5,-1893"/>
<polygon fill="black" stroke="black" points="209,-1893 205.5,-1883 202,-1893 209,-1893"/>
<text text-anchor="middle" x="219" y="-1904.8" font-family="Times,serif" font-size="14.00">0</text>
</g>
<!-- 6 -->
<g id="node7" class="node">
<title>6</title>
<g id="a_node7"><a xlink:title="source span: [6:13|6:16]">
<polygon fill="none" stroke="black" points="388,-1970 234,-1970 234,-1934 388,-1934 388,-1970"/>
<text text-anchor="middle" x="311" y="-1948.3" font-family="Times,serif" font-size="14.00">Proj SIDE_EFFECT</text>
</a>
</g>
</g>
<!-- 5&#45;&gt;6 -->
<g id="edge29" class="edge">
<title>5&#45;&gt;6</title>
<path fill="none" stroke="black" d="M383.5,-2020.97C383.5,-2020.97 383.5,-1980 383.5,-1980"/>
<polygon fill="black" stroke="black" points="387,-1980 383.5,-1970 380,-1980 387,-1980"/>
<text text-anchor="middle" x="386" y="-1991.8" font-family="Times,serif" font-size="14.00">0</text>
</g>
<!-- 33 -->
<g id="node34" class="node">
<title>33</title>
<g id="a_node34"><a xlink:title="source span: [6:13|6:16]">
<polygon fill="none" stroke="black" points="516,-1970 406,-1970 406,-1934 516,-1934 516,-1970"/>
<text text-anchor="middle" x="461" y="-1948.3" font-family="Times,serif" font-size="14.00">Proj RESULT</text>
</a>
</g>
</g>
<!-- 5&#45;&gt;33 -->
<g id="edge14" class="edge">
<title>5&#45;&gt;33</title>
<path fill="none" stroke="black" d="M419.5,-2020.97C419.5,-2020.97 419.5,-1980 419.5,-1980"/>
<polygon fill="black" stroke="black" points="423,-1980 419.5,-1970 416,-1980 423,-1980"/>
<text text-anchor="middle" x="436" y="-1991.8" font-family="Times,serif" font-size="14.00">0</text>
</g>
<!-- 6&#45;&gt;11 -->
<g id="edge28" class="edge">
<title>6&#45;&gt;11</title>
<path fill="none" stroke="black" d="M241.5,-1933.85C241.5,-1921.73 241.5,-1908 241.5,-1908 241.5,-1908 169,-1908 169,-1908 169,-1908 169,-1893.49 169,-1893.49"/>
<polygon fill="black" stroke="black" points="172.5,-1893.49 169,-1883.49 165.5,-1893.49 172.5,-1893.49"/>
<text text-anchor="middle" x="171" y="-1904.8" font-family="Times,serif" font-size="14.00">2</text>
</g>
<!-- 7 -->
<g id="node8" class="node">
<title>7</title>
<g id="a_node8"><a xlink:title="source span: [10:15|10:18]">
<polygon fill="none" stroke="black" points="358,-407 304,-407 304,-371 358,-371 358,-407"/>
<text text-anchor="middle" x="331" y="-385.3" font-family="Times,serif" font-size="14.00">Div</text>
</a>
</g>
</g>
<!-- 28 -->
<g id="node29" class="node">
<title>28</title>
<g id="a_node29"><a xlink:title="source span: [10:15|10:18]">
<polygon fill="none" stroke="black" points="408,-266 254,-266 254,-230 408,-230 408,-266"/>
<text text-anchor="middle" x="331" y="-244.3" font-family="Times,serif" font-size="14.00">Proj SIDE_EFFECT</text>
</a>
</g>
</g>
<!-- 7&#45;&gt;28 -->
<g id="edge3" class="edge">
<title>7&#45;&gt;28</title>
<path fill="none" stroke="black" d="M330,-370.86C330,-370.86 330,-276.07 330,-276.07"/>
<polygon fill="black" stroke="black" points="333.5,-276.07 330,-266.07 326.5,-276.08 333.5,-276.07"/>
<text text-anchor="middle" x="336" y="-341.8" font-family="Times,serif" font-size="14.00">0</text>
</g>
<!-- 32 -->
<g id="node33" class="node">
<title>32</title>
<g id="a_node33"><a xlink:title="source span: [10:15|10:18]">
<polygon fill="none" stroke="black" points="466,-320 356,-320 356,-284 466,-284 466,-320"/>
<text text-anchor="middle" x="411" y="-298.3" font-family="Times,serif" font-size="14.00">Proj RESULT</text>
</a>
</g>
</g>
<!-- 7&#45;&gt;32 -->
<g id="edge65" class="edge">
<title>7&#45;&gt;32</title>
<path fill="none" stroke="black" d="M358.29,-383C363.31,-383 367,-383 367,-383 367,-383 367,-330.38 367,-330.38"/>
<polygon fill="black" stroke="black" points="370.5,-330.38 367,-320.38 363.5,-330.38 370.5,-330.38"/>
<text text-anchor="middle" x="392" y="-341.8" font-family="Times,serif" font-size="14.00">0</text>
</g>
<!-- 8 -->
<g id="node9" class="node">
<title>8</title>
<g id="a_node9"><a xlink:title="source span: [7:10|7:15]">
<polygon fill="none" stroke="black" points="367,-1796 257,-1796 257,-1760 367,-1760 367,-1796"/>
<text text-anchor="middle" x="312" y="-1774.3" font-family="Times,serif" font-size="14.00">Proj RESULT</text>
</a>
</g>
</g>
<!-- 8&#45;&gt;12 -->
<g id="edge24" class="edge">
<title>8&#45;&gt;12</title>
<path fill="none" stroke="black" d="M312,-1759.68C312,-1759.68 312,-1698.05 312,-1698.05"/>
<polygon fill="black" stroke="black" points="315.5,-1698.05 312,-1688.05 308.5,-1698.05 315.5,-1698.05"/>
<text text-anchor="middle" x="317" y="-1720.3" font-family="Times,serif" font-size="14.00">1</text>
</g>
<!-- 9&#45;&gt;2 -->
<g id="edge7" class="edge">
<title>9&#45;&gt;2</title>
<path fill="none" stroke="black" d="M366.25,-1403C386.27,-1403 410,-1403 410,-1403 410,-1403 410,-872 410,-872 410,-872 283.08,-872 283.08,-872"/>
<polygon fill="black" stroke="black" points="283.08,-868.5 273.08,-872 283.08,-875.5 283.08,-868.5"/>
<text text-anchor="middle" x="251" y="-1144.3" font-family="Times,serif" font-size="14.00">0</text>
</g>
<!-- 10 -->
<g id="node11" class="node">
<title>10</title>
<g id="a_node11"><a xlink:title="source span: [4:10|4:12]">
<polygon fill="none" stroke="black" points="126.5,-2144 15.5,-2144 15.5,-2108 126.5,-2108 126.5,-2144"/>
<text text-anchor="middle" x="71" y="-2122.3" font-family="Times,serif" font-size="14.00">ConstInt [93]</text>
</a>
</g>
</g>
<!-- 10&#45;&gt;5 -->
<g id="edge16" class="edge">
<title>10&#45;&gt;5</title>
<path fill="none" stroke="black" d="M96.25,-2107.96C96.25,-2091.27 96.25,-2069 96.25,-2069 96.25,-2069 392.5,-2069 392.5,-2069 392.5,-2069 392.5,-2067.14 392.5,-2067.14"/>
<polygon fill="black" stroke="black" points="396,-2067.14 392.5,-2057.14 389,-2067.14 396,-2067.14"/>
<text text-anchor="middle" x="90" y="-2078.8" font-family="Times,serif" font-size="14.00">1</text>
</g>
<!-- 13 -->
<g id="node14" class="node">
<title>13</title>
<g id="a_node14"><a xlink:title="source span: [8:10|8:19]">
<polygon fill="none" stroke="black" points="190,-1253 136,-1253 136,-1217 190,-1217 190,-1253"/>
<text text-anchor="middle" x="163" y="-1231.3" font-family="Times,serif" font-size="14.00">Mod</text>
</a>
</g>
</g>
<!-- 10&#45;&gt;13 -->
<g id="edge43" class="edge">
<title>10&#45;&gt;13</title>
<path fill="none" stroke="black" d="M38.1,-2107.8C38.1,-1981.03 38.1,-1235 38.1,-1235 38.1,-1235 125.9,-1235 125.9,-1235"/>
<polygon fill="black" stroke="black" points="125.9,-1238.5 135.9,-1235 125.9,-1231.5 125.9,-1238.5"/>
<text text-anchor="middle" x="59" y="-1666.3" font-family="Times,serif" font-size="14.00">1</text>
</g>
<!-- 23 -->
<g id="node24" class="node">
<title>23</title>
<g id="a_node24"><a xlink:title="source span: [7:7|7:18]">
<polygon fill="none" stroke="black" points="339,-1601 285,-1601 285,-1565 339,-1565 339,-1601"/>
<text text-anchor="middle" x="312" y="-1579.3" font-family="Times,serif" font-size="14.00">Add</text>
</a>
</g>
</g>
<!-- 10&#45;&gt;23 -->
<g id="edge30" class="edge">
<title>10&#45;&gt;23</title>
<path fill="none" stroke="black" d="M60.7,-2107.93C60.7,-2013.71 60.7,-1583 60.7,-1583 60.7,-1583 274.63,-1583 274.63,-1583"/>
<polygon fill="black" stroke="black" points="274.63,-1586.5 284.63,-1583 274.63,-1579.5 274.63,-1586.5"/>
<text text-anchor="middle" x="99" y="-1861.3" font-family="Times,serif" font-size="14.00">1</text>
</g>
<!-- 41 -->
<g id="node42" class="node">
<title>41</title>
<g id="a_node42"><a xlink:title="source span: [9:17|9:20]">
<polygon fill="none" stroke="black" points="205,-689 151,-689 151,-653 205,-653 205,-689"/>
<text text-anchor="middle" x="178" y="-667.3" font-family="Times,serif" font-size="14.00">Mod</text>
</a>
</g>
</g>
<!-- 10&#45;&gt;41 -->
<g id="edge51" class="edge">
<title>10&#45;&gt;41</title>
<path fill="none" stroke="black" d="M26.8,-2107.87C26.8,-1940.5 26.8,-671 26.8,-671 26.8,-671 140.97,-671 140.97,-671"/>
<polygon fill="black" stroke="black" points="140.97,-674.5 150.97,-671 140.97,-667.5 140.97,-674.5"/>
<text text-anchor="middle" x="39" y="-1405.3" font-family="Times,serif" font-size="14.00">0</text>
</g>
<!-- 11&#45;&gt;8 -->
<g id="edge25" class="edge">
<title>11&#45;&gt;8</title>
<path fill="none" stroke="black" d="M158,-1846.97C158,-1821.49 158,-1778 158,-1778 158,-1778 246.84,-1778 246.84,-1778"/>
<polygon fill="black" stroke="black" points="246.84,-1781.5 256.84,-1778 246.84,-1774.5 246.84,-1781.5"/>
<text text-anchor="middle" x="194" y="-1817.8" font-family="Times,serif" font-size="14.00">0</text>
</g>
<!-- 31 -->
<g id="node32" class="node">
<title>31</title>
<g id="a_node32"><a xlink:title="source span: [7:10|7:15]">
<polygon fill="none" stroke="black" points="226,-1742 72,-1742 72,-1706 226,-1706 226,-1742"/>
<text text-anchor="middle" x="149" y="-1720.3" font-family="Times,serif" font-size="14.00">Proj SIDE_EFFECT</text>
</a>
</g>
</g>
<!-- 11&#45;&gt;31 -->
<g id="edge42" class="edge">
<title>11&#45;&gt;31</title>
<path fill="none" stroke="black" d="M140,-1846.86C140,-1846.86 140,-1752.07 140,-1752.07"/>
<polygon fill="black" stroke="black" points="143.5,-1752.07 140,-1742.07 136.5,-1752.08 143.5,-1752.07"/>
<text text-anchor="middle" x="154" y="-1817.8" font-family="Times,serif" font-size="14.00">0</text>
</g>
<!-- 12&#45;&gt;23 -->
<g id="edge22" class="edge">
<title>12&#45;&gt;23</title>
<path fill="none" stroke="black" d="M312,-1651.97C312,-1651.97 312,-1611 312,-1611"/>
<polygon fill="black" stroke="black" points="315.5,-1611 312,-1601 308.5,-1611 315.5,-1611"/>
<text text-anchor="middle" x="317" y="-1622.8" font-family="Times,serif" font-size="14.00">0</text>
</g>
<!-- 17 -->
<g id="node18" class="node">
<title>17</title>
<g id="a_node18"><a xlink:title="source span: [8:10|8:19]">
<polygon fill="none" stroke="black" points="404,-1166 294,-1166 294,-1130 404,-1130 404,-1166"/>
<text text-anchor="middle" x="349" y="-1144.3" font-family="Times,serif" font-size="14.00">Proj RESULT</text>
</a>
</g>
</g>
<!-- 13&#45;&gt;17 -->
<g id="edge36" class="edge">
<title>13&#45;&gt;17</title>
<path fill="none" stroke="black" d="M172,-1216.97C172,-1191.49 172,-1148 172,-1148 172,-1148 283.97,-1148 283.97,-1148"/>
<polygon fill="black" stroke="black" points="283.97,-1151.5 293.97,-1148 283.97,-1144.5 283.97,-1151.5"/>
<text text-anchor="middle" x="229" y="-1187.8" font-family="Times,serif" font-size="14.00">0</text>
</g>
<!-- 21 -->
<g id="node22" class="node">
<title>21</title>
<g id="a_node22"><a xlink:title="source span: [8:10|8:19]">
<polygon fill="none" stroke="black" points="240,-1112 86,-1112 86,-1076 240,-1076 240,-1112"/>
<text text-anchor="middle" x="163" y="-1090.3" font-family="Times,serif" font-size="14.00">Proj SIDE_EFFECT</text>
</a>
</g>
</g>
<!-- 13&#45;&gt;21 -->
<g id="edge48" class="edge">
<title>13&#45;&gt;21</title>
<path fill="none" stroke="black" d="M154,-1216.86C154,-1216.86 154,-1122.07 154,-1122.07"/>
<polygon fill="black" stroke="black" points="157.5,-1122.07 154,-1112.07 150.5,-1122.08 157.5,-1122.07"/>
<text text-anchor="middle" x="168" y="-1187.8" font-family="Times,serif" font-size="14.00">0</text>
</g>
<!-- 37 -->
<g id="node38" class="node">
<title>37</title>
<g id="a_node38"><a xlink:title="source span: [8:10|8:15]">
<polygon fill="none" stroke="black" points="375,-1340 221,-1340 221,-1304 375,-1304 375,-1340"/>
<text text-anchor="middle" x="298" y="-1318.3" font-family="Times,serif" font-size="14.00">Proj SIDE_EFFECT</text>
</a>
</g>
</g>
<!-- 14&#45;&gt;37 -->
<g id="edge45" class="edge">
<title>14&#45;&gt;37</title>
<path fill="none" stroke="black" d="M176.03,-1409C202.06,-1409 237.5,-1409 237.5,-1409 237.5,-1409 237.5,-1350.03 237.5,-1350.03"/>
<polygon fill="black" stroke="black" points="241,-1350.03 237.5,-1340.03 234,-1350.03 241,-1350.03"/>
<text text-anchor="middle" x="244" y="-1361.8" font-family="Times,serif" font-size="14.00">0</text>
</g>
<!-- 38 -->
<g id="node39" class="node">
<title>38</title>
<g id="a_node39"><a xlink:title="source span: [8:10|8:15]">
<polygon fill="none" stroke="black" points="203,-1340 93,-1340 93,-1304 203,-1304 203,-1340"/>
<text text-anchor="middle" x="148" y="-1318.3" font-family="Times,serif" font-size="14.00">Proj RESULT</text>
</a>
</g>
</g>
<!-- 14&#45;&gt;38 -->
<g id="edge38" class="edge">
<title>14&#45;&gt;38</title>
<path fill="none" stroke="black" d="M149,-1390.97C149,-1390.97 149,-1350 149,-1350"/>
<polygon fill="black" stroke="black" points="152.5,-1350 149,-1340 145.5,-1350 152.5,-1350"/>
<text text-anchor="middle" x="153" y="-1361.8" font-family="Times,serif" font-size="14.00">0</text>
</g>
<!-- 15 -->
<g id="node16" class="node">
<title>15</title>
<g id="a_node16"><a xlink:title="source span: [10:9|10:14]">
<polygon fill="none" stroke="black" points="487,-884 433,-884 433,-848 487,-848 487,-884"/>
<text text-anchor="middle" x="460" y="-862.3" font-family="Times,serif" font-size="14.00">Add</text>
</a>
</g>
</g>
<!-- 30 -->
<g id="node31" class="node">
<title>30</title>
<g id="a_node31"><a xlink:title="source span: [10:9|10:18]">
<polygon fill="none" stroke="black" points="458,-212 404,-212 404,-176 458,-176 458,-212"/>
<text text-anchor="middle" x="431" y="-190.3" font-family="Times,serif" font-size="14.00">Sub</text>
</a>
</g>
</g>
<!-- 15&#45;&gt;30 -->
<g id="edge59" class="edge">
<title>15&#45;&gt;30</title>
<path fill="none" stroke="black" d="M476.5,-847.68C476.5,-739.98 476.5,-194 476.5,-194 476.5,-194 468.26,-194 468.26,-194"/>
<polygon fill="black" stroke="black" points="468.26,-190.5 458.26,-194 468.26,-197.5 468.26,-190.5"/>
<text text-anchor="middle" x="491" y="-526.3" font-family="Times,serif" font-size="14.00">0</text>
</g>
<!-- 16 -->
<g id="node17" class="node">
<title>16</title>
<g id="a_node17"><a xlink:title="source span: [5:10|5:12]">
<polygon fill="none" stroke="black" points="513.5,-1883 402.5,-1883 402.5,-1847 513.5,-1847 513.5,-1883"/>
<text text-anchor="middle" x="458" y="-1861.3" font-family="Times,serif" font-size="14.00">ConstInt [26]</text>
</a>
</g>
</g>
<!-- 16&#45;&gt;3 -->
<g id="edge19" class="edge">
<title>16&#45;&gt;3</title>
<path fill="none" stroke="black" d="M420.75,-1846.97C420.75,-1846.97 420.75,-1806 420.75,-1806"/>
<polygon fill="black" stroke="black" points="424.25,-1806 420.75,-1796 417.25,-1806 424.25,-1806"/>
<text text-anchor="middle" x="432" y="-1817.8" font-family="Times,serif" font-size="14.00">1</text>
</g>
<!-- 16&#45;&gt;7 -->
<g id="edge55" class="edge">
<title>16&#45;&gt;7</title>
<path fill="none" stroke="black" d="M504.67,-1846.94C504.67,-1678.93 504.67,-395 504.67,-395 504.67,-395 368.14,-395 368.14,-395"/>
<polygon fill="black" stroke="black" points="368.14,-391.5 358.14,-395 368.14,-398.5 368.14,-391.5"/>
<text text-anchor="middle" x="511" y="-1144.3" font-family="Times,serif" font-size="14.00">1</text>
</g>
<!-- 27 -->
<g id="node28" class="node">
<title>27</title>
<g id="a_node28"><a xlink:title="source span: [8:10|8:22]">
<polygon fill="none" stroke="black" points="376,-1058 322,-1058 322,-1022 376,-1022 376,-1058"/>
<text text-anchor="middle" x="349" y="-1036.3" font-family="Times,serif" font-size="14.00">Mul</text>
</a>
</g>
</g>
<!-- 16&#45;&gt;27 -->
<g id="edge46" class="edge">
<title>16&#45;&gt;27</title>
<path fill="none" stroke="black" d="M477,-1846.61C477,-1724.88 477,-1040 477,-1040 477,-1040 386.15,-1040 386.15,-1040"/>
<polygon fill="black" stroke="black" points="386.15,-1036.5 376.15,-1040 386.15,-1043.5 386.15,-1036.5"/>
<text text-anchor="middle" x="491" y="-1448.8" font-family="Times,serif" font-size="14.00">1</text>
</g>
<!-- 16&#45;&gt;41 -->
<g id="edge52" class="edge">
<title>16&#45;&gt;41</title>
<path fill="none" stroke="black" d="M495.83,-1846.72C495.83,-1696.5 495.83,-671 495.83,-671 495.83,-671 215.1,-671 215.1,-671"/>
<polygon fill="black" stroke="black" points="215.1,-667.5 205.1,-671 215.1,-674.5 215.1,-667.5"/>
<text text-anchor="middle" x="79" y="-1274.8" font-family="Times,serif" font-size="14.00">1</text>
</g>
<!-- 42 -->
<g id="node43" class="node">
<title>42</title>
<g id="a_node43"><a xlink:title="source span: [7:7|7:20]">
<polygon fill="none" stroke="black" points="366,-1514 312,-1514 312,-1478 366,-1478 366,-1514"/>
<text text-anchor="middle" x="339" y="-1492.3" font-family="Times,serif" font-size="14.00">Add</text>
</a>
</g>
</g>
<!-- 16&#45;&gt;42 -->
<g id="edge31" class="edge">
<title>16&#45;&gt;42</title>
<path fill="none" stroke="black" d="M453,-1847C453,-1773.75 453,-1502 453,-1502 453,-1502 376.02,-1502 376.02,-1502"/>
<polygon fill="black" stroke="black" points="376.02,-1498.5 366.02,-1502 376.02,-1505.5 376.02,-1498.5"/>
<text text-anchor="middle" x="462" y="-1666.3" font-family="Times,serif" font-size="14.00">1</text>
</g>
<!-- 17&#45;&gt;27 -->
<g id="edge35" class="edge">
<title>17&#45;&gt;27</title>
<path fill="none" stroke="black" d="M349,-1129.68C349,-1129.68 349,-1068.05 349,-1068.05"/>
<polygon fill="black" stroke="black" points="352.5,-1068.05 349,-1058.05 345.5,-1068.05 352.5,-1068.05"/>
<text text-anchor="middle" x="354" y="-1090.3" font-family="Times,serif" font-size="14.00">0</text>
</g>
<!-- 18&#45;&gt;15 -->
<g id="edge60" class="edge">
<title>18&#45;&gt;15</title>
<path fill="none" stroke="black" d="M455.67,-1390.93C455.67,-1390.93 455.67,-894.13 455.67,-894.13"/>
<polygon fill="black" stroke="black" points="459.17,-894.13 455.67,-884.13 452.17,-894.13 459.17,-894.13"/>
<text text-anchor="middle" x="465" y="-1144.3" font-family="Times,serif" font-size="14.00">0</text>
</g>
<!-- 19 -->
<g id="node20" class="node">
<title>19</title>
<g id="a_node20"><a xlink:title="source span: [9:17|9:20]">
<polygon fill="none" stroke="black" points="307,-602 197,-602 197,-566 307,-566 307,-602"/>
<text text-anchor="middle" x="252" y="-580.3" font-family="Times,serif" font-size="14.00">Proj RESULT</text>
</a>
</g>
</g>
<!-- 40 -->
<g id="node41" class="node">
<title>40</title>
<g id="a_node41"><a xlink:title="source span: [9:7|9:20]">
<polygon fill="none" stroke="black" points="353,-494 299,-494 299,-458 353,-458 353,-494"/>
<text text-anchor="middle" x="326" y="-472.3" font-family="Times,serif" font-size="14.00">Add</text>
</a>
</g>
</g>
<!-- 19&#45;&gt;40 -->
<g id="edge49" class="edge">
<title>19&#45;&gt;40</title>
<path fill="none" stroke="black" d="M303,-565.68C303,-565.68 303,-504.05 303,-504.05"/>
<polygon fill="black" stroke="black" points="306.5,-504.05 303,-494.05 299.5,-504.05 306.5,-504.05"/>
<text text-anchor="middle" x="299" y="-526.3" font-family="Times,serif" font-size="14.00">1</text>
</g>
<!-- 20 -->
<g id="node21" class="node">
<title>20</title>
<g id="a_node21"><a xlink:title="source span: [0:0|12:1]">
<polygon fill="none" stroke="black" points="483,-2144 329,-2144 329,-2108 483,-2108 483,-2144"/>
<text text-anchor="middle" x="406" y="-2122.3" font-family="Times,serif" font-size="14.00">Proj SIDE_EFFECT</text>
</a>
</g>
</g>
<!-- 20&#45;&gt;5 -->
<g id="edge17" class="edge">
<title>20&#45;&gt;5</title>
<path fill="none" stroke="black" d="M419.5,-2107.97C419.5,-2107.97 419.5,-2067 419.5,-2067"/>
<polygon fill="black" stroke="black" points="423,-2067 419.5,-2057 416,-2067 423,-2067"/>
<text text-anchor="middle" x="411" y="-2078.8" font-family="Times,serif" font-size="14.00">2</text>
</g>
<!-- 21&#45;&gt;2 -->
<g id="edge47" class="edge">
<title>21&#45;&gt;2</title>
<path fill="none" stroke="black" d="M229.5,-1075.73C229.5,-1075.73 229.5,-894.04 229.5,-894.04"/>
<polygon fill="black" stroke="black" points="233,-894.04 229.5,-884.04 226,-894.04 233,-894.04"/>
<text text-anchor="middle" x="200" y="-992.8" font-family="Times,serif" font-size="14.00">2</text>
</g>
<!-- 22 -->
<g id="node23" class="node">
<title>22</title>
<g id="a_node23"><a xlink:title="source span: [1:10|1:12]">
<polygon fill="none" stroke="black" points="360.5,-2057 249.5,-2057 249.5,-2021 360.5,-2021 360.5,-2057"/>
<text text-anchor="middle" x="305" y="-2035.3" font-family="Times,serif" font-size="14.00">ConstInt [98]</text>
</a>
</g>
</g>
<!-- 22&#45;&gt;4 -->
<g id="edge11" class="edge">
<title>22&#45;&gt;4</title>
<path fill="none" stroke="black" d="M305,-2020.81C305,-2005.82 305,-1987 305,-1987 305,-1987 198,-1987 198,-1987 198,-1987 198,-1980.32 198,-1980.32"/>
<polygon fill="black" stroke="black" points="201.5,-1980.32 198,-1970.32 194.5,-1980.32 201.5,-1980.32"/>
<text text-anchor="middle" x="269" y="-1991.8" font-family="Times,serif" font-size="14.00">0</text>
</g>
<!-- 23&#45;&gt;42 -->
<g id="edge21" class="edge">
<title>23&#45;&gt;42</title>
<path fill="none" stroke="black" d="M325.5,-1564.97C325.5,-1564.97 325.5,-1524 325.5,-1524"/>
<polygon fill="black" stroke="black" points="329,-1524 325.5,-1514 322,-1524 329,-1524"/>
<text text-anchor="middle" x="326" y="-1535.8" font-family="Times,serif" font-size="14.00">0</text>
</g>
<!-- 24&#45;&gt;2 -->
<g id="edge32" class="edge">
<title>24&#45;&gt;2</title>
<path fill="none" stroke="black" d="M278.93,-953C267.38,-953 256.5,-953 256.5,-953 256.5,-953 256.5,-894.03 256.5,-894.03"/>
<polygon fill="black" stroke="black" points="260,-894.03 256.5,-884.03 253,-894.03 260,-894.03"/>
<text text-anchor="middle" x="286" y="-905.8" font-family="Times,serif" font-size="14.00">1</text>
</g>
<!-- 24&#45;&gt;15 -->
<g id="edge63" class="edge">
<title>24&#45;&gt;15</title>
<path fill="none" stroke="black" d="M333,-947C373.26,-947 444.33,-947 444.33,-947 444.33,-947 444.33,-894.38 444.33,-894.38"/>
<polygon fill="black" stroke="black" points="447.83,-894.38 444.33,-884.38 440.83,-894.38 447.83,-894.38"/>
<text text-anchor="middle" x="325" y="-905.8" font-family="Times,serif" font-size="14.00">1</text>
</g>
<!-- 25&#45;&gt;3 -->
<g id="edge9" class="edge">
<title>25&#45;&gt;3</title>
<path fill="none" stroke="black" d="M249.06,-1859C298.34,-1859 397.67,-1859 397.67,-1859 397.67,-1859 397.67,-1806.38 397.67,-1806.38"/>
<polygon fill="black" stroke="black" points="401.17,-1806.38 397.67,-1796.38 394.17,-1806.38 401.17,-1806.38"/>
<text text-anchor="middle" x="227" y="-1817.8" font-family="Times,serif" font-size="14.00">0</text>
</g>
<!-- 26 -->
<g id="node27" class="node">
<title>26</title>
<g id="a_node27"><a xlink:title="source span: [9:17|9:20]">
<polygon fill="none" stroke="black" points="263,-548 109,-548 109,-512 263,-512 263,-548"/>
<text text-anchor="middle" x="186" y="-526.3" font-family="Times,serif" font-size="14.00">Proj SIDE_EFFECT</text>
</a>
</g>
</g>
<!-- 26&#45;&gt;7 -->
<g id="edge56" class="edge">
<title>26&#45;&gt;7</title>
<path fill="none" stroke="black" d="M258.5,-511.86C258.5,-473.77 258.5,-389 258.5,-389 258.5,-389 293.59,-389 293.59,-389"/>
<polygon fill="black" stroke="black" points="293.59,-392.5 303.59,-389 293.59,-385.5 293.59,-392.5"/>
<text text-anchor="middle" x="238" y="-472.3" font-family="Times,serif" font-size="14.00">2</text>
</g>
<!-- 27&#45;&gt;24 -->
<g id="edge34" class="edge">
<title>27&#45;&gt;24</title>
<path fill="none" stroke="black" d="M327.5,-1021.97C327.5,-1021.97 327.5,-981 327.5,-981"/>
<polygon fill="black" stroke="black" points="331,-981 327.5,-971 324,-981 331,-981"/>
<text text-anchor="middle" x="331" y="-992.8" font-family="Times,serif" font-size="14.00">1</text>
</g>
<!-- 29 -->
<g id="node30" class="node">
<title>29</title>
<g id="a_node30"><a xlink:title="source span: [11:2|11:10]">
<polygon fill="none" stroke="black" points="395,-125 329,-125 329,-89 395,-89 395,-125"/>
<text text-anchor="middle" x="362" y="-103.3" font-family="Times,serif" font-size="14.00">Return</text>
</a>
</g>
</g>
<!-- 28&#45;&gt;29 -->
<g id="edge2" class="edge">
<title>28&#45;&gt;29</title>
<path fill="none" stroke="black" d="M362,-229.86C362,-229.86 362,-135.07 362,-135.07"/>
<polygon fill="black" stroke="black" points="365.5,-135.07 362,-125.07 358.5,-135.08 365.5,-135.07"/>
<text text-anchor="middle" x="355" y="-190.3" font-family="Times,serif" font-size="14.00">0</text>
</g>
<!-- c_43 -->
<!-- 29&#45;&gt;c_43 -->
<g id="edge1" class="edge">
<title>29&#45;&gt;c_43</title>
<path fill="none" stroke="black" d="M362,-88.69C362,-88.69 362,-73.63 362,-58.39"/>
<polygon fill="black" stroke="black" points="365.5,-58 362,-48 358.5,-58 365.5,-58"/>
<text text-anchor="middle" x="367" y="-59.8" font-family="Times,serif" font-size="14.00">0</text>
</g>
<!-- 30&#45;&gt;29 -->
<g id="edge58" class="edge">
<title>30&#45;&gt;29</title>
<path fill="none" stroke="black" d="M431,-175.97C431,-150.49 431,-107 431,-107 431,-107 405.29,-107 405.29,-107"/>
<polygon fill="black" stroke="black" points="405.29,-103.5 395.29,-107 405.29,-110.5 405.29,-103.5"/>
<text text-anchor="middle" x="417" y="-146.8" font-family="Times,serif" font-size="14.00">1</text>
</g>
<!-- 31&#45;&gt;14 -->
<g id="edge41" class="edge">
<title>31&#45;&gt;14</title>
<path fill="none" stroke="black" d="M140,-1705.7C140,-1705.7 140,-1437.35 140,-1437.35"/>
<polygon fill="black" stroke="black" points="143.5,-1437.35 140,-1427.35 136.5,-1437.35 143.5,-1437.35"/>
<text text-anchor="middle" x="154" y="-1579.3" font-family="Times,serif" font-size="14.00">2</text>
</g>
<!-- 32&#45;&gt;30 -->
<g id="edge64" class="edge">
<title>32&#45;&gt;30</title>
<path fill="none" stroke="black" d="M433,-283.68C433,-283.68 433,-222.05 433,-222.05"/>
<polygon fill="black" stroke="black" points="436.5,-222.05 433,-212.05 429.5,-222.05 436.5,-222.05"/>
<text text-anchor="middle" x="436" y="-244.3" font-family="Times,serif" font-size="14.00">1</text>
</g>
<!-- 33&#45;&gt;25 -->
<g id="edge13" class="edge">
<title>33&#45;&gt;25</title>
<path fill="none" stroke="black" d="M405.98,-1952C398.23,-1952 392.83,-1952 392.83,-1952 392.83,-1952 392.83,-1871 392.83,-1871 392.83,-1871 259.07,-1871 259.07,-1871"/>
<polygon fill="black" stroke="black" points="259.07,-1867.5 249.07,-1871 259.07,-1874.5 259.07,-1867.5"/>
<text text-anchor="middle" x="363" y="-1904.8" font-family="Times,serif" font-size="14.00">1</text>
</g>
<!-- 34&#45;&gt;41 -->
<g id="edge53" class="edge">
<title>34&#45;&gt;41</title>
<path fill="none" stroke="black" d="M178,-760.68C178,-760.68 178,-699.05 178,-699.05"/>
<polygon fill="black" stroke="black" points="181.5,-699.05 178,-689.05 174.5,-699.05 181.5,-699.05"/>
<text text-anchor="middle" x="190" y="-721.3" font-family="Times,serif" font-size="14.00">2</text>
</g>
<!-- 35 -->
<g id="node36" class="node">
<title>35</title>
<g id="a_node36"><a xlink:title="source span: [2:10|2:12]">
<polygon fill="none" stroke="black" points="231.5,-2057 120.5,-2057 120.5,-2021 231.5,-2021 231.5,-2057"/>
<text text-anchor="middle" x="176" y="-2035.3" font-family="Times,serif" font-size="14.00">ConstInt [57]</text>
</a>
</g>
</g>
<!-- 35&#45;&gt;4 -->
<g id="edge12" class="edge">
<title>35&#45;&gt;4</title>
<path fill="none" stroke="black" d="M180,-2020.97C180,-2020.97 180,-1980 180,-1980"/>
<polygon fill="black" stroke="black" points="183.5,-1980 180,-1970 176.5,-1980 183.5,-1980"/>
<text text-anchor="middle" x="188" y="-1991.8" font-family="Times,serif" font-size="14.00">1</text>
</g>
<!-- 35&#45;&gt;11 -->
<g id="edge26" class="edge">
<title>35&#45;&gt;11</title>
<path fill="none" stroke="black" d="M135.33,-2020.71C135.33,-2020.71 135.33,-1893.05 135.33,-1893.05"/>
<polygon fill="black" stroke="black" points="138.83,-1893.05 135.33,-1883.05 131.83,-1893.05 138.83,-1893.05"/>
<text text-anchor="middle" x="139" y="-1948.3" font-family="Times,serif" font-size="14.00">0</text>
</g>
<!-- 36 -->
<g id="node37" class="node">
<title>36</title>
<g id="a_node37"><a xlink:title="source span: [0:0|12:1]">
<polygon fill="none" stroke="black" points="433,-2231 379,-2231 379,-2195 433,-2195 433,-2231"/>
<text text-anchor="middle" x="406" y="-2209.3" font-family="Times,serif" font-size="14.00">Start</text>
</a>
</g>
</g>
<!-- 36&#45;&gt;20 -->
<g id="edge18" class="edge">
<title>36&#45;&gt;20</title>
<path fill="none" stroke="black" d="M406,-2194.97C406,-2194.97 406,-2154 406,-2154"/>
<polygon fill="black" stroke="black" points="409.5,-2154 406,-2144 402.5,-2154 409.5,-2154"/>
<text text-anchor="middle" x="411" y="-2165.8" font-family="Times,serif" font-size="14.00">0</text>
</g>
<!-- 37&#45;&gt;13 -->
<g id="edge44" class="edge">
<title>37&#45;&gt;13</title>
<path fill="none" stroke="black" d="M230.5,-1303.97C230.5,-1278.49 230.5,-1235 230.5,-1235 230.5,-1235 200.07,-1235 200.07,-1235"/>
<polygon fill="black" stroke="black" points="200.07,-1231.5 190.07,-1235 200.07,-1238.5 200.07,-1231.5"/>
<text text-anchor="middle" x="249" y="-1274.8" font-family="Times,serif" font-size="14.00">2</text>
</g>
<!-- 38&#45;&gt;13 -->
<g id="edge37" class="edge">
<title>38&#45;&gt;13</title>
<path fill="none" stroke="black" d="M163,-1303.97C163,-1303.97 163,-1263 163,-1263"/>
<polygon fill="black" stroke="black" points="166.5,-1263 163,-1253 159.5,-1263 166.5,-1263"/>
<text text-anchor="middle" x="161" y="-1274.8" font-family="Times,serif" font-size="14.00">0</text>
</g>
<!-- 39&#45;&gt;40 -->
<g id="edge5" class="edge">
<title>39&#45;&gt;40</title>
<path fill="none" stroke="black" d="M330,-706.69C330,-706.69 330,-504 330,-504"/>
<polygon fill="black" stroke="black" points="333.5,-504 330,-494 326.5,-504 333.5,-504"/>
<text text-anchor="middle" x="331" y="-623.8" font-family="Times,serif" font-size="14.00">0</text>
</g>
<!-- 40&#45;&gt;7 -->
<g id="edge4" class="edge">
<title>40&#45;&gt;7</title>
<path fill="none" stroke="black" d="M328.5,-457.97C328.5,-457.97 328.5,-417 328.5,-417"/>
<polygon fill="black" stroke="black" points="332,-417 328.5,-407 325,-417 332,-417"/>
<text text-anchor="middle" x="333" y="-428.8" font-family="Times,serif" font-size="14.00">0</text>
</g>
<!-- 41&#45;&gt;19 -->
<g id="edge50" class="edge">
<title>41&#45;&gt;19</title>
<path fill="none" stroke="black" d="M201,-652.97C201,-652.97 201,-612 201,-612"/>
<polygon fill="black" stroke="black" points="204.5,-612 201,-602 197.5,-612 204.5,-612"/>
<text text-anchor="middle" x="237" y="-623.8" font-family="Times,serif" font-size="14.00">0</text>
</g>
<!-- 41&#45;&gt;26 -->
<g id="edge57" class="edge">
<title>41&#45;&gt;26</title>
<path fill="none" stroke="black" d="M174,-652.86C174,-652.86 174,-558.07 174,-558.07"/>
<polygon fill="black" stroke="black" points="177.5,-558.07 174,-548.07 170.5,-558.08 177.5,-558.07"/>
<text text-anchor="middle" x="183" y="-623.8" font-family="Times,serif" font-size="14.00">0</text>
</g>
<!-- 42&#45;&gt;9 -->
<g id="edge20" class="edge">
<title>42&#45;&gt;9</title>
<path fill="none" stroke="black" d="M339,-1477.97C339,-1477.97 339,-1437 339,-1437"/>
<polygon fill="black" stroke="black" points="342.5,-1437 339,-1427 335.5,-1437 342.5,-1437"/>
<text text-anchor="middle" x="344" y="-1448.8" font-family="Times,serif" font-size="14.00">1</text>
</g>
<!-- 42&#45;&gt;14 -->
<g id="edge39" class="edge">
<title>42&#45;&gt;14</title>
<path fill="none" stroke="black" d="M311.9,-1496C261.41,-1496 158,-1496 158,-1496 158,-1496 158,-1437.03 158,-1437.03"/>
<polygon fill="black" stroke="black" points="161.5,-1437.03 158,-1427.03 154.5,-1437.03 161.5,-1437.03"/>
<text text-anchor="middle" x="206" y="-1448.8" font-family="Times,serif" font-size="14.00">0</text>
</g>
<!-- 42&#45;&gt;18 -->
<g id="edge62" class="edge">
<title>42&#45;&gt;18</title>
<path fill="none" stroke="black" d="M366.07,-1490C390.18,-1490 421.67,-1490 421.67,-1490 421.67,-1490 421.67,-1437.38 421.67,-1437.38"/>
<polygon fill="black" stroke="black" points="425.17,-1437.38 421.67,-1427.38 418.17,-1437.38 425.17,-1437.38"/>
<text text-anchor="middle" x="432" y="-1448.8" font-family="Times,serif" font-size="14.00">1</text>
</g>
</g>
</svg>
