<?xml version="1.0" encoding="UTF-8" standalone="no"?>
<!DOCTYPE svg PUBLIC "-//W3C//DTD SVG 1.1//EN"
 "http://www.w3.org/Graphics/SVG/1.1/DTD/svg11.dtd">
<!-- Generated by graphviz version 2.43.0 (0)
 -->
<!-- Title: main Pages: 1 -->
<svg width="560pt" height="845pt"
 viewBox="0.00 0.00 560.00 845.00" xmlns="http://www.w3.org/2000/svg" xmlns:xlink="http://www.w3.org/1999/xlink">
<g id="graph0" class="graph" transform="scale(1 1) rotate(0) translate(4 841)">
<title>main</title>
<polygon fill="white" stroke="transparent" points="-4,4 -4,-841 556,-841 556,4 -4,4"/>
<g id="clust1" class="cluster">
<title>cluster_0</title>
<polygon fill="none" stroke="black" points="53,-8 53,-48 98,-48 98,-8 53,-8"/>
<text text-anchor="middle" x="75.5" y="-32.8" font-family="Times,serif" font-size="14.00">End</text>
</g>
<g id="clust2" class="cluster">
<title>cluster_1</title>
<polygon fill="none" stroke="black" points="8,-81 8,-829 544,-829 544,-81 8,-81"/>
</g>
<!-- c_0 -->
<!-- c_1 -->
<!-- 2 -->
<g id="node3" class="node">
<title>2</title>
<g id="a_node3"><a xlink:title="source span: [4:10|4:15]">
<polygon fill="none" stroke="black" points="223,-212 69,-212 69,-176 223,-176 223,-212"/>
<text text-anchor="middle" x="146" y="-190.3" font-family="Times,serif" font-size="14.00">Proj SIDE_EFFECT</text>
</a>
</g>
</g>
<!-- 18 -->
<g id="node19" class="node">
<title>18</title>
<g id="a_node19"><a xlink:title="source span: [5:2|5:10]">
<polygon fill="none" stroke="black" points="108,-125 42,-125 42,-89 108,-89 108,-125"/>
<text text-anchor="middle" x="75" y="-103.3" font-family="Times,serif" font-size="14.00">Return</text>
</a>
</g>
</g>
<!-- 2&#45;&gt;18 -->
<g id="edge2" class="edge">
<title>2&#45;&gt;18</title>
<path fill="none" stroke="black" d="M88.5,-175.97C88.5,-175.97 88.5,-135 88.5,-135"/>
<polygon fill="black" stroke="black" points="92,-135 88.5,-125 85,-135 92,-135"/>
<text text-anchor="middle" x="107" y="-146.8" font-family="Times,serif" font-size="14.00">0</text>
</g>
<!-- 3 -->
<g id="node4" class="node">
<title>3</title>
<g id="a_node4"><a xlink:title="source span: [3:10|3:17]">
<polygon fill="none" stroke="black" points="327,-386 173,-386 173,-350 327,-350 327,-386"/>
<text text-anchor="middle" x="250" y="-364.3" font-family="Times,serif" font-size="14.00">Proj SIDE_EFFECT</text>
</a>
</g>
</g>
<!-- 16 -->
<g id="node17" class="node">
<title>16</title>
<g id="a_node17"><a xlink:title="source span: [4:10|4:15]">
<polygon fill="none" stroke="black" points="212,-299 158,-299 158,-263 212,-263 212,-299"/>
<text text-anchor="middle" x="185" y="-277.3" font-family="Times,serif" font-size="14.00">Mod</text>
</a>
</g>
</g>
<!-- 3&#45;&gt;16 -->
<g id="edge19" class="edge">
<title>3&#45;&gt;16</title>
<path fill="none" stroke="black" d="M192.5,-349.97C192.5,-349.97 192.5,-309 192.5,-309"/>
<polygon fill="black" stroke="black" points="196,-309 192.5,-299 189,-309 196,-309"/>
<text text-anchor="middle" x="226" y="-320.8" font-family="Times,serif" font-size="14.00">2</text>
</g>
<!-- 4 -->
<g id="node5" class="node">
<title>4</title>
<g id="a_node5"><a xlink:title="source span: [1:17|1:28]">
<polygon fill="none" stroke="black" points="342,-734 288,-734 288,-698 342,-698 342,-734"/>
<text text-anchor="middle" x="315" y="-712.3" font-family="Times,serif" font-size="14.00">Sub</text>
</a>
</g>
</g>
<!-- 8 -->
<g id="node9" class="node">
<title>8</title>
<g id="a_node9"><a xlink:title="source span: [1:17|1:35]">
<polygon fill="none" stroke="black" points="338,-647 284,-647 284,-611 338,-611 338,-647"/>
<text text-anchor="middle" x="311" y="-625.3" font-family="Times,serif" font-size="14.00">Div</text>
</a>
</g>
</g>
<!-- 4&#45;&gt;8 -->
<g id="edge11" class="edge">
<title>4&#45;&gt;8</title>
<path fill="none" stroke="black" d="M313,-697.97C313,-697.97 313,-657 313,-657"/>
<polygon fill="black" stroke="black" points="316.5,-657 313,-647 309.5,-657 316.5,-657"/>
<text text-anchor="middle" x="318" y="-668.8" font-family="Times,serif" font-size="14.00">0</text>
</g>
<!-- 5 -->
<g id="node6" class="node">
<title>5</title>
<g id="a_node6"><a xlink:title="source span: [0:0|6:1]">
<polygon fill="none" stroke="black" points="516,-821 462,-821 462,-785 516,-785 516,-821"/>
<text text-anchor="middle" x="489" y="-799.3" font-family="Times,serif" font-size="14.00">Start</text>
</a>
</g>
</g>
<!-- 17 -->
<g id="node18" class="node">
<title>17</title>
<g id="a_node18"><a xlink:title="source span: [0:0|6:1]">
<polygon fill="none" stroke="black" points="525,-734 371,-734 371,-698 525,-698 525,-734"/>
<text text-anchor="middle" x="448" y="-712.3" font-family="Times,serif" font-size="14.00">Proj SIDE_EFFECT</text>
</a>
</g>
</g>
<!-- 5&#45;&gt;17 -->
<g id="edge18" class="edge">
<title>5&#45;&gt;17</title>
<path fill="none" stroke="black" d="M489,-784.97C489,-784.97 489,-744 489,-744"/>
<polygon fill="black" stroke="black" points="492.5,-744 489,-734 485.5,-744 492.5,-744"/>
<text text-anchor="middle" x="473" y="-755.8" font-family="Times,serif" font-size="14.00">0</text>
</g>
<!-- 6 -->
<g id="node7" class="node">
<title>6</title>
<g id="a_node7"><a xlink:title="source span: [3:10|3:13]">
<polygon fill="none" stroke="black" points="173,-560 53,-560 53,-524 173,-524 173,-560"/>
<text text-anchor="middle" x="113" y="-538.3" font-family="Times,serif" font-size="14.00">ConstInt [100]</text>
</a>
</g>
</g>
<!-- 9 -->
<g id="node10" class="node">
<title>9</title>
<g id="a_node10"><a xlink:title="source span: [3:10|3:17]">
<polygon fill="none" stroke="black" points="277,-473 223,-473 223,-437 277,-437 277,-473"/>
<text text-anchor="middle" x="250" y="-451.3" font-family="Times,serif" font-size="14.00">Div</text>
</a>
</g>
</g>
<!-- 6&#45;&gt;9 -->
<g id="edge7" class="edge">
<title>6&#45;&gt;9</title>
<path fill="none" stroke="black" d="M163,-523.62C163,-499.72 163,-461 163,-461 163,-461 212.95,-461 212.95,-461"/>
<polygon fill="black" stroke="black" points="212.95,-464.5 222.95,-461 212.95,-457.5 212.95,-464.5"/>
<text text-anchor="middle" x="149" y="-494.8" font-family="Times,serif" font-size="14.00">0</text>
</g>
<!-- 7 -->
<g id="node8" class="node">
<title>7</title>
<g id="a_node8"><a xlink:title="source span: [1:17|1:35]">
<polygon fill="none" stroke="black" points="372,-560 218,-560 218,-524 372,-524 372,-560"/>
<text text-anchor="middle" x="295" y="-538.3" font-family="Times,serif" font-size="14.00">Proj SIDE_EFFECT</text>
</a>
</g>
</g>
<!-- 7&#45;&gt;9 -->
<g id="edge9" class="edge">
<title>7&#45;&gt;9</title>
<path fill="none" stroke="black" d="M250,-523.97C250,-523.97 250,-483 250,-483"/>
<polygon fill="black" stroke="black" points="253.5,-483 250,-473 246.5,-483 253.5,-483"/>
<text text-anchor="middle" x="277" y="-494.8" font-family="Times,serif" font-size="14.00">2</text>
</g>
<!-- 8&#45;&gt;7 -->
<g id="edge10" class="edge">
<title>8&#45;&gt;7</title>
<path fill="none" stroke="black" d="M311,-610.97C311,-610.97 311,-570 311,-570"/>
<polygon fill="black" stroke="black" points="314.5,-570 311,-560 307.5,-570 314.5,-570"/>
<text text-anchor="middle" x="303" y="-581.8" font-family="Times,serif" font-size="14.00">0</text>
</g>
<!-- 9&#45;&gt;3 -->
<g id="edge20" class="edge">
<title>9&#45;&gt;3</title>
<path fill="none" stroke="black" d="M250,-436.97C250,-436.97 250,-396 250,-396"/>
<polygon fill="black" stroke="black" points="253.5,-396 250,-386 246.5,-396 253.5,-396"/>
<text text-anchor="middle" x="255" y="-407.8" font-family="Times,serif" font-size="14.00">0</text>
</g>
<!-- 11 -->
<g id="node12" class="node">
<title>11</title>
<g id="a_node12"><a xlink:title="source span: [3:10|3:17]">
<polygon fill="none" stroke="black" points="455,-386 345,-386 345,-350 455,-350 455,-386"/>
<text text-anchor="middle" x="400" y="-364.3" font-family="Times,serif" font-size="14.00">Proj RESULT</text>
</a>
</g>
</g>
<!-- 9&#45;&gt;11 -->
<g id="edge6" class="edge">
<title>9&#45;&gt;11</title>
<path fill="none" stroke="black" d="M277.1,-455C309.24,-455 358.5,-455 358.5,-455 358.5,-455 358.5,-396.03 358.5,-396.03"/>
<polygon fill="black" stroke="black" points="362,-396.03 358.5,-386.03 355,-396.03 362,-396.03"/>
<text text-anchor="middle" x="346" y="-407.8" font-family="Times,serif" font-size="14.00">0</text>
</g>
<!-- 10 -->
<g id="node11" class="node">
<title>10</title>
<g id="a_node11"><a xlink:title="source span: [1:33|1:35]">
<polygon fill="none" stroke="black" points="270,-734 216,-734 216,-698 270,-698 270,-734"/>
<text text-anchor="middle" x="243" y="-712.3" font-family="Times,serif" font-size="14.00">Sub</text>
</a>
</g>
</g>
<!-- 10&#45;&gt;8 -->
<g id="edge14" class="edge">
<title>10&#45;&gt;8</title>
<path fill="none" stroke="black" d="M244,-697.97C244,-672.49 244,-629 244,-629 244,-629 273.75,-629 273.75,-629"/>
<polygon fill="black" stroke="black" points="273.75,-632.5 283.75,-629 273.75,-625.5 273.75,-632.5"/>
<text text-anchor="middle" x="279" y="-668.8" font-family="Times,serif" font-size="14.00">1</text>
</g>
<!-- 11&#45;&gt;16 -->
<g id="edge5" class="edge">
<title>11&#45;&gt;16</title>
<path fill="none" stroke="black" d="M400,-349.97C400,-324.49 400,-281 400,-281 400,-281 222.23,-281 222.23,-281"/>
<polygon fill="black" stroke="black" points="222.23,-277.5 212.23,-281 222.23,-284.5 222.23,-277.5"/>
<text text-anchor="middle" x="346" y="-320.8" font-family="Times,serif" font-size="14.00">1</text>
</g>
<!-- 12 -->
<g id="node13" class="node">
<title>12</title>
<g id="a_node13"><a xlink:title="source span: [1:34|1:35]">
<polygon fill="none" stroke="black" points="238,-821 136,-821 136,-785 238,-785 238,-821"/>
<text text-anchor="middle" x="187" y="-799.3" font-family="Times,serif" font-size="14.00">ConstInt [1]</text>
</a>
</g>
</g>
<!-- 12&#45;&gt;10 -->
<g id="edge16" class="edge">
<title>12&#45;&gt;10</title>
<path fill="none" stroke="black" d="M227,-784.97C227,-784.97 227,-744 227,-744"/>
<polygon fill="black" stroke="black" points="230.5,-744 227,-734 223.5,-744 230.5,-744"/>
<text text-anchor="middle" x="254" y="-755.8" font-family="Times,serif" font-size="14.00">1</text>
</g>
<!-- 13 -->
<g id="node14" class="node">
<title>13</title>
<g id="a_node14"><a xlink:title="source span: [4:10|4:11]">
<polygon fill="none" stroke="black" points="155,-386 53,-386 53,-350 155,-350 155,-386"/>
<text text-anchor="middle" x="104" y="-364.3" font-family="Times,serif" font-size="14.00">ConstInt [5]</text>
</a>
</g>
</g>
<!-- 13&#45;&gt;16 -->
<g id="edge4" class="edge">
<title>13&#45;&gt;16</title>
<path fill="none" stroke="black" d="M155.05,-368C162.65,-368 168,-368 168,-368 168,-368 168,-309.03 168,-309.03"/>
<polygon fill="black" stroke="black" points="171.5,-309.03 168,-299.03 164.5,-309.03 171.5,-309.03"/>
<text text-anchor="middle" x="137" y="-320.8" font-family="Times,serif" font-size="14.00">0</text>
</g>
<!-- 14 -->
<g id="node15" class="node">
<title>14</title>
<g id="a_node15"><a xlink:title="source span: [1:17|1:28]">
<polygon fill="none" stroke="black" points="118,-821 16,-821 16,-785 118,-785 118,-821"/>
<text text-anchor="middle" x="67" y="-799.3" font-family="Times,serif" font-size="14.00">ConstInt [0]</text>
</a>
</g>
</g>
<!-- 14&#45;&gt;4 -->
<g id="edge12" class="edge">
<title>14&#45;&gt;4</title>
<path fill="none" stroke="black" d="M74.67,-784.85C74.67,-772.73 74.67,-759 74.67,-759 74.67,-759 306,-759 306,-759 306,-759 306,-744.49 306,-744.49"/>
<polygon fill="black" stroke="black" points="309.5,-744.49 306,-734.49 302.5,-744.49 309.5,-744.49"/>
<text text-anchor="middle" x="306" y="-755.8" font-family="Times,serif" font-size="14.00">0</text>
</g>
<!-- 14&#45;&gt;9 -->
<g id="edge8" class="edge">
<title>14&#45;&gt;9</title>
<path fill="none" stroke="black" d="M49.33,-784.96C49.33,-712.82 49.33,-449 49.33,-449 49.33,-449 212.94,-449 212.94,-449"/>
<polygon fill="black" stroke="black" points="212.94,-452.5 222.94,-449 212.94,-445.5 212.94,-452.5"/>
<text text-anchor="middle" x="197" y="-625.3" font-family="Times,serif" font-size="14.00">1</text>
</g>
<!-- 14&#45;&gt;10 -->
<g id="edge15" class="edge">
<title>14&#45;&gt;10</title>
<path fill="none" stroke="black" d="M96.33,-784.97C96.33,-759.49 96.33,-716 96.33,-716 96.33,-716 205.76,-716 205.76,-716"/>
<polygon fill="black" stroke="black" points="205.76,-719.5 215.76,-716 205.76,-712.5 205.76,-719.5"/>
<text text-anchor="middle" x="221" y="-755.8" font-family="Times,serif" font-size="14.00">0</text>
</g>
<!-- 14&#45;&gt;18 -->
<g id="edge21" class="edge">
<title>14&#45;&gt;18</title>
<path fill="none" stroke="black" d="M45.67,-784.74C45.67,-784.74 45.67,-135.07 45.67,-135.07"/>
<polygon fill="black" stroke="black" points="49.17,-135.07 45.67,-125.07 42.17,-135.07 49.17,-135.07"/>
<text text-anchor="middle" x="39" y="-451.3" font-family="Times,serif" font-size="14.00">1</text>
</g>
<!-- 15 -->
<g id="node16" class="node">
<title>15</title>
<g id="a_node16"><a xlink:title="source span: [1:18|1:28]">
<polygon fill="none" stroke="black" points="444,-821 256,-821 256,-785 444,-785 444,-821"/>
<text text-anchor="middle" x="350" y="-799.3" font-family="Times,serif" font-size="14.00">ConstInt [&#45;2147483648]</text>
</a>
</g>
</g>
<!-- 15&#45;&gt;4 -->
<g id="edge13" class="edge">
<title>15&#45;&gt;4</title>
<path fill="none" stroke="black" d="M324,-784.97C324,-784.97 324,-744 324,-744"/>
<polygon fill="black" stroke="black" points="327.5,-744 324,-734 320.5,-744 327.5,-744"/>
<text text-anchor="middle" x="345" y="-755.8" font-family="Times,serif" font-size="14.00">1</text>
</g>
<!-- 16&#45;&gt;2 -->
<g id="edge3" class="edge">
<title>16&#45;&gt;2</title>
<path fill="none" stroke="black" d="M185,-262.97C185,-262.97 185,-222 185,-222"/>
<polygon fill="black" stroke="black" points="188.5,-222 185,-212 181.5,-222 188.5,-222"/>
<text text-anchor="middle" x="159" y="-233.8" font-family="Times,serif" font-size="14.00">0</text>
</g>
<!-- 17&#45;&gt;8 -->
<g id="edge17" class="edge">
<title>17&#45;&gt;8</title>
<path fill="none" stroke="black" d="M413.5,-697.97C413.5,-672.49 413.5,-629 413.5,-629 413.5,-629 348.2,-629 348.2,-629"/>
<polygon fill="black" stroke="black" points="348.2,-625.5 338.2,-629 348.2,-632.5 348.2,-625.5"/>
<text text-anchor="middle" x="414" y="-668.8" font-family="Times,serif" font-size="14.00">2</text>
</g>
<!-- 18&#45;&gt;c_0 -->
<g id="edge1" class="edge">
<title>18&#45;&gt;c_0</title>
<path fill="none" stroke="black" d="M75,-88.69C75,-88.69 75,-73.63 75,-58.39"/>
<polygon fill="black" stroke="black" points="78.5,-58 75,-48 71.5,-58 78.5,-58"/>
<text text-anchor="middle" x="80" y="-59.8" font-family="Times,serif" font-size="14.00">0</text>
</g>
</g>
</svg>
