<?xml version="1.0" encoding="UTF-8" standalone="no"?>
<!DOCTYPE svg PUBLIC "-//W3C//DTD SVG 1.1//EN"
 "http://www.w3.org/Graphics/SVG/1.1/DTD/svg11.dtd">
<!-- Generated by graphviz version 2.43.0 (0)
 -->
<!-- Title: main Pages: 1 -->
<svg width="560pt" height="497pt"
 viewBox="0.00 0.00 560.00 497.00" xmlns="http://www.w3.org/2000/svg" xmlns:xlink="http://www.w3.org/1999/xlink">
<g id="graph0" class="graph" transform="scale(1 1) rotate(0) translate(4 493)">
<title>main</title>
<polygon fill="white" stroke="transparent" points="-4,4 -4,-493 556,-493 556,4 -4,4"/>
<g id="clust1" class="cluster">
<title>cluster_0</title>
<polygon fill="none" stroke="black" points="256,-8 256,-48 301,-48 301,-8 256,-8"/>
<text text-anchor="middle" x="278.5" y="-32.8" font-family="Times,serif" font-size="14.00">End</text>
</g>
<g id="clust2" class="cluster">
<title>cluster_1</title>
<polygon fill="none" stroke="black" points="8,-81 8,-481 544,-481 544,-81 8,-81"/>
</g>
<!-- c_0 -->
<!-- c_1 -->
<!-- 2 -->
<g id="node3" class="node">
<title>2</title>
<g id="a_node3"><a xlink:title="source span: [2:11|2:21]">
<polygon fill="none" stroke="black" points="444,-473 256,-473 256,-437 444,-437 444,-473"/>
<text text-anchor="middle" x="350" y="-451.3" font-family="Times,serif" font-size="14.00">ConstInt [&#45;2147483648]</text>
</a>
</g>
</g>
<!-- 8 -->
<g id="node9" class="node">
<title>8</title>
<g id="a_node9"><a xlink:title="source span: [2:10|2:21]">
<polygon fill="none" stroke="black" points="306,-386 252,-386 252,-350 306,-350 306,-386"/>
<text text-anchor="middle" x="279" y="-364.3" font-family="Times,serif" font-size="14.00">Sub</text>
</a>
</g>
</g>
<!-- 2&#45;&gt;8 -->
<g id="edge6" class="edge">
<title>2&#45;&gt;8</title>
<path fill="none" stroke="black" d="M281,-436.97C281,-436.97 281,-396 281,-396"/>
<polygon fill="black" stroke="black" points="284.5,-396 281,-386 277.5,-396 284.5,-396"/>
<text text-anchor="middle" x="350" y="-407.8" font-family="Times,serif" font-size="14.00">1</text>
</g>
<!-- 3 -->
<g id="node4" class="node">
<title>3</title>
<g id="a_node4"><a xlink:title="source span: [0:0|4:1]">
<polygon fill="none" stroke="black" points="516,-473 462,-473 462,-437 516,-437 516,-473"/>
<text text-anchor="middle" x="489" y="-451.3" font-family="Times,serif" font-size="14.00">Start</text>
</a>
</g>
</g>
<!-- 11 -->
<g id="node12" class="node">
<title>11</title>
<g id="a_node12"><a xlink:title="source span: [0:0|4:1]">
<polygon fill="none" stroke="black" points="488,-386 334,-386 334,-350 488,-350 488,-386"/>
<text text-anchor="middle" x="411" y="-364.3" font-family="Times,serif" font-size="14.00">Proj SIDE_EFFECT</text>
</a>
</g>
</g>
<!-- 3&#45;&gt;11 -->
<g id="edge11" class="edge">
<title>3&#45;&gt;11</title>
<path fill="none" stroke="black" d="M475,-436.97C475,-436.97 475,-396 475,-396"/>
<polygon fill="black" stroke="black" points="478.5,-396 475,-386 471.5,-396 478.5,-396"/>
<text text-anchor="middle" x="421" y="-407.8" font-family="Times,serif" font-size="14.00">0</text>
</g>
<!-- 4 -->
<g id="node5" class="node">
<title>4</title>
<g id="a_node5"><a xlink:title="source span: [3:9|3:14]">
<polygon fill="none" stroke="black" points="306,-299 252,-299 252,-263 306,-263 306,-299"/>
<text text-anchor="middle" x="279" y="-277.3" font-family="Times,serif" font-size="14.00">Div</text>
</a>
</g>
</g>
<!-- 6 -->
<g id="node7" class="node">
<title>6</title>
<g id="a_node7"><a xlink:title="source span: [3:9|3:14]">
<polygon fill="none" stroke="black" points="288,-212 178,-212 178,-176 288,-176 288,-212"/>
<text text-anchor="middle" x="233" y="-190.3" font-family="Times,serif" font-size="14.00">Proj RESULT</text>
</a>
</g>
</g>
<!-- 4&#45;&gt;6 -->
<g id="edge13" class="edge">
<title>4&#45;&gt;6</title>
<path fill="none" stroke="black" d="M270,-262.97C270,-262.97 270,-222 270,-222"/>
<polygon fill="black" stroke="black" points="273.5,-222 270,-212 266.5,-222 273.5,-222"/>
<text text-anchor="middle" x="261" y="-233.8" font-family="Times,serif" font-size="14.00">0</text>
</g>
<!-- 12 -->
<g id="node13" class="node">
<title>12</title>
<g id="a_node13"><a xlink:title="source span: [3:9|3:14]">
<polygon fill="none" stroke="black" points="460,-212 306,-212 306,-176 460,-176 460,-212"/>
<text text-anchor="middle" x="383" y="-190.3" font-family="Times,serif" font-size="14.00">Proj SIDE_EFFECT</text>
</a>
</g>
</g>
<!-- 4&#45;&gt;12 -->
<g id="edge3" class="edge">
<title>4&#45;&gt;12</title>
<path fill="none" stroke="black" d="M300,-262.62C300,-238.72 300,-200 300,-200 300,-200 300.6,-200 300.6,-200"/>
<polygon fill="black" stroke="black" points="295.97,-203.5 305.97,-200 295.97,-196.5 295.97,-203.5"/>
<text text-anchor="middle" x="330" y="-233.8" font-family="Times,serif" font-size="14.00">0</text>
</g>
<!-- 5 -->
<g id="node6" class="node">
<title>5</title>
<g id="a_node6"><a xlink:title="source span: [1:10|1:12]">
<polygon fill="none" stroke="black" points="214,-386 160,-386 160,-350 214,-350 214,-386"/>
<text text-anchor="middle" x="187" y="-364.3" font-family="Times,serif" font-size="14.00">Sub</text>
</a>
</g>
</g>
<!-- 5&#45;&gt;4 -->
<g id="edge7" class="edge">
<title>5&#45;&gt;4</title>
<path fill="none" stroke="black" d="M196,-349.97C196,-324.49 196,-281 196,-281 196,-281 241.82,-281 241.82,-281"/>
<polygon fill="black" stroke="black" points="241.82,-284.5 251.82,-281 241.82,-277.5 241.82,-284.5"/>
<text text-anchor="middle" x="221" y="-320.8" font-family="Times,serif" font-size="14.00">1</text>
</g>
<!-- 7 -->
<g id="node8" class="node">
<title>7</title>
<g id="a_node8"><a xlink:title="source span: [3:2|3:14]">
<polygon fill="none" stroke="black" points="311,-125 245,-125 245,-89 311,-89 311,-125"/>
<text text-anchor="middle" x="278" y="-103.3" font-family="Times,serif" font-size="14.00">Return</text>
</a>
</g>
</g>
<!-- 6&#45;&gt;7 -->
<g id="edge12" class="edge">
<title>6&#45;&gt;7</title>
<path fill="none" stroke="black" d="M266.5,-175.97C266.5,-175.97 266.5,-135 266.5,-135"/>
<polygon fill="black" stroke="black" points="270,-135 266.5,-125 263,-135 270,-135"/>
<text text-anchor="middle" x="267" y="-146.8" font-family="Times,serif" font-size="14.00">1</text>
</g>
<!-- 7&#45;&gt;c_0 -->
<g id="edge1" class="edge">
<title>7&#45;&gt;c_0</title>
<path fill="none" stroke="black" d="M278,-88.69C278,-88.69 278,-73.63 278,-58.39"/>
<polygon fill="black" stroke="black" points="281.5,-58 278,-48 274.5,-58 281.5,-58"/>
<text text-anchor="middle" x="283" y="-59.8" font-family="Times,serif" font-size="14.00">0</text>
</g>
<!-- 8&#45;&gt;4 -->
<g id="edge4" class="edge">
<title>8&#45;&gt;4</title>
<path fill="none" stroke="black" d="M279,-349.97C279,-349.97 279,-309 279,-309"/>
<polygon fill="black" stroke="black" points="282.5,-309 279,-299 275.5,-309 282.5,-309"/>
<text text-anchor="middle" x="284" y="-320.8" font-family="Times,serif" font-size="14.00">0</text>
</g>
<!-- 9 -->
<g id="node10" class="node">
<title>9</title>
<g id="a_node10"><a xlink:title="source span: [1:11|1:12]">
<polygon fill="none" stroke="black" points="118,-473 16,-473 16,-437 118,-437 118,-473"/>
<text text-anchor="middle" x="67" y="-451.3" font-family="Times,serif" font-size="14.00">ConstInt [1]</text>
</a>
</g>
</g>
<!-- 9&#45;&gt;5 -->
<g id="edge9" class="edge">
<title>9&#45;&gt;5</title>
<path fill="none" stroke="black" d="M67,-436.97C67,-411.49 67,-368 67,-368 67,-368 149.77,-368 149.77,-368"/>
<polygon fill="black" stroke="black" points="149.77,-371.5 159.77,-368 149.77,-364.5 149.77,-371.5"/>
<text text-anchor="middle" x="115" y="-407.8" font-family="Times,serif" font-size="14.00">1</text>
</g>
<!-- 10 -->
<g id="node11" class="node">
<title>10</title>
<g id="a_node11"><a xlink:title="source span: [1:10|1:12]">
<polygon fill="none" stroke="black" points="238,-473 136,-473 136,-437 238,-437 238,-473"/>
<text text-anchor="middle" x="187" y="-451.3" font-family="Times,serif" font-size="14.00">ConstInt [0]</text>
</a>
</g>
</g>
<!-- 10&#45;&gt;5 -->
<g id="edge8" class="edge">
<title>10&#45;&gt;5</title>
<path fill="none" stroke="black" d="M187,-436.97C187,-436.97 187,-396 187,-396"/>
<polygon fill="black" stroke="black" points="190.5,-396 187,-386 183.5,-396 190.5,-396"/>
<text text-anchor="middle" x="192" y="-407.8" font-family="Times,serif" font-size="14.00">0</text>
</g>
<!-- 10&#45;&gt;8 -->
<g id="edge5" class="edge">
<title>10&#45;&gt;8</title>
<path fill="none" stroke="black" d="M226,-436.97C226,-411.49 226,-368 226,-368 226,-368 241.88,-368 241.88,-368"/>
<polygon fill="black" stroke="black" points="241.88,-371.5 251.88,-368 241.88,-364.5 241.88,-371.5"/>
<text text-anchor="middle" x="244" y="-407.8" font-family="Times,serif" font-size="14.00">0</text>
</g>
<!-- 11&#45;&gt;4 -->
<g id="edge10" class="edge">
<title>11&#45;&gt;4</title>
<path fill="none" stroke="black" d="M397,-349.97C397,-324.49 397,-281 397,-281 397,-281 316.07,-281 316.07,-281"/>
<polygon fill="black" stroke="black" points="316.07,-277.5 306.07,-281 316.07,-284.5 316.07,-277.5"/>
<text text-anchor="middle" x="366" y="-320.8" font-family="Times,serif" font-size="14.00">2</text>
</g>
<!-- 12&#45;&gt;7 -->
<g id="edge2" class="edge">
<title>12&#45;&gt;7</title>
<path fill="none" stroke="black" d="M305.64,-188C298.57,-188 294,-188 294,-188 294,-188 294,-135.38 294,-135.38"/>
<polygon fill="black" stroke="black" points="297.5,-135.38 294,-125.38 290.5,-135.38 297.5,-135.38"/>
<text text-anchor="middle" x="358" y="-146.8" font-family="Times,serif" font-size="14.00">0</text>
</g>
</g>
</svg>
