<?xml version="1.0" encoding="UTF-8" standalone="no"?>
<!DOCTYPE svg PUBLIC "-//W3C//DTD SVG 1.1//EN"
 "http://www.w3.org/Graphics/SVG/1.1/DTD/svg11.dtd">
<!-- Generated by graphviz version 2.43.0 (0)
 -->
<!-- Title: main Pages: 1 -->
<svg width="266pt" height="1193pt"
 viewBox="0.00 0.00 266.00 1193.00" xmlns="http://www.w3.org/2000/svg" xmlns:xlink="http://www.w3.org/1999/xlink">
<g id="graph0" class="graph" transform="scale(1 1) rotate(0) translate(4 1189)">
<title>main</title>
<polygon fill="white" stroke="transparent" points="-4,4 -4,-1189 262,-1189 262,4 -4,4"/>
<g id="clust1" class="cluster">
<title>cluster_0</title>
<polygon fill="none" stroke="black" points="8,-81 8,-1177 250,-1177 250,-81 8,-81"/>
</g>
<g id="clust2" class="cluster">
<title>cluster_16</title>
<polygon fill="none" stroke="black" points="62,-8 62,-48 107,-48 107,-8 62,-8"/>
<text text-anchor="middle" x="84.5" y="-32.8" font-family="Times,serif" font-size="14.00">End</text>
</g>
<!-- c_0 -->
<!-- 1 -->
<g id="node2" class="node">
<title>1</title>
<g id="a_node2"><a xlink:title="source span: [14:11|14:24]">
<polygon fill="none" stroke="black" points="70,-908 16,-908 16,-872 70,-872 70,-908"/>
<text text-anchor="middle" x="43" y="-886.3" font-family="Times,serif" font-size="14.00">Add</text>
</a>
</g>
</g>
<!-- 5 -->
<g id="node6" class="node">
<title>5</title>
<g id="a_node6"><a xlink:title="source span: [22:11|22:24]">
<polygon fill="none" stroke="black" points="70,-734 16,-734 16,-698 70,-698 70,-734"/>
<text text-anchor="middle" x="43" y="-712.3" font-family="Times,serif" font-size="14.00">Add</text>
</a>
</g>
</g>
<!-- 1&#45;&gt;5 -->
<g id="edge20" class="edge">
<title>1&#45;&gt;5</title>
<path fill="none" stroke="black" d="M34,-871.71C34,-871.71 34,-744.05 34,-744.05"/>
<polygon fill="black" stroke="black" points="37.5,-744.05 34,-734.05 30.5,-744.05 37.5,-744.05"/>
<text text-anchor="middle" x="48" y="-799.3" font-family="Times,serif" font-size="14.00">1</text>
</g>
<!-- 7 -->
<g id="node8" class="node">
<title>7</title>
<g id="a_node8"><a xlink:title="source span: [18:11|18:24]">
<polygon fill="none" stroke="black" points="129,-821 75,-821 75,-785 129,-785 129,-821"/>
<text text-anchor="middle" x="102" y="-799.3" font-family="Times,serif" font-size="14.00">Add</text>
</a>
</g>
</g>
<!-- 1&#45;&gt;7 -->
<g id="edge12" class="edge">
<title>1&#45;&gt;7</title>
<path fill="none" stroke="black" d="M52,-871.97C52,-846.49 52,-803 52,-803 52,-803 64.95,-803 64.95,-803"/>
<polygon fill="black" stroke="black" points="64.95,-806.5 74.95,-803 64.95,-799.5 64.95,-806.5"/>
<text text-anchor="middle" x="84" y="-842.8" font-family="Times,serif" font-size="14.00">0</text>
</g>
<!-- 2 -->
<g id="node3" class="node">
<title>2</title>
<g id="a_node3"><a xlink:title="source span: [42:11|42:24]">
<polygon fill="none" stroke="black" points="123,-299 69,-299 69,-263 123,-263 123,-299"/>
<text text-anchor="middle" x="96" y="-277.3" font-family="Times,serif" font-size="14.00">Add</text>
</a>
</g>
</g>
<!-- 8 -->
<g id="node9" class="node">
<title>8</title>
<g id="a_node9"><a xlink:title="source span: [46:11|46:24]">
<polygon fill="none" stroke="black" points="70,-212 16,-212 16,-176 70,-176 70,-212"/>
<text text-anchor="middle" x="43" y="-190.3" font-family="Times,serif" font-size="14.00">Add</text>
</a>
</g>
</g>
<!-- 2&#45;&gt;8 -->
<g id="edge5" class="edge">
<title>2&#45;&gt;8</title>
<path fill="none" stroke="black" d="M79,-262.97C79,-237.49 79,-194 79,-194 79,-194 78.13,-194 78.13,-194"/>
<polygon fill="black" stroke="black" points="80.29,-190.5 70.29,-194 80.29,-197.5 80.29,-190.5"/>
<text text-anchor="middle" x="86" y="-233.8" font-family="Times,serif" font-size="14.00">0</text>
</g>
<!-- 3 -->
<g id="node4" class="node">
<title>3</title>
<g id="a_node4"><a xlink:title="source span: [38:11|38:24]">
<polygon fill="none" stroke="black" points="70,-386 16,-386 16,-350 70,-350 70,-386"/>
<text text-anchor="middle" x="43" y="-364.3" font-family="Times,serif" font-size="14.00">Add</text>
</a>
</g>
</g>
<!-- 3&#45;&gt;2 -->
<g id="edge6" class="edge">
<title>3&#45;&gt;2</title>
<path fill="none" stroke="black" d="M51.33,-349.97C51.33,-324.49 51.33,-281 51.33,-281 51.33,-281 58.99,-281 58.99,-281"/>
<polygon fill="black" stroke="black" points="58.99,-284.5 68.99,-281 58.99,-277.5 58.99,-284.5"/>
<text text-anchor="middle" x="84" y="-320.8" font-family="Times,serif" font-size="14.00">0</text>
</g>
<!-- 3&#45;&gt;8 -->
<g id="edge26" class="edge">
<title>3&#45;&gt;8</title>
<path fill="none" stroke="black" d="M33.67,-349.71C33.67,-349.71 33.67,-222.05 33.67,-222.05"/>
<polygon fill="black" stroke="black" points="37.17,-222.05 33.67,-212.05 30.17,-222.05 37.17,-222.05"/>
<text text-anchor="middle" x="46" y="-277.3" font-family="Times,serif" font-size="14.00">1</text>
</g>
<!-- 4 -->
<g id="node5" class="node">
<title>4</title>
<g id="a_node5"><a xlink:title="source span: [26:11|26:24]">
<polygon fill="none" stroke="black" points="129,-647 75,-647 75,-611 129,-611 129,-647"/>
<text text-anchor="middle" x="102" y="-625.3" font-family="Times,serif" font-size="14.00">Add</text>
</a>
</g>
</g>
<!-- 6 -->
<g id="node7" class="node">
<title>6</title>
<g id="a_node7"><a xlink:title="source span: [34:11|34:24]">
<polygon fill="none" stroke="black" points="129,-473 75,-473 75,-437 129,-437 129,-473"/>
<text text-anchor="middle" x="102" y="-451.3" font-family="Times,serif" font-size="14.00">Add</text>
</a>
</g>
</g>
<!-- 4&#45;&gt;6 -->
<g id="edge23" class="edge">
<title>4&#45;&gt;6</title>
<path fill="none" stroke="black" d="M111,-610.71C111,-610.71 111,-483.05 111,-483.05"/>
<polygon fill="black" stroke="black" points="114.5,-483.05 111,-473.05 107.5,-483.05 114.5,-483.05"/>
<text text-anchor="middle" x="111" y="-538.3" font-family="Times,serif" font-size="14.00">1</text>
</g>
<!-- 9 -->
<g id="node10" class="node">
<title>9</title>
<g id="a_node10"><a xlink:title="source span: [30:11|30:24]">
<polygon fill="none" stroke="black" points="70,-560 16,-560 16,-524 70,-524 70,-560"/>
<text text-anchor="middle" x="43" y="-538.3" font-family="Times,serif" font-size="14.00">Add</text>
</a>
</g>
</g>
<!-- 4&#45;&gt;9 -->
<g id="edge9" class="edge">
<title>4&#45;&gt;9</title>
<path fill="none" stroke="black" d="M93,-610.97C93,-585.49 93,-542 93,-542 93,-542 80.05,-542 80.05,-542"/>
<polygon fill="black" stroke="black" points="80.05,-538.5 70.05,-542 80.05,-545.5 80.05,-538.5"/>
<text text-anchor="middle" x="84" y="-581.8" font-family="Times,serif" font-size="14.00">0</text>
</g>
<!-- 5&#45;&gt;4 -->
<g id="edge10" class="edge">
<title>5&#45;&gt;4</title>
<path fill="none" stroke="black" d="M52,-697.97C52,-672.49 52,-629 52,-629 52,-629 64.95,-629 64.95,-629"/>
<polygon fill="black" stroke="black" points="64.95,-632.5 74.95,-629 64.95,-625.5 64.95,-632.5"/>
<text text-anchor="middle" x="84" y="-668.8" font-family="Times,serif" font-size="14.00">0</text>
</g>
<!-- 5&#45;&gt;9 -->
<g id="edge22" class="edge">
<title>5&#45;&gt;9</title>
<path fill="none" stroke="black" d="M34,-697.71C34,-697.71 34,-570.05 34,-570.05"/>
<polygon fill="black" stroke="black" points="37.5,-570.05 34,-560.05 30.5,-570.05 37.5,-570.05"/>
<text text-anchor="middle" x="48" y="-625.3" font-family="Times,serif" font-size="14.00">1</text>
</g>
<!-- 6&#45;&gt;2 -->
<g id="edge25" class="edge">
<title>6&#45;&gt;2</title>
<path fill="none" stroke="black" d="M107,-436.71C107,-436.71 107,-309.05 107,-309.05"/>
<polygon fill="black" stroke="black" points="110.5,-309.05 107,-299.05 103.5,-309.05 110.5,-309.05"/>
<text text-anchor="middle" x="111" y="-364.3" font-family="Times,serif" font-size="14.00">1</text>
</g>
<!-- 6&#45;&gt;3 -->
<g id="edge7" class="edge">
<title>6&#45;&gt;3</title>
<path fill="none" stroke="black" d="M91,-436.97C91,-411.49 91,-368 91,-368 91,-368 80.09,-368 80.09,-368"/>
<polygon fill="black" stroke="black" points="80.09,-364.5 70.09,-368 80.09,-371.5 80.09,-364.5"/>
<text text-anchor="middle" x="84" y="-407.8" font-family="Times,serif" font-size="14.00">0</text>
</g>
<!-- 7&#45;&gt;4 -->
<g id="edge21" class="edge">
<title>7&#45;&gt;4</title>
<path fill="none" stroke="black" d="M111,-784.71C111,-784.71 111,-657.05 111,-657.05"/>
<polygon fill="black" stroke="black" points="114.5,-657.05 111,-647.05 107.5,-657.05 114.5,-657.05"/>
<text text-anchor="middle" x="111" y="-712.3" font-family="Times,serif" font-size="14.00">1</text>
</g>
<!-- 7&#45;&gt;5 -->
<g id="edge11" class="edge">
<title>7&#45;&gt;5</title>
<path fill="none" stroke="black" d="M93,-784.97C93,-759.49 93,-716 93,-716 93,-716 80.05,-716 80.05,-716"/>
<polygon fill="black" stroke="black" points="80.05,-712.5 70.05,-716 80.05,-719.5 80.05,-712.5"/>
<text text-anchor="middle" x="83" y="-755.8" font-family="Times,serif" font-size="14.00">0</text>
</g>
<!-- 10 -->
<g id="node11" class="node">
<title>10</title>
<g id="a_node11"><a xlink:title="source span: [50:4|50:14]">
<polygon fill="none" stroke="black" points="117,-125 51,-125 51,-89 117,-89 117,-125"/>
<text text-anchor="middle" x="84" y="-103.3" font-family="Times,serif" font-size="14.00">Return</text>
</a>
</g>
</g>
<!-- 8&#45;&gt;10 -->
<g id="edge4" class="edge">
<title>8&#45;&gt;10</title>
<path fill="none" stroke="black" d="M60.5,-175.97C60.5,-175.97 60.5,-135 60.5,-135"/>
<polygon fill="black" stroke="black" points="64,-135 60.5,-125 57,-135 64,-135"/>
<text text-anchor="middle" x="68" y="-146.8" font-family="Times,serif" font-size="14.00">1</text>
</g>
<!-- 9&#45;&gt;3 -->
<g id="edge24" class="edge">
<title>9&#45;&gt;3</title>
<path fill="none" stroke="black" d="M34,-523.71C34,-523.71 34,-396.05 34,-396.05"/>
<polygon fill="black" stroke="black" points="37.5,-396.05 34,-386.05 30.5,-396.05 37.5,-396.05"/>
<text text-anchor="middle" x="48" y="-451.3" font-family="Times,serif" font-size="14.00">1</text>
</g>
<!-- 9&#45;&gt;6 -->
<g id="edge8" class="edge">
<title>9&#45;&gt;6</title>
<path fill="none" stroke="black" d="M52,-523.97C52,-498.49 52,-455 52,-455 52,-455 64.95,-455 64.95,-455"/>
<polygon fill="black" stroke="black" points="64.95,-458.5 74.95,-455 64.95,-451.5 64.95,-458.5"/>
<text text-anchor="middle" x="84" y="-494.8" font-family="Times,serif" font-size="14.00">0</text>
</g>
<!-- c_16 -->
<!-- 10&#45;&gt;c_16 -->
<g id="edge1" class="edge">
<title>10&#45;&gt;c_16</title>
<path fill="none" stroke="black" d="M84,-88.69C84,-88.69 84,-73.63 84,-58.39"/>
<polygon fill="black" stroke="black" points="87.5,-58 84,-48 80.5,-58 87.5,-58"/>
<text text-anchor="middle" x="89" y="-59.8" font-family="Times,serif" font-size="14.00">0</text>
</g>
<!-- 11 -->
<g id="node12" class="node">
<title>11</title>
<g id="a_node12"><a xlink:title="source span: [6:11|6:24]">
<polygon fill="none" stroke="black" points="70,-1082 16,-1082 16,-1046 70,-1046 70,-1082"/>
<text text-anchor="middle" x="43" y="-1060.3" font-family="Times,serif" font-size="14.00">Add</text>
</a>
</g>
</g>
<!-- 11&#45;&gt;1 -->
<g id="edge18" class="edge">
<title>11&#45;&gt;1</title>
<path fill="none" stroke="black" d="M43,-1045.71C43,-1045.71 43,-918.05 43,-918.05"/>
<polygon fill="black" stroke="black" points="46.5,-918.05 43,-908.05 39.5,-918.05 46.5,-918.05"/>
<text text-anchor="middle" x="48" y="-973.3" font-family="Times,serif" font-size="14.00">1</text>
</g>
<!-- 15 -->
<g id="node16" class="node">
<title>15</title>
<g id="a_node16"><a xlink:title="source span: [10:11|10:24]">
<polygon fill="none" stroke="black" points="129,-995 75,-995 75,-959 129,-959 129,-995"/>
<text text-anchor="middle" x="102" y="-973.3" font-family="Times,serif" font-size="14.00">Add</text>
</a>
</g>
</g>
<!-- 11&#45;&gt;15 -->
<g id="edge14" class="edge">
<title>11&#45;&gt;15</title>
<path fill="none" stroke="black" d="M70.26,-1064C81.67,-1064 92.33,-1064 92.33,-1064 92.33,-1064 92.33,-1005.03 92.33,-1005.03"/>
<polygon fill="black" stroke="black" points="95.83,-1005.03 92.33,-995.03 88.83,-1005.03 95.83,-1005.03"/>
<text text-anchor="middle" x="84" y="-1016.8" font-family="Times,serif" font-size="14.00">0</text>
</g>
<!-- 12 -->
<g id="node13" class="node">
<title>12</title>
<g id="a_node13"><a xlink:title="source span: [0:0|51:1]">
<polygon fill="none" stroke="black" points="195,-299 141,-299 141,-263 195,-263 195,-299"/>
<text text-anchor="middle" x="168" y="-277.3" font-family="Times,serif" font-size="14.00">Start</text>
</a>
</g>
</g>
<!-- 13 -->
<g id="node14" class="node">
<title>13</title>
<g id="a_node14"><a xlink:title="source span: [0:0|51:1]">
<polygon fill="none" stroke="black" points="242,-212 88,-212 88,-176 242,-176 242,-212"/>
<text text-anchor="middle" x="165" y="-190.3" font-family="Times,serif" font-size="14.00">Proj SIDE_EFFECT</text>
</a>
</g>
</g>
<!-- 12&#45;&gt;13 -->
<g id="edge3" class="edge">
<title>12&#45;&gt;13</title>
<path fill="none" stroke="black" d="M168,-262.97C168,-262.97 168,-222 168,-222"/>
<polygon fill="black" stroke="black" points="171.5,-222 168,-212 164.5,-222 171.5,-222"/>
<text text-anchor="middle" x="171" y="-233.8" font-family="Times,serif" font-size="14.00">0</text>
</g>
<!-- 13&#45;&gt;10 -->
<g id="edge2" class="edge">
<title>13&#45;&gt;10</title>
<path fill="none" stroke="black" d="M102.5,-175.97C102.5,-175.97 102.5,-135 102.5,-135"/>
<polygon fill="black" stroke="black" points="106,-135 102.5,-125 99,-135 106,-135"/>
<text text-anchor="middle" x="145" y="-146.8" font-family="Times,serif" font-size="14.00">0</text>
</g>
<!-- 14 -->
<g id="node15" class="node">
<title>14</title>
<g id="a_node15"><a xlink:title="source span: [2:18|2:19]">
<polygon fill="none" stroke="black" points="127,-1169 25,-1169 25,-1133 127,-1133 127,-1169"/>
<text text-anchor="middle" x="76" y="-1147.3" font-family="Times,serif" font-size="14.00">ConstInt [1]</text>
</a>
</g>
</g>
<!-- 14&#45;&gt;11 -->
<g id="edge15" class="edge">
<title>14&#45;&gt;11</title>
<path fill="none" stroke="black" d="M40,-1132.97C40,-1132.97 40,-1092 40,-1092"/>
<polygon fill="black" stroke="black" points="43.5,-1092 40,-1082 36.5,-1092 43.5,-1092"/>
<text text-anchor="middle" x="48" y="-1103.8" font-family="Times,serif" font-size="14.00">0</text>
</g>
<!-- 14&#45;&gt;11 -->
<g id="edge16" class="edge">
<title>14&#45;&gt;11</title>
<path fill="none" stroke="black" d="M55,-1132.97C55,-1132.97 55,-1092 55,-1092"/>
<polygon fill="black" stroke="black" points="58.5,-1092 55,-1082 51.5,-1092 58.5,-1092"/>
<text text-anchor="middle" x="81" y="-1103.8" font-family="Times,serif" font-size="14.00">1</text>
</g>
<!-- 14&#45;&gt;15 -->
<g id="edge17" class="edge">
<title>14&#45;&gt;15</title>
<path fill="none" stroke="black" d="M109.67,-1132.71C109.67,-1132.71 109.67,-1005.05 109.67,-1005.05"/>
<polygon fill="black" stroke="black" points="113.17,-1005.05 109.67,-995.05 106.17,-1005.05 113.17,-1005.05"/>
<text text-anchor="middle" x="111" y="-1060.3" font-family="Times,serif" font-size="14.00">1</text>
</g>
<!-- 15&#45;&gt;1 -->
<g id="edge13" class="edge">
<title>15&#45;&gt;1</title>
<path fill="none" stroke="black" d="M93,-958.97C93,-933.49 93,-890 93,-890 93,-890 80.05,-890 80.05,-890"/>
<polygon fill="black" stroke="black" points="80.05,-886.5 70.05,-890 80.05,-893.5 80.05,-886.5"/>
<text text-anchor="middle" x="84" y="-929.8" font-family="Times,serif" font-size="14.00">0</text>
</g>
<!-- 15&#45;&gt;7 -->
<g id="edge19" class="edge">
<title>15&#45;&gt;7</title>
<path fill="none" stroke="black" d="M111,-958.71C111,-958.71 111,-831.05 111,-831.05"/>
<polygon fill="black" stroke="black" points="114.5,-831.05 111,-821.05 107.5,-831.05 114.5,-831.05"/>
<text text-anchor="middle" x="111" y="-886.3" font-family="Times,serif" font-size="14.00">1</text>
</g>
</g>
</svg>
