<?xml version="1.0" encoding="UTF-8" standalone="no"?>
<!DOCTYPE svg PUBLIC "-//W3C//DTD SVG 1.1//EN"
 "http://www.w3.org/Graphics/SVG/1.1/DTD/svg11.dtd">
<!-- Generated by graphviz version 2.43.0 (0)
 -->
<!-- Title: main Pages: 1 -->
<svg width="314pt" height="323pt"
 viewBox="0.00 0.00 314.00 323.00" xmlns="http://www.w3.org/2000/svg" xmlns:xlink="http://www.w3.org/1999/xlink">
<g id="graph0" class="graph" transform="scale(1 1) rotate(0) translate(4 319)">
<title>main</title>
<polygon fill="white" stroke="transparent" points="-4,4 -4,-319 310,-319 310,4 -4,4"/>
<g id="clust1" class="cluster">
<title>cluster_0</title>
<polygon fill="none" stroke="black" points="8,-81 8,-307 298,-307 298,-81 8,-81"/>
</g>
<g id="clust2" class="cluster">
<title>cluster_5</title>
<polygon fill="none" stroke="black" points="115,-8 115,-48 160,-48 160,-8 115,-8"/>
<text text-anchor="middle" x="137.5" y="-32.8" font-family="Times,serif" font-size="14.00">End</text>
</g>
<!-- c_0 -->
<!-- 1 -->
<g id="node2" class="node">
<title>1</title>
<g id="a_node2"><a xlink:title="source span: [4:4|4:12]">
<polygon fill="none" stroke="black" points="170,-125 104,-125 104,-89 170,-89 170,-125"/>
<text text-anchor="middle" x="137" y="-103.3" font-family="Times,serif" font-size="14.00">Return</text>
</a>
</g>
</g>
<!-- c_5 -->
<!-- 1&#45;&gt;c_5 -->
<g id="edge1" class="edge">
<title>1&#45;&gt;c_5</title>
<path fill="none" stroke="black" d="M137,-88.69C137,-88.69 137,-73.63 137,-58.39"/>
<polygon fill="black" stroke="black" points="140.5,-58 137,-48 133.5,-58 140.5,-58"/>
<text text-anchor="middle" x="142" y="-59.8" font-family="Times,serif" font-size="14.00">0</text>
</g>
<!-- 2 -->
<g id="node3" class="node">
<title>2</title>
<g id="a_node3"><a xlink:title="source span: [4:11|4:12]">
<polygon fill="none" stroke="black" points="290,-212 188,-212 188,-176 290,-176 290,-212"/>
<text text-anchor="middle" x="239" y="-190.3" font-family="Times,serif" font-size="14.00">ConstInt [2]</text>
</a>
</g>
</g>
<!-- 2&#45;&gt;1 -->
<g id="edge4" class="edge">
<title>2&#45;&gt;1</title>
<path fill="none" stroke="black" d="M239,-175.97C239,-150.49 239,-107 239,-107 239,-107 180.12,-107 180.12,-107"/>
<polygon fill="black" stroke="black" points="180.12,-103.5 170.12,-107 180.12,-110.5 180.12,-103.5"/>
<text text-anchor="middle" x="215" y="-146.8" font-family="Times,serif" font-size="14.00">1</text>
</g>
<!-- 3 -->
<g id="node4" class="node">
<title>3</title>
<g id="a_node4"><a xlink:title="source span: [0:0|6:1]">
<polygon fill="none" stroke="black" points="120,-299 66,-299 66,-263 120,-263 120,-299"/>
<text text-anchor="middle" x="93" y="-277.3" font-family="Times,serif" font-size="14.00">Start</text>
</a>
</g>
</g>
<!-- 4 -->
<g id="node5" class="node">
<title>4</title>
<g id="a_node5"><a xlink:title="source span: [0:0|6:1]">
<polygon fill="none" stroke="black" points="170,-212 16,-212 16,-176 170,-176 170,-212"/>
<text text-anchor="middle" x="93" y="-190.3" font-family="Times,serif" font-size="14.00">Proj SIDE_EFFECT</text>
</a>
</g>
</g>
<!-- 3&#45;&gt;4 -->
<g id="edge3" class="edge">
<title>3&#45;&gt;4</title>
<path fill="none" stroke="black" d="M93,-262.97C93,-262.97 93,-222 93,-222"/>
<polygon fill="black" stroke="black" points="96.5,-222 93,-212 89.5,-222 96.5,-222"/>
<text text-anchor="middle" x="98" y="-233.8" font-family="Times,serif" font-size="14.00">0</text>
</g>
<!-- 4&#45;&gt;1 -->
<g id="edge2" class="edge">
<title>4&#45;&gt;1</title>
<path fill="none" stroke="black" d="M137,-175.97C137,-175.97 137,-135 137,-135"/>
<polygon fill="black" stroke="black" points="140.5,-135 137,-125 133.5,-135 140.5,-135"/>
<text text-anchor="middle" x="126" y="-146.8" font-family="Times,serif" font-size="14.00">0</text>
</g>
</g>
</svg>
