<?xml version="1.0" encoding="UTF-8" standalone="no"?>
<!DOCTYPE svg PUBLIC "-//W3C//DTD SVG 1.1//EN"
 "http://www.w3.org/Graphics/SVG/1.1/DTD/svg11.dtd">
<!-- Generated by graphviz version 2.43.0 (0)
 -->
<!-- Title: main Pages: 1 -->
<svg width="616pt" height="1388pt"
 viewBox="0.00 0.00 616.00 1388.00" xmlns="http://www.w3.org/2000/svg" xmlns:xlink="http://www.w3.org/1999/xlink">
<g id="graph0" class="graph" transform="scale(1 1) rotate(0) translate(4 1384)">
<title>main</title>
<polygon fill="white" stroke="transparent" points="-4,4 -4,-1384 612,-1384 612,4 -4,4"/>
<g id="clust1" class="cluster">
<title>cluster_0</title>
<polygon fill="none" stroke="black" points="10,-81 10,-1372 600,-1372 600,-81 10,-81"/>
</g>
<g id="clust2" class="cluster">
<title>cluster_30</title>
<polygon fill="none" stroke="black" points="504,-8 504,-48 549,-48 549,-8 504,-8"/>
<text text-anchor="middle" x="526.5" y="-32.8" font-family="Times,serif" font-size="14.00">End</text>
</g>
<!-- c_0 -->
<!-- 1 -->
<g id="node2" class="node">
<title>1</title>
<g id="a_node2"><a xlink:title="source span: [6:10|6:15]">
<polygon fill="none" stroke="black" points="160,-929 106,-929 106,-893 160,-893 160,-929"/>
<text text-anchor="middle" x="133" y="-907.3" font-family="Times,serif" font-size="14.00">Mod</text>
</a>
</g>
</g>
<!-- 11 -->
<g id="node12" class="node">
<title>11</title>
<g id="a_node12"><a xlink:title="source span: [6:10|6:15]">
<polygon fill="none" stroke="black" points="168,-842 58,-842 58,-806 168,-806 168,-842"/>
<text text-anchor="middle" x="113" y="-820.3" font-family="Times,serif" font-size="14.00">Proj RESULT</text>
</a>
</g>
</g>
<!-- 1&#45;&gt;11 -->
<g id="edge47" class="edge">
<title>1&#45;&gt;11</title>
<path fill="none" stroke="black" d="M133,-892.97C133,-892.97 133,-852 133,-852"/>
<polygon fill="black" stroke="black" points="136.5,-852 133,-842 129.5,-852 136.5,-852"/>
<text text-anchor="middle" x="128" y="-863.8" font-family="Times,serif" font-size="14.00">0</text>
</g>
<!-- 20 -->
<g id="node21" class="node">
<title>20</title>
<g id="a_node21"><a xlink:title="source span: [6:10|6:15]">
<polygon fill="none" stroke="black" points="340,-842 186,-842 186,-806 340,-806 340,-842"/>
<text text-anchor="middle" x="263" y="-820.3" font-family="Times,serif" font-size="14.00">Proj SIDE_EFFECT</text>
</a>
</g>
</g>
<!-- 1&#45;&gt;20 -->
<g id="edge20" class="edge">
<title>1&#45;&gt;20</title>
<path fill="none" stroke="black" d="M160.3,-902C196.53,-902 256,-902 256,-902 256,-902 256,-852.09 256,-852.09"/>
<polygon fill="black" stroke="black" points="259.5,-852.09 256,-842.09 252.5,-852.09 259.5,-852.09"/>
<text text-anchor="middle" x="215" y="-863.8" font-family="Times,serif" font-size="14.00">0</text>
</g>
<!-- 2 -->
<g id="node3" class="node">
<title>2</title>
<g id="a_node3"><a xlink:title="source span: [13:15|13:24]">
<polygon fill="none" stroke="black" points="458,-494 404,-494 404,-458 458,-458 458,-494"/>
<text text-anchor="middle" x="431" y="-472.3" font-family="Times,serif" font-size="14.00">Add</text>
</a>
</g>
</g>
<!-- 24 -->
<g id="node25" class="node">
<title>24</title>
<g id="a_node25"><a xlink:title="source span: [13:15|13:28]">
<polygon fill="none" stroke="black" points="412,-386 358,-386 358,-350 412,-350 412,-386"/>
<text text-anchor="middle" x="385" y="-364.3" font-family="Times,serif" font-size="14.00">Add</text>
</a>
</g>
</g>
<!-- 2&#45;&gt;24 -->
<g id="edge28" class="edge">
<title>2&#45;&gt;24</title>
<path fill="none" stroke="black" d="M403.79,-476C397.7,-476 393,-476 393,-476 393,-476 393,-396.32 393,-396.32"/>
<polygon fill="black" stroke="black" points="396.5,-396.32 393,-386.32 389.5,-396.32 396.5,-396.32"/>
<text text-anchor="middle" x="390" y="-418.3" font-family="Times,serif" font-size="14.00">0</text>
</g>
<!-- 3 -->
<g id="node4" class="node">
<title>3</title>
<g id="a_node4"><a xlink:title="source span: [4:10|4:15]">
<polygon fill="none" stroke="black" points="454,-1016 344,-1016 344,-980 454,-980 454,-1016"/>
<text text-anchor="middle" x="399" y="-994.3" font-family="Times,serif" font-size="14.00">Proj RESULT</text>
</a>
</g>
</g>
<!-- 5 -->
<g id="node6" class="node">
<title>5</title>
<g id="a_node6"><a xlink:title="source span: [5:10|5:15]">
<polygon fill="none" stroke="black" points="572,-929 518,-929 518,-893 572,-893 572,-929"/>
<text text-anchor="middle" x="545" y="-907.3" font-family="Times,serif" font-size="14.00">Add</text>
</a>
</g>
</g>
<!-- 3&#45;&gt;5 -->
<g id="edge43" class="edge">
<title>3&#45;&gt;5</title>
<path fill="none" stroke="black" d="M428.67,-979.91C428.67,-956.87 428.67,-920 428.67,-920 428.67,-920 507.73,-920 507.73,-920"/>
<polygon fill="black" stroke="black" points="507.73,-923.5 517.73,-920 507.72,-916.5 507.73,-923.5"/>
<text text-anchor="middle" x="539" y="-950.8" font-family="Times,serif" font-size="14.00">1</text>
</g>
<!-- 15 -->
<g id="node16" class="node">
<title>15</title>
<g id="a_node16"><a xlink:title="source span: [11:2|11:8]">
<polygon fill="none" stroke="black" points="487,-581 433,-581 433,-545 487,-545 487,-581"/>
<text text-anchor="middle" x="460" y="-559.3" font-family="Times,serif" font-size="14.00">Mod</text>
</a>
</g>
</g>
<!-- 3&#45;&gt;15 -->
<g id="edge4" class="edge">
<title>3&#45;&gt;15</title>
<path fill="none" stroke="black" d="M403.33,-979.81C403.33,-964.82 403.33,-946 403.33,-946 403.33,-946 483.5,-946 483.5,-946 483.5,-946 483.5,-591.22 483.5,-591.22"/>
<polygon fill="black" stroke="black" points="487,-591.22 483.5,-581.22 480,-591.22 487,-591.22"/>
<text text-anchor="middle" x="497" y="-776.8" font-family="Times,serif" font-size="14.00">0</text>
</g>
<!-- 4 -->
<g id="node5" class="node">
<title>4</title>
<g id="a_node5"><a xlink:title="source span: [4:10|4:15]">
<polygon fill="none" stroke="black" points="326,-1016 172,-1016 172,-980 326,-980 326,-1016"/>
<text text-anchor="middle" x="249" y="-994.3" font-family="Times,serif" font-size="14.00">Proj SIDE_EFFECT</text>
</a>
</g>
</g>
<!-- 4&#45;&gt;1 -->
<g id="edge23" class="edge">
<title>4&#45;&gt;1</title>
<path fill="none" stroke="black" d="M179,-979.97C179,-954.49 179,-911 179,-911 179,-911 170.02,-911 170.02,-911"/>
<polygon fill="black" stroke="black" points="170.02,-907.5 160.02,-911 170.02,-914.5 170.02,-907.5"/>
<text text-anchor="middle" x="208" y="-950.8" font-family="Times,serif" font-size="14.00">2</text>
</g>
<!-- 26 -->
<g id="node27" class="node">
<title>26</title>
<g id="a_node27"><a xlink:title="source span: [7:2|7:8]">
<polygon fill="none" stroke="black" points="592,-842 538,-842 538,-806 592,-806 592,-842"/>
<text text-anchor="middle" x="565" y="-820.3" font-family="Times,serif" font-size="14.00">Add</text>
</a>
</g>
</g>
<!-- 5&#45;&gt;26 -->
<g id="edge41" class="edge">
<title>5&#45;&gt;26</title>
<path fill="none" stroke="black" d="M555,-892.97C555,-892.97 555,-852 555,-852"/>
<polygon fill="black" stroke="black" points="558.5,-852 555,-842 551.5,-852 558.5,-852"/>
<text text-anchor="middle" x="560" y="-863.8" font-family="Times,serif" font-size="14.00">0</text>
</g>
<!-- 6 -->
<g id="node7" class="node">
<title>6</title>
<g id="a_node7"><a xlink:title="source span: [13:15|13:20]">
<polygon fill="none" stroke="black" points="241,-581 187,-581 187,-545 241,-545 241,-581"/>
<text text-anchor="middle" x="214" y="-559.3" font-family="Times,serif" font-size="14.00">Add</text>
</a>
</g>
</g>
<!-- 6&#45;&gt;2 -->
<g id="edge29" class="edge">
<title>6&#45;&gt;2</title>
<path fill="none" stroke="black" d="M241.16,-569C296.78,-569 418.5,-569 418.5,-569 418.5,-569 418.5,-504.37 418.5,-504.37"/>
<polygon fill="black" stroke="black" points="422,-504.37 418.5,-494.37 415,-504.37 422,-504.37"/>
<text text-anchor="middle" x="403" y="-515.8" font-family="Times,serif" font-size="14.00">0</text>
</g>
<!-- 7 -->
<g id="node8" class="node">
<title>7</title>
<g id="a_node8"><a xlink:title="source span: [4:10|4:15]">
<polygon fill="none" stroke="black" points="304,-1103 250,-1103 250,-1067 304,-1067 304,-1103"/>
<text text-anchor="middle" x="277" y="-1081.3" font-family="Times,serif" font-size="14.00">Div</text>
</a>
</g>
</g>
<!-- 7&#45;&gt;3 -->
<g id="edge5" class="edge">
<title>7&#45;&gt;3</title>
<path fill="none" stroke="black" d="M304.22,-1079C324.61,-1079 349,-1079 349,-1079 349,-1079 349,-1026.38 349,-1026.38"/>
<polygon fill="black" stroke="black" points="352.5,-1026.38 349,-1016.38 345.5,-1026.38 352.5,-1026.38"/>
<text text-anchor="middle" x="391" y="-1037.8" font-family="Times,serif" font-size="14.00">0</text>
</g>
<!-- 7&#45;&gt;4 -->
<g id="edge24" class="edge">
<title>7&#45;&gt;4</title>
<path fill="none" stroke="black" d="M277,-1066.97C277,-1066.97 277,-1026 277,-1026"/>
<polygon fill="black" stroke="black" points="280.5,-1026 277,-1016 273.5,-1026 280.5,-1026"/>
<text text-anchor="middle" x="268" y="-1037.8" font-family="Times,serif" font-size="14.00">0</text>
</g>
<!-- 8 -->
<g id="node9" class="node">
<title>8</title>
<g id="a_node9"><a xlink:title="source span: [3:10|3:15]">
<polygon fill="none" stroke="black" points="447,-1103 393,-1103 393,-1067 447,-1067 447,-1103"/>
<text text-anchor="middle" x="420" y="-1081.3" font-family="Times,serif" font-size="14.00">Sub</text>
</a>
</g>
</g>
<!-- 8&#45;&gt;5 -->
<g id="edge42" class="edge">
<title>8&#45;&gt;5</title>
<path fill="none" stroke="black" d="M447.04,-1091C484.87,-1091 549,-1091 549,-1091 549,-1091 549,-939.25 549,-939.25"/>
<polygon fill="black" stroke="black" points="552.5,-939.25 549,-929.25 545.5,-939.25 552.5,-939.25"/>
<text text-anchor="middle" x="567" y="-994.3" font-family="Times,serif" font-size="14.00">0</text>
</g>
<!-- 19 -->
<g id="node20" class="node">
<title>19</title>
<g id="a_node20"><a xlink:title="source span: [10:2|10:8]">
<polygon fill="none" stroke="black" points="526,-1016 472,-1016 472,-980 526,-980 526,-1016"/>
<text text-anchor="middle" x="499" y="-994.3" font-family="Times,serif" font-size="14.00">Sub</text>
</a>
</g>
</g>
<!-- 8&#45;&gt;19 -->
<g id="edge34" class="edge">
<title>8&#45;&gt;19</title>
<path fill="none" stroke="black" d="M447.26,-1079C466.92,-1079 490,-1079 490,-1079 490,-1079 490,-1026.38 490,-1026.38"/>
<polygon fill="black" stroke="black" points="493.5,-1026.38 490,-1016.38 486.5,-1026.38 493.5,-1026.38"/>
<text text-anchor="middle" x="432" y="-1037.8" font-family="Times,serif" font-size="14.00">0</text>
</g>
<!-- 9 -->
<g id="node10" class="node">
<title>9</title>
<g id="a_node10"><a xlink:title="source span: [8:7|8:8]">
<polygon fill="none" stroke="black" points="480,-842 378,-842 378,-806 480,-806 480,-842"/>
<text text-anchor="middle" x="429" y="-820.3" font-family="Times,serif" font-size="14.00">ConstInt [2]</text>
</a>
</g>
</g>
<!-- 9&#45;&gt;15 -->
<g id="edge14" class="edge">
<title>9&#45;&gt;15</title>
<path fill="none" stroke="black" d="M460.5,-805.65C460.5,-805.65 460.5,-591.33 460.5,-591.33"/>
<polygon fill="black" stroke="black" points="464,-591.33 460.5,-581.33 457,-591.33 464,-591.33"/>
<text text-anchor="middle" x="465" y="-689.8" font-family="Times,serif" font-size="14.00">1</text>
</g>
<!-- 17 -->
<g id="node18" class="node">
<title>17</title>
<g id="a_node18"><a xlink:title="source span: [8:2|8:8]">
<polygon fill="none" stroke="black" points="386,-755 332,-755 332,-719 386,-719 386,-755"/>
<text text-anchor="middle" x="359" y="-733.3" font-family="Times,serif" font-size="14.00">Div</text>
</a>
</g>
</g>
<!-- 9&#45;&gt;17 -->
<g id="edge18" class="edge">
<title>9&#45;&gt;17</title>
<path fill="none" stroke="black" d="M382,-805.97C382,-805.97 382,-765 382,-765"/>
<polygon fill="black" stroke="black" points="385.5,-765 382,-755 378.5,-765 385.5,-765"/>
<text text-anchor="middle" x="411" y="-776.8" font-family="Times,serif" font-size="14.00">1</text>
</g>
<!-- 10 -->
<g id="node11" class="node">
<title>10</title>
<g id="a_node11"><a xlink:title="source span: [8:2|8:8]">
<polygon fill="none" stroke="black" points="269,-668 159,-668 159,-632 269,-632 269,-668"/>
<text text-anchor="middle" x="214" y="-646.3" font-family="Times,serif" font-size="14.00">Proj RESULT</text>
</a>
</g>
</g>
<!-- 10&#45;&gt;6 -->
<g id="edge31" class="edge">
<title>10&#45;&gt;6</title>
<path fill="none" stroke="black" d="M214,-631.97C214,-631.97 214,-591 214,-591"/>
<polygon fill="black" stroke="black" points="217.5,-591 214,-581 210.5,-591 217.5,-591"/>
<text text-anchor="middle" x="219" y="-602.8" font-family="Times,serif" font-size="14.00">1</text>
</g>
<!-- 22 -->
<g id="node23" class="node">
<title>22</title>
<g id="a_node23"><a xlink:title="source span: [9:2|9:8]">
<polygon fill="none" stroke="black" points="72,-755 18,-755 18,-719 72,-719 72,-755"/>
<text text-anchor="middle" x="45" y="-733.3" font-family="Times,serif" font-size="14.00">Mul</text>
</a>
</g>
</g>
<!-- 11&#45;&gt;22 -->
<g id="edge46" class="edge">
<title>11&#45;&gt;22</title>
<path fill="none" stroke="black" d="M65,-805.97C65,-805.97 65,-765 65,-765"/>
<polygon fill="black" stroke="black" points="68.5,-765 65,-755 61.5,-765 68.5,-765"/>
<text text-anchor="middle" x="57" y="-776.8" font-family="Times,serif" font-size="14.00">0</text>
</g>
<!-- 12 -->
<g id="node13" class="node">
<title>12</title>
<g id="a_node13"><a xlink:title="source span: [15:2|15:15]">
<polygon fill="none" stroke="black" points="559,-125 493,-125 493,-89 559,-89 559,-125"/>
<text text-anchor="middle" x="526" y="-103.3" font-family="Times,serif" font-size="14.00">Return</text>
</a>
</g>
</g>
<!-- c_30 -->
<!-- 12&#45;&gt;c_30 -->
<g id="edge1" class="edge">
<title>12&#45;&gt;c_30</title>
<path fill="none" stroke="black" d="M526,-88.69C526,-88.69 526,-73.63 526,-58.39"/>
<polygon fill="black" stroke="black" points="529.5,-58 526,-48 522.5,-58 529.5,-58"/>
<text text-anchor="middle" x="531" y="-59.8" font-family="Times,serif" font-size="14.00">0</text>
</g>
<!-- 13 -->
<g id="node14" class="node">
<title>13</title>
<g id="a_node14"><a xlink:title="source span: [11:2|11:8]">
<polygon fill="none" stroke="black" points="554,-440 400,-440 400,-404 554,-404 554,-440"/>
<text text-anchor="middle" x="477" y="-418.3" font-family="Times,serif" font-size="14.00">Proj SIDE_EFFECT</text>
</a>
</g>
</g>
<!-- 13&#45;&gt;12 -->
<g id="edge2" class="edge">
<title>13&#45;&gt;12</title>
<path fill="none" stroke="black" d="M523.5,-403.7C523.5,-403.7 523.5,-135.35 523.5,-135.35"/>
<polygon fill="black" stroke="black" points="527,-135.35 523.5,-125.35 520,-135.35 527,-135.35"/>
<text text-anchor="middle" x="545" y="-277.3" font-family="Times,serif" font-size="14.00">0</text>
</g>
<!-- 14 -->
<g id="node15" class="node">
<title>14</title>
<g id="a_node15"><a xlink:title="source span: [0:0|16:1]">
<polygon fill="none" stroke="black" points="307,-1277 253,-1277 253,-1241 307,-1241 307,-1277"/>
<text text-anchor="middle" x="280" y="-1255.3" font-family="Times,serif" font-size="14.00">Start</text>
</a>
</g>
</g>
<!-- 25 -->
<g id="node26" class="node">
<title>25</title>
<g id="a_node26"><a xlink:title="source span: [0:0|16:1]">
<polygon fill="none" stroke="black" points="354,-1190 200,-1190 200,-1154 354,-1154 354,-1190"/>
<text text-anchor="middle" x="277" y="-1168.3" font-family="Times,serif" font-size="14.00">Proj SIDE_EFFECT</text>
</a>
</g>
</g>
<!-- 14&#45;&gt;25 -->
<g id="edge13" class="edge">
<title>14&#45;&gt;25</title>
<path fill="none" stroke="black" d="M280,-1240.97C280,-1240.97 280,-1200 280,-1200"/>
<polygon fill="black" stroke="black" points="283.5,-1200 280,-1190 276.5,-1200 283.5,-1200"/>
<text text-anchor="middle" x="284" y="-1211.8" font-family="Times,serif" font-size="14.00">0</text>
</g>
<!-- 15&#45;&gt;13 -->
<g id="edge3" class="edge">
<title>15&#45;&gt;13</title>
<path fill="none" stroke="black" d="M472.5,-544.86C472.5,-544.86 472.5,-450.07 472.5,-450.07"/>
<polygon fill="black" stroke="black" points="476,-450.07 472.5,-440.07 469,-450.08 476,-450.07"/>
<text text-anchor="middle" x="482" y="-515.8" font-family="Times,serif" font-size="14.00">0</text>
</g>
<!-- 23 -->
<g id="node24" class="node">
<title>23</title>
<g id="a_node24"><a xlink:title="source span: [11:2|11:8]">
<polygon fill="none" stroke="black" points="386,-494 276,-494 276,-458 386,-458 386,-494"/>
<text text-anchor="middle" x="331" y="-472.3" font-family="Times,serif" font-size="14.00">Proj RESULT</text>
</a>
</g>
</g>
<!-- 15&#45;&gt;23 -->
<g id="edge39" class="edge">
<title>15&#45;&gt;23</title>
<path fill="none" stroke="black" d="M432.9,-557C396.54,-557 336.5,-557 336.5,-557 336.5,-557 336.5,-504.38 336.5,-504.38"/>
<polygon fill="black" stroke="black" points="340,-504.38 336.5,-494.38 333,-504.38 340,-504.38"/>
<text text-anchor="middle" x="353" y="-515.8" font-family="Times,serif" font-size="14.00">0</text>
</g>
<!-- 16 -->
<g id="node17" class="node">
<title>16</title>
<g id="a_node17"><a xlink:title="source span: [2:10|2:15]">
<polygon fill="none" stroke="black" points="235,-1277 181,-1277 181,-1241 235,-1241 235,-1277"/>
<text text-anchor="middle" x="208" y="-1255.3" font-family="Times,serif" font-size="14.00">Mul</text>
</a>
</g>
</g>
<!-- 18 -->
<g id="node19" class="node">
<title>18</title>
<g id="a_node19"><a xlink:title="source span: [2:10|2:19]">
<polygon fill="none" stroke="black" points="182,-1190 128,-1190 128,-1154 182,-1154 182,-1190"/>
<text text-anchor="middle" x="155" y="-1168.3" font-family="Times,serif" font-size="14.00">Add</text>
</a>
</g>
</g>
<!-- 16&#45;&gt;18 -->
<g id="edge7" class="edge">
<title>16&#45;&gt;18</title>
<path fill="none" stroke="black" d="M191,-1240.97C191,-1215.49 191,-1172 191,-1172 191,-1172 190.13,-1172 190.13,-1172"/>
<polygon fill="black" stroke="black" points="192.29,-1168.5 182.29,-1172 192.29,-1175.5 192.29,-1168.5"/>
<text text-anchor="middle" x="198" y="-1211.8" font-family="Times,serif" font-size="14.00">0</text>
</g>
<!-- 17&#45;&gt;10 -->
<g id="edge32" class="edge">
<title>17&#45;&gt;10</title>
<path fill="none" stroke="black" d="M331.75,-737C293.24,-737 227.5,-737 227.5,-737 227.5,-737 227.5,-678.03 227.5,-678.03"/>
<polygon fill="black" stroke="black" points="231,-678.03 227.5,-668.03 224,-678.03 231,-678.03"/>
<text text-anchor="middle" x="276" y="-689.8" font-family="Times,serif" font-size="14.00">0</text>
</g>
<!-- 29 -->
<g id="node30" class="node">
<title>29</title>
<g id="a_node30"><a xlink:title="source span: [8:2|8:8]">
<polygon fill="none" stroke="black" points="441,-668 287,-668 287,-632 441,-632 441,-668"/>
<text text-anchor="middle" x="364" y="-646.3" font-family="Times,serif" font-size="14.00">Proj SIDE_EFFECT</text>
</a>
</g>
</g>
<!-- 17&#45;&gt;29 -->
<g id="edge16" class="edge">
<title>17&#45;&gt;29</title>
<path fill="none" stroke="black" d="M359,-718.97C359,-718.97 359,-678 359,-678"/>
<polygon fill="black" stroke="black" points="362.5,-678 359,-668 355.5,-678 362.5,-678"/>
<text text-anchor="middle" x="366" y="-689.8" font-family="Times,serif" font-size="14.00">0</text>
</g>
<!-- 18&#45;&gt;1 -->
<g id="edge21" class="edge">
<title>18&#45;&gt;1</title>
<path fill="none" stroke="black" d="M144,-1153.65C144,-1153.65 144,-939.33 144,-939.33"/>
<polygon fill="black" stroke="black" points="147.5,-939.33 144,-929.33 140.5,-939.33 147.5,-939.33"/>
<text text-anchor="middle" x="138" y="-1037.8" font-family="Times,serif" font-size="14.00">0</text>
</g>
<!-- 18&#45;&gt;7 -->
<g id="edge6" class="edge">
<title>18&#45;&gt;7</title>
<path fill="none" stroke="black" d="M178.67,-1153.97C178.67,-1128.49 178.67,-1085 178.67,-1085 178.67,-1085 239.87,-1085 239.87,-1085"/>
<polygon fill="black" stroke="black" points="239.87,-1088.5 249.87,-1085 239.87,-1081.5 239.87,-1088.5"/>
<text text-anchor="middle" x="190" y="-1124.8" font-family="Times,serif" font-size="14.00">0</text>
</g>
<!-- 18&#45;&gt;8 -->
<g id="edge35" class="edge">
<title>18&#45;&gt;8</title>
<path fill="none" stroke="black" d="M175.33,-1153.85C175.33,-1141.73 175.33,-1128 175.33,-1128 175.33,-1128 406.33,-1128 406.33,-1128 406.33,-1128 406.33,-1113.49 406.33,-1113.49"/>
<polygon fill="black" stroke="black" points="409.83,-1113.49 406.33,-1103.49 402.83,-1113.49 409.83,-1113.49"/>
<text text-anchor="middle" x="232" y="-1124.8" font-family="Times,serif" font-size="14.00">0</text>
</g>
<!-- 18&#45;&gt;17 -->
<g id="edge17" class="edge">
<title>18&#45;&gt;17</title>
<path fill="none" stroke="black" d="M164,-1153.82C164,-1102.97 164,-963 164,-963 164,-963 361,-963 361,-963 361,-963 361,-765.11 361,-765.11"/>
<polygon fill="black" stroke="black" points="364.5,-765.11 361,-755.11 357.5,-765.11 364.5,-765.11"/>
<text text-anchor="middle" x="302" y="-950.8" font-family="Times,serif" font-size="14.00">0</text>
</g>
<!-- 19&#45;&gt;2 -->
<g id="edge33" class="edge">
<title>19&#45;&gt;2</title>
<path fill="none" stroke="black" d="M502.5,-979.73C502.5,-887.34 502.5,-476 502.5,-476 502.5,-476 468.03,-476 468.03,-476"/>
<polygon fill="black" stroke="black" points="468.03,-472.5 458.03,-476 468.03,-479.5 468.03,-472.5"/>
<text text-anchor="middle" x="524" y="-733.3" font-family="Times,serif" font-size="14.00">1</text>
</g>
<!-- 20&#45;&gt;17 -->
<g id="edge19" class="edge">
<title>20&#45;&gt;17</title>
<path fill="none" stroke="black" d="M336,-805.97C336,-805.97 336,-765 336,-765"/>
<polygon fill="black" stroke="black" points="339.5,-765 336,-755 332.5,-765 339.5,-765"/>
<text text-anchor="middle" x="308" y="-776.8" font-family="Times,serif" font-size="14.00">2</text>
</g>
<!-- 21 -->
<g id="node22" class="node">
<title>21</title>
<g id="a_node22"><a xlink:title="source span: [1:10|1:11]">
<polygon fill="none" stroke="black" points="260,-1364 158,-1364 158,-1328 260,-1328 260,-1364"/>
<text text-anchor="middle" x="209" y="-1342.3" font-family="Times,serif" font-size="14.00">ConstInt [1]</text>
</a>
</g>
</g>
<!-- 21&#45;&gt;1 -->
<g id="edge22" class="edge">
<title>21&#45;&gt;1</title>
<path fill="none" stroke="black" d="M157.89,-1337C136.71,-1337 117,-1337 117,-1337 117,-1337 117,-939.03 117,-939.03"/>
<polygon fill="black" stroke="black" points="120.5,-939.03 117,-929.03 113.5,-939.03 120.5,-939.03"/>
<text text-anchor="middle" x="114" y="-1124.8" font-family="Times,serif" font-size="14.00">1</text>
</g>
<!-- 21&#45;&gt;6 -->
<g id="edge30" class="edge">
<title>21&#45;&gt;6</title>
<path fill="none" stroke="black" d="M157.87,-1355C96,-1355 0,-1355 0,-1355 0,-1355 0,-563 0,-563 0,-563 176.9,-563 176.9,-563"/>
<polygon fill="black" stroke="black" points="176.9,-566.5 186.9,-563 176.9,-559.5 176.9,-566.5"/>
<text text-anchor="middle" x="54" y="-950.8" font-family="Times,serif" font-size="14.00">0</text>
</g>
<!-- 21&#45;&gt;7 -->
<g id="edge11" class="edge">
<title>21&#45;&gt;7</title>
<path fill="none" stroke="black" d="M260.15,-1331C308.44,-1331 373.5,-1331 373.5,-1331 373.5,-1331 373.5,-1091 373.5,-1091 373.5,-1091 314.14,-1091 314.14,-1091"/>
<polygon fill="black" stroke="black" points="314.14,-1087.5 304.14,-1091 314.14,-1094.5 314.14,-1087.5"/>
<text text-anchor="middle" x="378" y="-1211.8" font-family="Times,serif" font-size="14.00">1</text>
</g>
<!-- 21&#45;&gt;8 -->
<g id="edge36" class="edge">
<title>21&#45;&gt;8</title>
<path fill="none" stroke="black" d="M260.27,-1334C322.62,-1334 419.67,-1334 419.67,-1334 419.67,-1334 419.67,-1113.31 419.67,-1113.31"/>
<polygon fill="black" stroke="black" points="423.17,-1113.31 419.67,-1103.31 416.17,-1113.31 423.17,-1113.31"/>
<text text-anchor="middle" x="419" y="-1211.8" font-family="Times,serif" font-size="14.00">1</text>
</g>
<!-- 21&#45;&gt;16 -->
<g id="edge8" class="edge">
<title>21&#45;&gt;16</title>
<path fill="none" stroke="black" d="M199,-1327.97C199,-1327.97 199,-1287 199,-1287"/>
<polygon fill="black" stroke="black" points="202.5,-1287 199,-1277 195.5,-1287 202.5,-1287"/>
<text text-anchor="middle" x="231" y="-1298.8" font-family="Times,serif" font-size="14.00">0</text>
</g>
<!-- 21&#45;&gt;16 -->
<g id="edge9" class="edge">
<title>21&#45;&gt;16</title>
<path fill="none" stroke="black" d="M217,-1327.97C217,-1327.97 217,-1287 217,-1287"/>
<polygon fill="black" stroke="black" points="220.5,-1287 217,-1277 213.5,-1287 220.5,-1287"/>
<text text-anchor="middle" x="198" y="-1298.8" font-family="Times,serif" font-size="14.00">1</text>
</g>
<!-- 21&#45;&gt;18 -->
<g id="edge10" class="edge">
<title>21&#45;&gt;18</title>
<path fill="none" stroke="black" d="M169.5,-1327.71C169.5,-1327.71 169.5,-1200.05 169.5,-1200.05"/>
<polygon fill="black" stroke="black" points="173,-1200.05 169.5,-1190.05 166,-1200.05 173,-1200.05"/>
<text text-anchor="middle" x="158" y="-1255.3" font-family="Times,serif" font-size="14.00">1</text>
</g>
<!-- 21&#45;&gt;19 -->
<g id="edge37" class="edge">
<title>21&#45;&gt;19</title>
<path fill="none" stroke="black" d="M260.06,-1338C345.46,-1338 508,-1338 508,-1338 508,-1338 508,-1026.28 508,-1026.28"/>
<polygon fill="black" stroke="black" points="511.5,-1026.28 508,-1016.28 504.5,-1026.28 511.5,-1026.28"/>
<text text-anchor="middle" x="487" y="-1168.3" font-family="Times,serif" font-size="14.00">1</text>
</g>
<!-- 21&#45;&gt;22 -->
<g id="edge48" class="edge">
<title>21&#45;&gt;22</title>
<path fill="none" stroke="black" d="M157.69,-1346C107.33,-1346 38,-1346 38,-1346 38,-1346 38,-765.23 38,-765.23"/>
<polygon fill="black" stroke="black" points="41.5,-765.23 38,-755.23 34.5,-765.23 41.5,-765.23"/>
<text text-anchor="middle" x="41" y="-1037.8" font-family="Times,serif" font-size="14.00">1</text>
</g>
<!-- 21&#45;&gt;26 -->
<g id="edge44" class="edge">
<title>21&#45;&gt;26</title>
<path fill="none" stroke="black" d="M260.08,-1341C362.24,-1341 582,-1341 582,-1341 582,-1341 582,-852.1 582,-852.1"/>
<polygon fill="black" stroke="black" points="585.5,-852.1 582,-842.1 578.5,-852.1 585.5,-852.1"/>
<text text-anchor="middle" x="587" y="-1081.3" font-family="Times,serif" font-size="14.00">1</text>
</g>
<!-- 27 -->
<g id="node28" class="node">
<title>27</title>
<g id="a_node28"><a xlink:title="source span: [13:15|13:36]">
<polygon fill="none" stroke="black" points="472,-212 418,-212 418,-176 472,-176 472,-212"/>
<text text-anchor="middle" x="445" y="-190.3" font-family="Times,serif" font-size="14.00">Add</text>
</a>
</g>
</g>
<!-- 22&#45;&gt;27 -->
<g id="edge45" class="edge">
<title>22&#45;&gt;27</title>
<path fill="none" stroke="black" d="M45,-718.93C45,-624.71 45,-194 45,-194 45,-194 407.82,-194 407.82,-194"/>
<polygon fill="black" stroke="black" points="407.82,-197.5 417.82,-194 407.82,-190.5 407.82,-197.5"/>
<text text-anchor="middle" x="63" y="-472.3" font-family="Times,serif" font-size="14.00">1</text>
</g>
<!-- 23&#45;&gt;24 -->
<g id="edge38" class="edge">
<title>23&#45;&gt;24</title>
<path fill="none" stroke="black" d="M372,-457.68C372,-457.68 372,-396.05 372,-396.05"/>
<polygon fill="black" stroke="black" points="375.5,-396.05 372,-386.05 368.5,-396.05 375.5,-396.05"/>
<text text-anchor="middle" x="346" y="-418.3" font-family="Times,serif" font-size="14.00">1</text>
</g>
<!-- 28 -->
<g id="node29" class="node">
<title>28</title>
<g id="a_node29"><a xlink:title="source span: [13:15|13:32]">
<polygon fill="none" stroke="black" points="472,-299 418,-299 418,-263 472,-263 472,-299"/>
<text text-anchor="middle" x="445" y="-277.3" font-family="Times,serif" font-size="14.00">Add</text>
</a>
</g>
</g>
<!-- 24&#45;&gt;28 -->
<g id="edge27" class="edge">
<title>24&#45;&gt;28</title>
<path fill="none" stroke="black" d="M385,-349.97C385,-324.49 385,-281 385,-281 385,-281 407.81,-281 407.81,-281"/>
<polygon fill="black" stroke="black" points="407.81,-284.5 417.81,-281 407.81,-277.5 407.81,-284.5"/>
<text text-anchor="middle" x="404" y="-320.8" font-family="Times,serif" font-size="14.00">0</text>
</g>
<!-- 25&#45;&gt;7 -->
<g id="edge12" class="edge">
<title>25&#45;&gt;7</title>
<path fill="none" stroke="black" d="M277,-1153.97C277,-1153.97 277,-1113 277,-1113"/>
<polygon fill="black" stroke="black" points="280.5,-1113 277,-1103 273.5,-1113 280.5,-1113"/>
<text text-anchor="middle" x="282" y="-1124.8" font-family="Times,serif" font-size="14.00">2</text>
</g>
<!-- 26&#45;&gt;28 -->
<g id="edge40" class="edge">
<title>26&#45;&gt;28</title>
<path fill="none" stroke="black" d="M575.5,-805.93C575.5,-711.71 575.5,-281 575.5,-281 575.5,-281 482.04,-281 482.04,-281"/>
<polygon fill="black" stroke="black" points="482.04,-277.5 472.04,-281 482.04,-284.5 482.04,-277.5"/>
<text text-anchor="middle" x="565" y="-559.3" font-family="Times,serif" font-size="14.00">1</text>
</g>
<!-- 27&#45;&gt;12 -->
<g id="edge25" class="edge">
<title>27&#45;&gt;12</title>
<path fill="none" stroke="black" d="M445,-175.97C445,-150.49 445,-107 445,-107 445,-107 482.59,-107 482.59,-107"/>
<polygon fill="black" stroke="black" points="482.59,-110.5 492.59,-107 482.59,-103.5 482.59,-110.5"/>
<text text-anchor="middle" x="477" y="-146.8" font-family="Times,serif" font-size="14.00">1</text>
</g>
<!-- 28&#45;&gt;27 -->
<g id="edge26" class="edge">
<title>28&#45;&gt;27</title>
<path fill="none" stroke="black" d="M445,-262.97C445,-262.97 445,-222 445,-222"/>
<polygon fill="black" stroke="black" points="448.5,-222 445,-212 441.5,-222 448.5,-222"/>
<text text-anchor="middle" x="450" y="-233.8" font-family="Times,serif" font-size="14.00">0</text>
</g>
<!-- 29&#45;&gt;15 -->
<g id="edge15" class="edge">
<title>29&#45;&gt;15</title>
<path fill="none" stroke="black" d="M437,-631.97C437,-631.97 437,-591 437,-591"/>
<polygon fill="black" stroke="black" points="440.5,-591 437,-581 433.5,-591 440.5,-591"/>
<text text-anchor="middle" x="409" y="-602.8" font-family="Times,serif" font-size="14.00">2</text>
</g>
</g>
</svg>
