<?xml version="1.0" encoding="UTF-8" standalone="no"?>
<!DOCTYPE svg PUBLIC "-//W3C//DTD SVG 1.1//EN"
 "http://www.w3.org/Graphics/SVG/1.1/DTD/svg11.dtd">
<!-- Generated by graphviz version 2.43.0 (0)
 -->
<!-- Title: main Pages: 1 -->
<svg width="506pt" height="1019pt"
 viewBox="0.00 0.00 506.00 1019.00" xmlns="http://www.w3.org/2000/svg" xmlns:xlink="http://www.w3.org/1999/xlink">
<g id="graph0" class="graph" transform="scale(1 1) rotate(0) translate(4 1015)">
<title>main</title>
<polygon fill="white" stroke="transparent" points="-4,4 -4,-1015 502,-1015 502,4 -4,4"/>
<g id="clust1" class="cluster">
<title>cluster_0</title>
<polygon fill="none" stroke="black" points="8,-81 8,-1003 490,-1003 490,-81 8,-81"/>
</g>
<g id="clust2" class="cluster">
<title>cluster_22</title>
<polygon fill="none" stroke="black" points="307,-8 307,-48 352,-48 352,-8 307,-8"/>
<text text-anchor="middle" x="329.5" y="-32.8" font-family="Times,serif" font-size="14.00">End</text>
</g>
<!-- c_0 -->
<!-- 1 -->
<g id="node2" class="node">
<title>1</title>
<g id="a_node2"><a xlink:title="source span: [3:10|3:11]">
<polygon fill="none" stroke="black" points="410,-908 308,-908 308,-872 410,-872 410,-908"/>
<text text-anchor="middle" x="359" y="-886.3" font-family="Times,serif" font-size="14.00">ConstInt [3]</text>
</a>
</g>
</g>
<!-- 8 -->
<g id="node9" class="node">
<title>8</title>
<g id="a_node9"><a xlink:title="source span: [9:2|9:8]">
<polygon fill="none" stroke="black" points="362,-734 308,-734 308,-698 362,-698 362,-734"/>
<text text-anchor="middle" x="335" y="-712.3" font-family="Times,serif" font-size="14.00">Add</text>
</a>
</g>
</g>
<!-- 1&#45;&gt;8 -->
<g id="edge9" class="edge">
<title>1&#45;&gt;8</title>
<path fill="none" stroke="black" d="M344,-871.71C344,-871.71 344,-744.05 344,-744.05"/>
<polygon fill="black" stroke="black" points="347.5,-744.05 344,-734.05 340.5,-744.05 347.5,-744.05"/>
<text text-anchor="middle" x="340" y="-799.3" font-family="Times,serif" font-size="14.00">1</text>
</g>
<!-- 10 -->
<g id="node11" class="node">
<title>10</title>
<g id="a_node11"><a xlink:title="source span: [6:6|6:11]">
<polygon fill="none" stroke="black" points="187,-821 133,-821 133,-785 187,-785 187,-821"/>
<text text-anchor="middle" x="160" y="-799.3" font-family="Times,serif" font-size="14.00">Mod</text>
</a>
</g>
</g>
<!-- 1&#45;&gt;10 -->
<g id="edge19" class="edge">
<title>1&#45;&gt;10</title>
<path fill="none" stroke="black" d="M326,-871.97C326,-846.49 326,-803 326,-803 326,-803 197.04,-803 197.04,-803"/>
<polygon fill="black" stroke="black" points="197.04,-799.5 187.04,-803 197.04,-806.5 197.04,-799.5"/>
<text text-anchor="middle" x="273" y="-842.8" font-family="Times,serif" font-size="14.00">1</text>
</g>
<!-- 2 -->
<g id="node3" class="node">
<title>2</title>
<g id="a_node3"><a xlink:title="source span: [2:10|2:11]">
<polygon fill="none" stroke="black" points="482,-734 380,-734 380,-698 482,-698 482,-734"/>
<text text-anchor="middle" x="431" y="-712.3" font-family="Times,serif" font-size="14.00">ConstInt [2]</text>
</a>
</g>
</g>
<!-- 4 -->
<g id="node5" class="node">
<title>4</title>
<g id="a_node5"><a xlink:title="source span: [7:6|7:11]">
<polygon fill="none" stroke="black" points="266,-647 212,-647 212,-611 266,-611 266,-647"/>
<text text-anchor="middle" x="239" y="-625.3" font-family="Times,serif" font-size="14.00">Div</text>
</a>
</g>
</g>
<!-- 2&#45;&gt;4 -->
<g id="edge14" class="edge">
<title>2&#45;&gt;4</title>
<path fill="none" stroke="black" d="M410.33,-697.85C410.33,-685.73 410.33,-672 410.33,-672 410.33,-672 248,-672 248,-672 248,-672 248,-657.49 248,-657.49"/>
<polygon fill="black" stroke="black" points="251.5,-657.49 248,-647.49 244.5,-657.49 251.5,-657.49"/>
<text text-anchor="middle" x="300" y="-668.8" font-family="Times,serif" font-size="14.00">0</text>
</g>
<!-- 20 -->
<g id="node21" class="node">
<title>20</title>
<g id="a_node21"><a xlink:title="source span: [10:2|10:8]">
<polygon fill="none" stroke="black" points="379,-647 325,-647 325,-611 379,-611 379,-647"/>
<text text-anchor="middle" x="352" y="-625.3" font-family="Times,serif" font-size="14.00">Sub</text>
</a>
</g>
</g>
<!-- 2&#45;&gt;20 -->
<g id="edge10" class="edge">
<title>2&#45;&gt;20</title>
<path fill="none" stroke="black" d="M379.95,-710C376.19,-710 373.83,-710 373.83,-710 373.83,-710 373.83,-657.38 373.83,-657.38"/>
<polygon fill="black" stroke="black" points="377.33,-657.38 373.83,-647.38 370.33,-657.38 377.33,-657.38"/>
<text text-anchor="middle" x="396" y="-668.8" font-family="Times,serif" font-size="14.00">1</text>
</g>
<!-- 21 -->
<g id="node22" class="node">
<title>21</title>
<g id="a_node22"><a xlink:title="source span: [11:2|11:8]">
<polygon fill="none" stroke="black" points="323,-473 269,-473 269,-437 323,-437 323,-473"/>
<text text-anchor="middle" x="296" y="-451.3" font-family="Times,serif" font-size="14.00">Div</text>
</a>
</g>
</g>
<!-- 2&#45;&gt;21 -->
<g id="edge11" class="edge">
<title>2&#45;&gt;21</title>
<path fill="none" stroke="black" d="M440.67,-697.65C440.67,-638.24 440.67,-455 440.67,-455 440.67,-455 333.21,-455 333.21,-455"/>
<polygon fill="black" stroke="black" points="333.21,-451.5 323.21,-455 333.21,-458.5 333.21,-451.5"/>
<text text-anchor="middle" x="419" y="-581.8" font-family="Times,serif" font-size="14.00">1</text>
</g>
<!-- 3 -->
<g id="node4" class="node">
<title>3</title>
<g id="a_node4"><a xlink:title="source span: [7:6|7:11]">
<polygon fill="none" stroke="black" points="316,-560 162,-560 162,-524 316,-524 316,-560"/>
<text text-anchor="middle" x="239" y="-538.3" font-family="Times,serif" font-size="14.00">Proj SIDE_EFFECT</text>
</a>
</g>
</g>
<!-- 3&#45;&gt;21 -->
<g id="edge12" class="edge">
<title>3&#45;&gt;21</title>
<path fill="none" stroke="black" d="M292.5,-523.97C292.5,-523.97 292.5,-483 292.5,-483"/>
<polygon fill="black" stroke="black" points="296,-483 292.5,-473 289,-483 296,-483"/>
<text text-anchor="middle" x="267" y="-494.8" font-family="Times,serif" font-size="14.00">2</text>
</g>
<!-- 4&#45;&gt;3 -->
<g id="edge13" class="edge">
<title>4&#45;&gt;3</title>
<path fill="none" stroke="black" d="M239,-610.97C239,-610.97 239,-570 239,-570"/>
<polygon fill="black" stroke="black" points="242.5,-570 239,-560 235.5,-570 242.5,-570"/>
<text text-anchor="middle" x="244" y="-581.8" font-family="Times,serif" font-size="14.00">0</text>
</g>
<!-- 5 -->
<g id="node6" class="node">
<title>5</title>
<g id="a_node6"><a xlink:title="source span: [6:6|6:11]">
<polygon fill="none" stroke="black" points="170,-734 16,-734 16,-698 170,-698 170,-734"/>
<text text-anchor="middle" x="93" y="-712.3" font-family="Times,serif" font-size="14.00">Proj SIDE_EFFECT</text>
</a>
</g>
</g>
<!-- 5&#45;&gt;4 -->
<g id="edge16" class="edge">
<title>5&#45;&gt;4</title>
<path fill="none" stroke="black" d="M166,-697.97C166,-672.49 166,-629 166,-629 166,-629 201.82,-629 201.82,-629"/>
<polygon fill="black" stroke="black" points="201.82,-632.5 211.82,-629 201.82,-625.5 201.82,-632.5"/>
<text text-anchor="middle" x="154" y="-668.8" font-family="Times,serif" font-size="14.00">2</text>
</g>
<!-- 6 -->
<g id="node7" class="node">
<title>6</title>
<g id="a_node7"><a xlink:title="source span: [0:0|15:1]">
<polygon fill="none" stroke="black" points="120,-995 66,-995 66,-959 120,-959 120,-995"/>
<text text-anchor="middle" x="93" y="-973.3" font-family="Times,serif" font-size="14.00">Start</text>
</a>
</g>
</g>
<!-- 16 -->
<g id="node17" class="node">
<title>16</title>
<g id="a_node17"><a xlink:title="source span: [0:0|15:1]">
<polygon fill="none" stroke="black" points="170,-908 16,-908 16,-872 170,-872 170,-908"/>
<text text-anchor="middle" x="93" y="-886.3" font-family="Times,serif" font-size="14.00">Proj SIDE_EFFECT</text>
</a>
</g>
</g>
<!-- 6&#45;&gt;16 -->
<g id="edge21" class="edge">
<title>6&#45;&gt;16</title>
<path fill="none" stroke="black" d="M93,-958.97C93,-958.97 93,-918 93,-918"/>
<polygon fill="black" stroke="black" points="96.5,-918 93,-908 89.5,-918 96.5,-918"/>
<text text-anchor="middle" x="98" y="-929.8" font-family="Times,serif" font-size="14.00">0</text>
</g>
<!-- 7 -->
<g id="node8" class="node">
<title>7</title>
<g id="a_node8"><a xlink:title="source span: [14:9|14:10]">
<polygon fill="none" stroke="black" points="482,-212 380,-212 380,-176 482,-176 482,-212"/>
<text text-anchor="middle" x="431" y="-190.3" font-family="Times,serif" font-size="14.00">ConstInt [0]</text>
</a>
</g>
</g>
<!-- 19 -->
<g id="node20" class="node">
<title>19</title>
<g id="a_node20"><a xlink:title="source span: [14:2|14:10]">
<polygon fill="none" stroke="black" points="362,-125 296,-125 296,-89 362,-89 362,-125"/>
<text text-anchor="middle" x="329" y="-103.3" font-family="Times,serif" font-size="14.00">Return</text>
</a>
</g>
</g>
<!-- 7&#45;&gt;19 -->
<g id="edge25" class="edge">
<title>7&#45;&gt;19</title>
<path fill="none" stroke="black" d="M431,-175.97C431,-150.49 431,-107 431,-107 431,-107 372.12,-107 372.12,-107"/>
<polygon fill="black" stroke="black" points="372.12,-103.5 362.12,-107 372.12,-110.5 372.12,-103.5"/>
<text text-anchor="middle" x="407" y="-146.8" font-family="Times,serif" font-size="14.00">1</text>
</g>
<!-- 8&#45;&gt;20 -->
<g id="edge7" class="edge">
<title>8&#45;&gt;20</title>
<path fill="none" stroke="black" d="M343.5,-697.97C343.5,-697.97 343.5,-657 343.5,-657"/>
<polygon fill="black" stroke="black" points="347,-657 343.5,-647 340,-657 347,-657"/>
<text text-anchor="middle" x="348" y="-668.8" font-family="Times,serif" font-size="14.00">0</text>
</g>
<!-- 9 -->
<g id="node10" class="node">
<title>9</title>
<g id="a_node10"><a xlink:title="source span: [7:10|7:11]">
<polygon fill="none" stroke="black" points="290,-734 188,-734 188,-698 290,-698 290,-734"/>
<text text-anchor="middle" x="239" y="-712.3" font-family="Times,serif" font-size="14.00">ConstInt [4]</text>
</a>
</g>
</g>
<!-- 9&#45;&gt;4 -->
<g id="edge15" class="edge">
<title>9&#45;&gt;4</title>
<path fill="none" stroke="black" d="M230,-697.97C230,-697.97 230,-657 230,-657"/>
<polygon fill="black" stroke="black" points="233.5,-657 230,-647 226.5,-657 233.5,-657"/>
<text text-anchor="middle" x="244" y="-668.8" font-family="Times,serif" font-size="14.00">1</text>
</g>
<!-- 10&#45;&gt;5 -->
<g id="edge17" class="edge">
<title>10&#45;&gt;5</title>
<path fill="none" stroke="black" d="M151.5,-784.97C151.5,-784.97 151.5,-744 151.5,-744"/>
<polygon fill="black" stroke="black" points="155,-744 151.5,-734 148,-744 155,-744"/>
<text text-anchor="middle" x="120" y="-755.8" font-family="Times,serif" font-size="14.00">0</text>
</g>
<!-- 11 -->
<g id="node12" class="node">
<title>11</title>
<g id="a_node12"><a xlink:title="source span: [8:6|8:8]">
<polygon fill="none" stroke="black" points="474.5,-821 363.5,-821 363.5,-785 474.5,-785 474.5,-821"/>
<text text-anchor="middle" x="419" y="-799.3" font-family="Times,serif" font-size="14.00">ConstInt [42]</text>
</a>
</g>
</g>
<!-- 11&#45;&gt;8 -->
<g id="edge8" class="edge">
<title>11&#45;&gt;8</title>
<path fill="none" stroke="black" d="M368.67,-784.62C368.67,-760.72 368.67,-722 368.67,-722 368.67,-722 368.02,-722 368.02,-722"/>
<polygon fill="black" stroke="black" points="372.18,-718.5 362.18,-722 372.18,-725.5 372.18,-718.5"/>
<text text-anchor="middle" x="394" y="-755.8" font-family="Times,serif" font-size="14.00">0</text>
</g>
<!-- 12 -->
<g id="node13" class="node">
<title>12</title>
<g id="a_node13"><a xlink:title="source span: [12:7|12:8]">
<polygon fill="none" stroke="black" points="471,-386 369,-386 369,-350 471,-350 471,-386"/>
<text text-anchor="middle" x="420" y="-364.3" font-family="Times,serif" font-size="14.00">ConstInt [7]</text>
</a>
</g>
</g>
<!-- 18 -->
<g id="node19" class="node">
<title>18</title>
<g id="a_node19"><a xlink:title="source span: [12:2|12:8]">
<polygon fill="none" stroke="black" points="316,-299 262,-299 262,-263 316,-263 316,-299"/>
<text text-anchor="middle" x="289" y="-277.3" font-family="Times,serif" font-size="14.00">Mod</text>
</a>
</g>
</g>
<!-- 12&#45;&gt;18 -->
<g id="edge22" class="edge">
<title>12&#45;&gt;18</title>
<path fill="none" stroke="black" d="M374.5,-349.97C374.5,-324.49 374.5,-281 374.5,-281 374.5,-281 326.05,-281 326.05,-281"/>
<polygon fill="black" stroke="black" points="326.05,-277.5 316.05,-281 326.05,-284.5 326.05,-277.5"/>
<text text-anchor="middle" x="380" y="-320.8" font-family="Times,serif" font-size="14.00">1</text>
</g>
<!-- 13 -->
<g id="node14" class="node">
<title>13</title>
<g id="a_node14"><a xlink:title="source span: [11:2|11:8]">
<polygon fill="none" stroke="black" points="223,-386 69,-386 69,-350 223,-350 223,-386"/>
<text text-anchor="middle" x="146" y="-364.3" font-family="Times,serif" font-size="14.00">Proj SIDE_EFFECT</text>
</a>
</g>
</g>
<!-- 13&#45;&gt;18 -->
<g id="edge23" class="edge">
<title>13&#45;&gt;18</title>
<path fill="none" stroke="black" d="M215.5,-349.97C215.5,-324.49 215.5,-281 215.5,-281 215.5,-281 251.63,-281 251.63,-281"/>
<polygon fill="black" stroke="black" points="251.63,-284.5 261.63,-281 251.63,-277.5 251.63,-284.5"/>
<text text-anchor="middle" x="208" y="-320.8" font-family="Times,serif" font-size="14.00">2</text>
</g>
<!-- 14 -->
<g id="node15" class="node">
<title>14</title>
<g id="a_node15"><a xlink:title="source span: [12:2|12:8]">
<polygon fill="none" stroke="black" points="362,-212 208,-212 208,-176 362,-176 362,-212"/>
<text text-anchor="middle" x="285" y="-190.3" font-family="Times,serif" font-size="14.00">Proj SIDE_EFFECT</text>
</a>
</g>
</g>
<!-- 14&#45;&gt;19 -->
<g id="edge2" class="edge">
<title>14&#45;&gt;19</title>
<path fill="none" stroke="black" d="M329,-175.97C329,-175.97 329,-135 329,-135"/>
<polygon fill="black" stroke="black" points="332.5,-135 329,-125 325.5,-135 332.5,-135"/>
<text text-anchor="middle" x="318" y="-146.8" font-family="Times,serif" font-size="14.00">0</text>
</g>
<!-- 15 -->
<g id="node16" class="node">
<title>15</title>
<g id="a_node16"><a xlink:title="source span: [11:2|11:8]">
<polygon fill="none" stroke="black" points="351,-386 241,-386 241,-350 351,-350 351,-386"/>
<text text-anchor="middle" x="296" y="-364.3" font-family="Times,serif" font-size="14.00">Proj RESULT</text>
</a>
</g>
</g>
<!-- 15&#45;&gt;18 -->
<g id="edge4" class="edge">
<title>15&#45;&gt;18</title>
<path fill="none" stroke="black" d="M289,-349.97C289,-349.97 289,-309 289,-309"/>
<polygon fill="black" stroke="black" points="292.5,-309 289,-299 285.5,-309 292.5,-309"/>
<text text-anchor="middle" x="299" y="-320.8" font-family="Times,serif" font-size="14.00">0</text>
</g>
<!-- 16&#45;&gt;10 -->
<g id="edge20" class="edge">
<title>16&#45;&gt;10</title>
<path fill="none" stroke="black" d="M151.5,-871.97C151.5,-871.97 151.5,-831 151.5,-831"/>
<polygon fill="black" stroke="black" points="155,-831 151.5,-821 148,-831 155,-831"/>
<text text-anchor="middle" x="126" y="-842.8" font-family="Times,serif" font-size="14.00">2</text>
</g>
<!-- 17 -->
<g id="node18" class="node">
<title>17</title>
<g id="a_node18"><a xlink:title="source span: [1:10|1:11]">
<polygon fill="none" stroke="black" points="290,-908 188,-908 188,-872 290,-872 290,-908"/>
<text text-anchor="middle" x="239" y="-886.3" font-family="Times,serif" font-size="14.00">ConstInt [1]</text>
</a>
</g>
</g>
<!-- 17&#45;&gt;10 -->
<g id="edge18" class="edge">
<title>17&#45;&gt;10</title>
<path fill="none" stroke="black" d="M187.95,-890C182.28,-890 178.5,-890 178.5,-890 178.5,-890 178.5,-831.03 178.5,-831.03"/>
<polygon fill="black" stroke="black" points="182,-831.03 178.5,-821.03 175,-831.03 182,-831.03"/>
<text text-anchor="middle" x="188" y="-842.8" font-family="Times,serif" font-size="14.00">0</text>
</g>
<!-- 18&#45;&gt;14 -->
<g id="edge3" class="edge">
<title>18&#45;&gt;14</title>
<path fill="none" stroke="black" d="M289,-262.97C289,-262.97 289,-222 289,-222"/>
<polygon fill="black" stroke="black" points="292.5,-222 289,-212 285.5,-222 292.5,-222"/>
<text text-anchor="middle" x="291" y="-233.8" font-family="Times,serif" font-size="14.00">0</text>
</g>
<!-- c_22 -->
<!-- 19&#45;&gt;c_22 -->
<g id="edge1" class="edge">
<title>19&#45;&gt;c_22</title>
<path fill="none" stroke="black" d="M329,-88.69C329,-88.69 329,-73.63 329,-58.39"/>
<polygon fill="black" stroke="black" points="332.5,-58 329,-48 325.5,-58 332.5,-58"/>
<text text-anchor="middle" x="334" y="-59.8" font-family="Times,serif" font-size="14.00">0</text>
</g>
<!-- 20&#45;&gt;21 -->
<g id="edge6" class="edge">
<title>20&#45;&gt;21</title>
<path fill="none" stroke="black" d="M324.87,-629C321.66,-629 319.5,-629 319.5,-629 319.5,-629 319.5,-483.29 319.5,-483.29"/>
<polygon fill="black" stroke="black" points="323,-483.29 319.5,-473.29 316,-483.29 323,-483.29"/>
<text text-anchor="middle" x="357" y="-538.3" font-family="Times,serif" font-size="14.00">0</text>
</g>
<!-- 21&#45;&gt;13 -->
<g id="edge24" class="edge">
<title>21&#45;&gt;13</title>
<path fill="none" stroke="black" d="M268.81,-455C238.14,-455 192.5,-455 192.5,-455 192.5,-455 192.5,-396.03 192.5,-396.03"/>
<polygon fill="black" stroke="black" points="196,-396.03 192.5,-386.03 189,-396.03 196,-396.03"/>
<text text-anchor="middle" x="209" y="-407.8" font-family="Times,serif" font-size="14.00">0</text>
</g>
<!-- 21&#45;&gt;15 -->
<g id="edge5" class="edge">
<title>21&#45;&gt;15</title>
<path fill="none" stroke="black" d="M296,-436.97C296,-436.97 296,-396 296,-396"/>
<polygon fill="black" stroke="black" points="299.5,-396 296,-386 292.5,-396 299.5,-396"/>
<text text-anchor="middle" x="301" y="-407.8" font-family="Times,serif" font-size="14.00">0</text>
</g>
</g>
</svg>
