<?xml version="1.0" encoding="UTF-8" standalone="no"?>
<!DOCTYPE svg PUBLIC "-//W3C//DTD SVG 1.1//EN"
 "http://www.w3.org/Graphics/SVG/1.1/DTD/svg11.dtd">
<!-- Generated by graphviz version 2.43.0 (0)
 -->
<!-- Title: main Pages: 1 -->
<svg width="411pt" height="410pt"
 viewBox="0.00 0.00 411.00 410.00" xmlns="http://www.w3.org/2000/svg" xmlns:xlink="http://www.w3.org/1999/xlink">
<g id="graph0" class="graph" transform="scale(1 1) rotate(0) translate(4 406)">
<title>main</title>
<polygon fill="white" stroke="transparent" points="-4,4 -4,-406 407,-406 407,4 -4,4"/>
<g id="clust1" class="cluster">
<title>cluster_0</title>
<polygon fill="none" stroke="black" points="197,-8 197,-48 242,-48 242,-8 197,-8"/>
<text text-anchor="middle" x="219.5" y="-32.8" font-family="Times,serif" font-size="14.00">End</text>
</g>
<g id="clust2" class="cluster">
<title>cluster_1</title>
<polygon fill="none" stroke="black" points="8,-81 8,-394 395,-394 395,-81 8,-81"/>
</g>
<!-- c_0 -->
<!-- c_1 -->
<!-- 2 -->
<g id="node3" class="node">
<title>2</title>
<g id="a_node3"><a xlink:title="source span: [2:13|2:14]">
<polygon fill="none" stroke="black" points="367,-386 265,-386 265,-350 367,-350 367,-386"/>
<text text-anchor="middle" x="316" y="-364.3" font-family="Times,serif" font-size="14.00">ConstInt [4]</text>
</a>
</g>
</g>
<!-- 7 -->
<g id="node8" class="node">
<title>7</title>
<g id="a_node8"><a xlink:title="source span: [2:12|2:14]">
<polygon fill="none" stroke="black" points="245,-299 191,-299 191,-263 245,-263 245,-299"/>
<text text-anchor="middle" x="218" y="-277.3" font-family="Times,serif" font-size="14.00">Sub</text>
</a>
</g>
</g>
<!-- 2&#45;&gt;7 -->
<g id="edge10" class="edge">
<title>2&#45;&gt;7</title>
<path fill="none" stroke="black" d="M270.5,-349.97C270.5,-324.49 270.5,-281 270.5,-281 270.5,-281 255.17,-281 255.17,-281"/>
<polygon fill="black" stroke="black" points="255.17,-277.5 245.17,-281 255.17,-284.5 255.17,-277.5"/>
<text text-anchor="middle" x="283" y="-320.8" font-family="Times,serif" font-size="14.00">1</text>
</g>
<!-- 3 -->
<g id="node4" class="node">
<title>3</title>
<g id="a_node4"><a xlink:title="source span: [2:6|2:14]">
<polygon fill="none" stroke="black" points="208,-212 154,-212 154,-176 208,-176 208,-212"/>
<text text-anchor="middle" x="181" y="-190.3" font-family="Times,serif" font-size="14.00">Mul</text>
</a>
</g>
</g>
<!-- 4 -->
<g id="node5" class="node">
<title>4</title>
<g id="a_node5"><a xlink:title="source span: [3:2|3:10]">
<polygon fill="none" stroke="black" points="252,-125 186,-125 186,-89 252,-89 252,-125"/>
<text text-anchor="middle" x="219" y="-103.3" font-family="Times,serif" font-size="14.00">Return</text>
</a>
</g>
</g>
<!-- 3&#45;&gt;4 -->
<g id="edge4" class="edge">
<title>3&#45;&gt;4</title>
<path fill="none" stroke="black" d="M197,-175.97C197,-175.97 197,-135 197,-135"/>
<polygon fill="black" stroke="black" points="200.5,-135 197,-125 193.5,-135 200.5,-135"/>
<text text-anchor="middle" x="208" y="-146.8" font-family="Times,serif" font-size="14.00">1</text>
</g>
<!-- 4&#45;&gt;c_0 -->
<g id="edge1" class="edge">
<title>4&#45;&gt;c_0</title>
<path fill="none" stroke="black" d="M219,-88.69C219,-88.69 219,-73.63 219,-58.39"/>
<polygon fill="black" stroke="black" points="222.5,-58 219,-48 215.5,-58 222.5,-58"/>
<text text-anchor="middle" x="224" y="-59.8" font-family="Times,serif" font-size="14.00">0</text>
</g>
<!-- 5 -->
<g id="node6" class="node">
<title>5</title>
<g id="a_node6"><a xlink:title="source span: [0:0|4:1]">
<polygon fill="none" stroke="black" points="330,-299 276,-299 276,-263 330,-263 330,-299"/>
<text text-anchor="middle" x="303" y="-277.3" font-family="Times,serif" font-size="14.00">Start</text>
</a>
</g>
</g>
<!-- 8 -->
<g id="node9" class="node">
<title>8</title>
<g id="a_node9"><a xlink:title="source span: [0:0|4:1]">
<polygon fill="none" stroke="black" points="380,-212 226,-212 226,-176 380,-176 380,-212"/>
<text text-anchor="middle" x="303" y="-190.3" font-family="Times,serif" font-size="14.00">Proj SIDE_EFFECT</text>
</a>
</g>
</g>
<!-- 5&#45;&gt;8 -->
<g id="edge3" class="edge">
<title>5&#45;&gt;8</title>
<path fill="none" stroke="black" d="M303,-262.97C303,-262.97 303,-222 303,-222"/>
<polygon fill="black" stroke="black" points="306.5,-222 303,-212 299.5,-222 306.5,-222"/>
<text text-anchor="middle" x="308" y="-233.8" font-family="Times,serif" font-size="14.00">0</text>
</g>
<!-- 6 -->
<g id="node7" class="node">
<title>6</title>
<g id="a_node7"><a xlink:title="source span: [2:6|2:9]">
<polygon fill="none" stroke="black" points="173,-299 119,-299 119,-263 173,-263 173,-299"/>
<text text-anchor="middle" x="146" y="-277.3" font-family="Times,serif" font-size="14.00">Sub</text>
</a>
</g>
</g>
<!-- 6&#45;&gt;3 -->
<g id="edge5" class="edge">
<title>6&#45;&gt;3</title>
<path fill="none" stroke="black" d="M163.5,-262.97C163.5,-262.97 163.5,-222 163.5,-222"/>
<polygon fill="black" stroke="black" points="167,-222 163.5,-212 160,-222 167,-222"/>
<text text-anchor="middle" x="161" y="-233.8" font-family="Times,serif" font-size="14.00">0</text>
</g>
<!-- 7&#45;&gt;3 -->
<g id="edge8" class="edge">
<title>7&#45;&gt;3</title>
<path fill="none" stroke="black" d="M199.5,-262.97C199.5,-262.97 199.5,-222 199.5,-222"/>
<polygon fill="black" stroke="black" points="203,-222 199.5,-212 196,-222 203,-222"/>
<text text-anchor="middle" x="205" y="-233.8" font-family="Times,serif" font-size="14.00">1</text>
</g>
<!-- 8&#45;&gt;4 -->
<g id="edge2" class="edge">
<title>8&#45;&gt;4</title>
<path fill="none" stroke="black" d="M239,-175.97C239,-175.97 239,-135 239,-135"/>
<polygon fill="black" stroke="black" points="242.5,-135 239,-125 235.5,-135 242.5,-135"/>
<text text-anchor="middle" x="285" y="-146.8" font-family="Times,serif" font-size="14.00">0</text>
</g>
<!-- 9 -->
<g id="node10" class="node">
<title>9</title>
<g id="a_node10"><a xlink:title="source span: [2:6|2:9]">
<polygon fill="none" stroke="black" points="247,-386 145,-386 145,-350 247,-350 247,-386"/>
<text text-anchor="middle" x="196" y="-364.3" font-family="Times,serif" font-size="14.00">ConstInt [0]</text>
</a>
</g>
</g>
<!-- 9&#45;&gt;6 -->
<g id="edge6" class="edge">
<title>9&#45;&gt;6</title>
<path fill="none" stroke="black" d="M159,-349.97C159,-349.97 159,-309 159,-309"/>
<polygon fill="black" stroke="black" points="162.5,-309 159,-299 155.5,-309 162.5,-309"/>
<text text-anchor="middle" x="163" y="-320.8" font-family="Times,serif" font-size="14.00">0</text>
</g>
<!-- 9&#45;&gt;7 -->
<g id="edge9" class="edge">
<title>9&#45;&gt;7</title>
<path fill="none" stroke="black" d="M218,-349.97C218,-349.97 218,-309 218,-309"/>
<polygon fill="black" stroke="black" points="221.5,-309 218,-299 214.5,-309 221.5,-309"/>
<text text-anchor="middle" x="207" y="-320.8" font-family="Times,serif" font-size="14.00">0</text>
</g>
<!-- 10 -->
<g id="node11" class="node">
<title>10</title>
<g id="a_node11"><a xlink:title="source span: [2:7|2:9]">
<polygon fill="none" stroke="black" points="126.5,-386 15.5,-386 15.5,-350 126.5,-350 126.5,-386"/>
<text text-anchor="middle" x="71" y="-364.3" font-family="Times,serif" font-size="14.00">ConstInt [10]</text>
</a>
</g>
</g>
<!-- 10&#45;&gt;6 -->
<g id="edge7" class="edge">
<title>10&#45;&gt;6</title>
<path fill="none" stroke="black" d="M122.75,-349.97C122.75,-349.97 122.75,-309 122.75,-309"/>
<polygon fill="black" stroke="black" points="126.25,-309 122.75,-299 119.25,-309 126.25,-309"/>
<text text-anchor="middle" x="100" y="-320.8" font-family="Times,serif" font-size="14.00">1</text>
</g>
</g>
</svg>
